<?xml version="1.0" encoding="UTF-8" standalone="no"?>
<!-- Created with Inkscape (http://www.inkscape.org/) -->

<svg
   width="28mm"
   height="28mm"
   viewBox="0 0 28 28"
   version="1.1"
   id="svg2062"
   inkscape:version="1.1.2 (0a00cf5339, 2022-02-04)"
   sodipodi:docname="btn-check.svg"
   xmlns:inkscape="http://www.inkscape.org/namespaces/inkscape"
   xmlns:sodipodi="http://sodipodi.sourceforge.net/DTD/sodipodi-0.dtd"
   xmlns="http://www.w3.org/2000/svg"
   xmlns:svg="http://www.w3.org/2000/svg">
  <sodipodi:namedview
     id="namedview2064"
     pagecolor="#ffffff"
     bordercolor="#666666"
     borderopacity="1.0"
     inkscape:pageshadow="2"
     inkscape:pageopacity="0.0"
     inkscape:pagecheckerboard="0"
     inkscape:document-units="mm"
     showgrid="false"
     inkscape:zoom="0.57370932"
     inkscape:cx="396.54228"
     inkscape:cy="561.25984"
     inkscape:window-width="1920"
     inkscape:window-height="1001"
     inkscape:window-x="0"
     inkscape:window-y="0"
     inkscape:window-maximized="1"
     inkscape:current-layer="layer1" />
  <defs
     id="defs2059" />
  <g
     inkscape:label="Capa 1"
     inkscape:groupmode="layer"
     id="layer1">
    <g
       id="g1633"
       transform="matrix(0.66827125,0,0,0.66827098,66.789401,-192.96875)">
      <g
         id="g1532"
         inkscape:export-filename="/home/julian_guerrero/g1532.png"
         inkscape:export-xdpi="19.398952"
         inkscape:export-ydpi="19.398952">
        <path
           id="path1334"
           style="fill:#008000;stroke:#ffffff;stroke-width:0;stroke-miterlimit:4;stroke-dasharray:none"
           d="m -96.276628,288.75824 c -2.031545,0 -3.666921,1.63539 -3.666921,3.66694 v 34.5653 c 0,2.03154 1.635376,3.66693 3.666921,3.66693 h 34.565306 c 2.031539,0 3.666926,-1.63539 3.666926,-3.66693 v -34.5653 c 0,-2.03155 -1.635387,-3.66694 -3.666926,-3.66694 z m 3.524947,5.90884 h 27.515406 c 0.683604,0 1.234172,0.55057 1.234172,1.23417 v 27.61315 c 0,0.68361 -0.550568,1.23386 -1.234172,1.23386 h -27.515406 c -0.683598,0 -1.234172,-0.55025 -1.234172,-1.23386 v -27.61315 c 0,-0.6836 0.550574,-1.23417 1.234172,-1.23417 z"
           inkscape:export-filename="/home/julian_guerrero/btn-uncheck.png"
           inkscape:export-xdpi="19.398952"
           inkscape:export-ydpi="19.398952" />
        <path
           style="fill:#008000;fill-opacity:1;stroke:#ffffff;stroke-width:1.874;stroke-linecap:butt;stroke-linejoin:miter;stroke-miterlimit:4;stroke-dasharray:none;stroke-opacity:1"
           d="m -82.36897,316.89721 -10.546494,-7.4359 c -1.209289,-1.00454 -2.178026,-0.56784 -2.975769,0.89331 l -2.033762,3.2471 c -0.859416,1.23968 -0.550549,2.27577 0.53323,3.17682 l 15.44361,11.24633 c 0.987736,0.81903 1.992576,0.7653 3.030836,-0.99508 l 19.129331,-30.38484 c 0.454021,-1.00043 0.269541,-1.85725 -0.404308,-2.60399 -1.456761,-1.2853 -2.923098,-2.34845 -4.406864,-3.00691 -0.810991,-0.42383 -1.25301,0.0313 -1.680119,0.52197 z"
           id="path874"
           sodipodi:nodetypes="cccccccccccc"
           inkscape:export-filename="/home/julian_guerrero/path872.png"
           inkscape:export-xdpi="19.398952"
           inkscape:export-ydpi="19.398952" />
      </g>
    </g>
  </g>
</svg>
