<?xml version="1.0" encoding="UTF-8" standalone="no"?>
<!-- Created with Inkscape (http://www.inkscape.org/) -->

<svg
   width="26mm"
   height="26mm"
   viewBox="0 0 26 26"
   version="1.1"
   id="svg8"
   inkscape:version="1.1.2 (0a00cf5339, 2022-02-04)"
   sodipodi:docname="btn-bd.svg"
   xmlns:inkscape="http://www.inkscape.org/namespaces/inkscape"
   xmlns:sodipodi="http://sodipodi.sourceforge.net/DTD/sodipodi-0.dtd"
   xmlns="http://www.w3.org/2000/svg"
   xmlns:svg="http://www.w3.org/2000/svg"
   xmlns:rdf="http://www.w3.org/1999/02/22-rdf-syntax-ns#"
   xmlns:cc="http://creativecommons.org/ns#"
   xmlns:dc="http://purl.org/dc/elements/1.1/">
  <defs
     id="defs2" />
  <sodipodi:namedview
     id="base"
     pagecolor="#ffffff"
     bordercolor="#666666"
     borderopacity="1.0"
     inkscape:pageopacity="0.0"
     inkscape:pageshadow="2"
     inkscape:zoom="2.0619594"
     inkscape:cx="150.09995"
     inkscape:cy="129.48849"
     inkscape:document-units="mm"
     inkscape:current-layer="layer1"
     showgrid="false"
     inkscape:window-width="1920"
     inkscape:window-height="1001"
     inkscape:window-x="0"
     inkscape:window-y="0"
     inkscape:window-maximized="1"
     inkscape:pagecheckerboard="0" />
  <metadata
     id="metadata5">
    <rdf:RDF>
      <cc:Work
         rdf:about="">
        <dc:format>image/svg+xml</dc:format>
        <dc:type
           rdf:resource="http://purl.org/dc/dcmitype/StillImage" />
      </cc:Work>
    </rdf:RDF>
  </metadata>
  <g
     inkscape:label="Capa 1"
     inkscape:groupmode="layer"
     id="layer1">
    <path
       style="fill:#000000;stroke-width:0.0165692"
       d="m 18.015785,25.969064 c -2.838336,-0.241063 -4.970301,-1.172947 -5.231926,-2.286688 -0.02936,-0.125905 -0.05362,-0.755586 -0.05343,-1.399239 l 3.99e-4,-1.170306 0.119431,0.234307 c 0.157061,0.308192 0.359653,0.535897 0.690725,0.776376 0.818833,0.594765 2.3589,1.071486 4.078222,1.262432 0.742515,0.0823 2.854392,0.08107 3.543157,-0.0021 2.573701,-0.311263 4.387106,-1.11328 4.768666,-2.109008 0.05068,-0.132047 0.06284,0.0608 0.0661,1.049314 0.0023,0.704702 -0.01979,1.300603 -0.05238,1.424727 -0.259895,0.982861 -2.019326,1.813345 -4.546831,2.146134 -0.737801,0.09735 -2.623711,0.138189 -3.382085,0.07401 z M 5.0866528,24.743513 C 4.9879328,24.355632 -0.00876023,2.3377275 1.0766819e-5,2.3292825 0.02682077,2.3016425 16.721097,-0.01912954 16.741125,1.2446439e-4 16.753575,0.01240446 17.268192,2.1800385 17.884717,4.8177255 l 1.120954,4.795829 -0.391445,0.04453 c -0.215308,0.02457 -0.398472,0.03562 -0.407071,0.02764 -0.0086,-0.01228 -0.281342,-1.162076 -0.60612,-2.559104 -0.324768,-1.397028 -0.596332,-2.5455 -0.603478,-2.552164 -0.01724,-0.01535 -15.0265482,2.272255 -15.0500292,2.29458 -0.01915,0.01842 3.79755,16.8277165 3.827759,16.8587325 0.0096,0.0092 1.309863,-0.236764 2.889771,-0.547781 1.5799122,-0.310986 2.8904142,-0.5651 2.9122282,-0.56464 0.0217,3.69e-4 0.03964,0.212504 0.03961,0.471439 l -5.1e-5,0.470641 -3.1402232,0.626517 c -1.727126,0.344582 -3.189562,0.638893 -3.249855,0.654064 -0.08337,0.0215 -0.116942,-0.0011 -0.140113,-0.09213 z M 18.465288,22.171911 c -0.592434,-0.03071 -1.690019,-0.174425 -2.294231,-0.302787 -1.39615,-0.297567 -2.421073,-0.756323 -2.984008,-1.335949 -0.423776,-0.436339 -0.429588,-0.461581 -0.446213,-1.938851 l -0.01468,-1.297501 0.128591,0.248126 c 1.012269,1.953007 6.975262,2.762241 10.841856,1.471404 1.188818,-0.396878 1.866463,-0.853301 2.175062,-1.465047 l 0.128336,-0.254268 -0.0018,1.246617 c -0.002,1.343472 -0.02043,1.460288 -0.291269,1.836253 -0.300492,0.417177 -1.143113,0.91045 -2.059193,1.205437 -1.453525,0.467969 -3.316876,0.678999 -5.182528,0.586903 z M 6.8842268,20.413227 c -0.141836,-0.576831 -0.397812,-1.732734 -0.385738,-1.741947 0.0083,-0.0061 1.10993,-0.211889 2.447867,-0.456299 1.3379412,-0.244748 2.4861612,-0.456361 2.5516062,-0.470733 l 0.118984,-0.02764 v 0.966739 c 0,0.960381 -7.79e-4,0.966953 -0.118984,0.994652 -0.281152,0.06572 -4.4406752,0.848111 -4.5095852,0.848111 -0.04178,0 -0.08866,-0.05128 -0.104175,-0.114236 z M 18.491731,18.336894 c -2.733404,-0.128976 -5.016608,-0.946993 -5.597652,-2.005919 l -0.140145,-0.255496 v -1.526434 c 0,-1.784294 -1.05e-4,-1.783895 0.575137,-2.301642 1.312496,-1.1813 4.855733,-1.803672 8.016242,-1.408022 2.53363,0.317159 4.342276,1.166191 4.602503,2.160567 0.03926,0.150166 0.05397,0.720456 0.04318,1.676876 -0.01851,1.640977 -0.01692,1.634191 -0.474507,2.080018 -0.837515,0.816021 -2.874382,1.4543 -4.971782,1.558034 -1.11895,0.05528 -1.303531,0.05743 -2.052966,0.0215 z m 2.829236,-3.278454 c 1.579216,-0.209433 2.884716,-0.629281 3.564446,-1.146261 0.310386,-0.236149 0.428215,-0.426942 0.428215,-0.693708 0,-0.16552 -0.04025,-0.228472 -0.304067,-0.474049 -1.320575,-1.230004 -5.453058,-1.748918 -8.659584,-1.087424 -1.721974,0.355269 -2.935004,1.030183 -2.935004,1.633085 0,0.711274 2.016898,1.56436 4.230636,1.789393 0.305408,0.03101 0.63856,0.06572 0.740361,0.07646 0.388167,0.04238 2.378851,-0.02457 2.935003,-0.09765 z M 5.6158418,14.87818 c -0.111867,-0.503099 -0.191402,-0.926233 -0.176785,-0.940298 0.01468,-0.01535 1.357087,-0.254267 2.983249,-0.533225 1.6261642,-0.279141 3.0163262,-0.52002 3.0892492,-0.53519 l 0.13258,-0.02764 -0.01915,0.955345 c -0.01053,0.525486 -0.02266,0.958724 -0.02681,0.962808 -0.0041,0.0029 -1.257071,0.227551 -2.7840652,0.49619 -1.526997,0.269008 -2.825534,0.499568 -2.885648,0.512742 -0.101909,0.02457 -0.122974,-0.03746 -0.312653,-0.890735 z m -0.873679,-3.839684 c 0,-0.0061 -0.0953,-0.418927 -0.211765,-0.917175 -0.116494,-0.4982775 -0.205733,-0.9114005 -0.198328,-0.9180645 0.02809,-0.02764 11.5409172,-1.84651 11.5594892,-1.828638 0.04538,0.04361 0.415009,1.732796 0.385285,1.760772 -0.01819,0.01843 -1.805554,0.320813 -3.972436,0.675436 -2.166878,0.3546225 -4.7548362,0.7784325 -5.7510162,0.9418335 -0.996183,0.16337 -1.811244,0.292039 -1.811244,0.28559 z"
       id="path21"
       inkscape:connector-curvature="0"
       inkscape:export-xdpi="78.699997"
       inkscape:export-ydpi="78.699997" />
  </g>
</svg>
