<?xml version="1.0" encoding="UTF-8" standalone="no"?>
<!-- Created with Inkscape (http://www.inkscape.org/) -->

<svg
   width="28mm"
   height="28mm"
   viewBox="0 0 28 28"
   version="1.1"
   id="svg2062"
   inkscape:version="1.1.2 (0a00cf5339, 2022-02-04)"
   sodipodi:docname="btn-uncheck.svg"
   xmlns:inkscape="http://www.inkscape.org/namespaces/inkscape"
   xmlns:sodipodi="http://sodipodi.sourceforge.net/DTD/sodipodi-0.dtd"
   xmlns="http://www.w3.org/2000/svg"
   xmlns:svg="http://www.w3.org/2000/svg">
  <sodipodi:namedview
     id="namedview2064"
     pagecolor="#ffffff"
     bordercolor="#666666"
     borderopacity="1.0"
     inkscape:pageshadow="2"
     inkscape:pageopacity="0.0"
     inkscape:pagecheckerboard="0"
     inkscape:document-units="mm"
     showgrid="false"
     inkscape:zoom="0.57370932"
     inkscape:cx="396.54228"
     inkscape:cy="561.25984"
     inkscape:window-width="1920"
     inkscape:window-height="1001"
     inkscape:window-x="0"
     inkscape:window-y="0"
     inkscape:window-maximized="1"
     inkscape:current-layer="layer1" />
  <defs
     id="defs2059" />
  <g
     inkscape:label="Capa 1"
     inkscape:groupmode="layer"
     id="layer1">
    <path
       id="path5099"
       style="fill:#008000;stroke:#ffffff;stroke-width:0;stroke-miterlimit:4;stroke-dasharray:none"
       d="M 2.450504,5e-7 C 1.092881,5e-7 3e-6,1.0928875 3e-6,2.4505055 V 25.549495 C 3e-6,26.907113 1.092881,28 2.450504,28 h 23.098993 c 1.35761,0 2.4505,-1.092887 2.4505,-2.450505 V 2.4505055 c 0,-1.357618 -1.09289,-2.450505 -2.4505,-2.450505 z m 2.355619,3.948708 h 18.387744 c 0.45684,0 0.82476,0.367927 0.82476,0.824755 V 23.226529 c 0,0.456836 -0.36792,0.824553 -0.82476,0.824553 H 4.806123 c -0.456829,0 -0.824761,-0.367717 -0.824761,-0.824553 V 4.7734635 c 0,-0.456828 0.367932,-0.824755 0.824761,-0.824755 z"
       inkscape:export-filename="/home/julian_guerrero/btn-uncheck.png"
       inkscape:export-xdpi="19.398952"
       inkscape:export-ydpi="19.398952" />
  </g>
</svg>
