<?xml version="1.0" encoding="UTF-8" standalone="no"?>
<!-- Created with Inkscape (http://www.inkscape.org/) -->

<svg
   width="32mm"
   height="32mm"
   viewBox="0 0 32 32"
   version="1.1"
   id="svg8"
   inkscape:version="1.1.2 (0a00cf5339, 2022-02-04)"
   sodipodi:docname="ico_hdd.svg"
   xmlns:inkscape="http://www.inkscape.org/namespaces/inkscape"
   xmlns:sodipodi="http://sodipodi.sourceforge.net/DTD/sodipodi-0.dtd"
   xmlns="http://www.w3.org/2000/svg"
   xmlns:svg="http://www.w3.org/2000/svg"
   xmlns:rdf="http://www.w3.org/1999/02/22-rdf-syntax-ns#"
   xmlns:cc="http://creativecommons.org/ns#"
   xmlns:dc="http://purl.org/dc/elements/1.1/">
  <defs
     id="defs2" />
  <sodipodi:namedview
     id="base"
     pagecolor="#ffffff"
     bordercolor="#666666"
     borderopacity="1.0"
     inkscape:pageopacity="0.0"
     inkscape:pageshadow="2"
     inkscape:zoom="2.7497694"
     inkscape:cx="51.095194"
     inkscape:cy="120.7374"
     inkscape:document-units="mm"
     inkscape:current-layer="layer1"
     showgrid="false"
     inkscape:window-width="1920"
     inkscape:window-height="1001"
     inkscape:window-x="0"
     inkscape:window-y="0"
     inkscape:window-maximized="1"
     inkscape:pagecheckerboard="0" />
  <metadata
     id="metadata5">
    <rdf:RDF>
      <cc:Work
         rdf:about="">
        <dc:format>image/svg+xml</dc:format>
        <dc:type
           rdf:resource="http://purl.org/dc/dcmitype/StillImage" />
      </cc:Work>
    </rdf:RDF>
  </metadata>
  <g
     inkscape:label="Capa 1"
     inkscape:groupmode="layer"
     id="layer1">
    <path
       style="fill:#000000;stroke-width:0.0377233"
       d="M 13.860383,31.870529 C 8.7448718,31.231297 3.9478728,27.76203 1.6326908,23.0273 -2.7391946,14.086409 2.0317918,3.3653214 11.619403,0.58574245 c 2.697948,-0.7821364 6.064051,-0.7808136 8.769347,0.003 C 27.835937,2.7477614 32.735915,9.9892634 31.909272,17.614425 30.929586,26.650863 22.892589,32.998771 13.860383,31.870053 Z m 4.631743,-2.566224 c 2.663486,-0.485368 5.083017,-1.775434 7.085457,-3.777867 5.267907,-5.267907 5.267907,-13.802122 0,-19.0700286 -5.342926,-5.342932 -13.807948,-5.353741 -19.1348852,-0.02268 -5.304644,5.3069126 -5.304644,13.8121006 0,19.1190506 3.182546,3.183913 7.6085792,4.56261 12.0494282,3.753337 z M 9.0386188,23.809361 c -0.05225,-0.05216 -0.09501,-0.501393 -0.09501,-0.998023 v -0.903005 h 0.498804 0.498797 v 0.99806 0.998023 h -0.403783 c -0.222103,0 -0.446552,-0.04271 -0.498804,-0.09524 z m 2.0427162,-0.902968 v -0.99806 h 1.995213 1.995212 v -1.497034 -1.497071 h -2.840121 c -3.3822252,0 -3.2880302,0.04158 -3.2880302,-1.44533 0,-1.708876 -0.72926,-1.548775 7.0545042,-1.548775 7.783757,0 7.054508,-0.160252 7.054508,1.548775 0,1.486754 0.09407,1.44533 -3.288037,1.44533 h -2.840125 v 1.497071 1.497034 h 1.995208 1.995217 v 0.99806 0.998023 h -4.916771 -4.916778 z m -0.229999,-5.208191 c 0.252553,-0.252472 0.165737,-0.585524 -0.204422,-0.783723 -0.468607,-0.250961 -0.9179702,0.447194 -0.534694,0.830627 0.230792,0.230929 0.477047,0.215433 0.739098,-0.04687 z m 1.995213,0 c 0.252553,-0.252472 0.165736,-0.585524 -0.204422,-0.783723 -0.18746,-0.100535 -0.319724,-0.0771 -0.482034,0.08542 -0.264642,0.264567 -0.266909,0.283843 -0.07613,0.640479 0.177486,0.331843 0.466782,0.353764 0.762581,0.05783 z m 2.00763,-0.01134 c 0.264756,-0.264945 0.231548,-0.468889 -0.111561,-0.685418 -0.254291,-0.16063 -0.673445,0.0038 -0.773231,0.303496 -0.05485,0.164788 0.334344,0.612322 0.532314,0.612322 0.06717,0 0.225805,-0.103559 0.352478,-0.230552 z m 7.029824,0.05934 c 0.383268,-0.383433 -0.06611,-1.081512 -0.534691,-0.830627 -0.370159,0.198047 -0.45696,0.531062 -0.204422,0.783723 0.262035,0.2623 0.508321,0.277796 0.739075,0.04687 z m 0.171139,5.17032 v -1.007093 h 0.505332 0.505294 l -0.04193,0.962382 -0.04193,0.962419 -0.463171,0.0446 -0.463171,0.0446 z M 8.9999368,14.414887 c -0.05047,-0.20107 -0.06241,-0.873033 -0.02644,-1.493102 0.05886,-1.017261 0.145223,-1.291428 0.884112,-2.806603 0.4503872,-0.9235656 0.9199582,-1.7914966 1.0434952,-1.9287316 0.205593,-0.228283 0.637215,-0.249449 5.097211,-0.249449 4.459988,0 4.891617,0.02268 5.097203,0.249449 0.123537,0.137197 0.593096,1.005166 1.043498,1.9287316 0.738882,1.515175 0.825245,1.789342 0.884105,2.806603 0.034,0.620069 0.02267,1.291956 -0.02644,1.493102 l -0.0918,0.365859 H 15.998325 9.0917708 Z m 1.8568472,-0.819023 c 0.16041,-0.254363 -0.0038,-0.673739 -0.303403,-0.773557 -0.164528,-0.0548 -0.6120552,0.334489 -0.6120552,0.532536 0,0.198047 0.4475162,0.587414 0.6120552,0.532536 0.08327,-0.02646 0.219798,-0.159119 0.303403,-0.291402 z m 1.995942,0.10507 c 0.123159,-0.123212 0.223954,-0.262677 0.223954,-0.309543 0,-0.130394 -0.456922,-0.60703 -0.581967,-0.60703 -0.149038,0 -0.558155,0.418054 -0.558155,0.570331 0,0.06727 0.100794,0.222992 0.223954,0.346205 0.12316,0.123212 0.278923,0.224126 0.346094,0.224126 0.06721,0 0.222934,-0.100914 0.346093,-0.224126 z m 1.995216,0 c 0.12316,-0.123212 0.223954,-0.278929 0.223954,-0.346204 0,-0.06728 -0.100757,-0.222993 -0.223954,-0.346205 -0.12316,-0.123213 -0.278923,-0.224126 -0.346094,-0.224126 -0.06717,0 -0.222934,0.100913 -0.346093,0.224126 -0.123198,0.123212 -0.223954,0.278929 -0.223954,0.346205 0,0.06727 0.100756,0.222992 0.223954,0.346204 0.123159,0.123213 0.278922,0.224127 0.346093,0.224127 0.06717,0 0.222934,-0.100914 0.346094,-0.224127 z m 6.983246,0 c 0.123159,-0.123212 0.224029,-0.278929 0.224029,-0.346204 0,-0.148914 -0.407711,-0.570331 -0.551763,-0.570331 -0.183719,0 -0.445849,0.335244 -0.445849,0.570331 0,0.235086 0.262149,0.570293 0.445849,0.570293 0.05705,0 0.204763,-0.100914 0.327922,-0.224126 z"
       id="path21"
       inkscape:connector-curvature="0"
       inkscape:export-xdpi="78.699997"
       inkscape:export-ydpi="78.699997" />
  </g>
</svg>
