<?xml version="1.0" encoding="UTF-8" standalone="no"?>
<!-- Created with Inkscape (http://www.inkscape.org/) -->

<svg
   width="22mm"
   height="22mm"
   viewBox="0 0 22 22"
   version="1.1"
   id="svg2481"
   inkscape:version="1.1.2 (0a00cf5339, 2022-02-04)"
   sodipodi:docname="btn-repeat.svg"
   xmlns:inkscape="http://www.inkscape.org/namespaces/inkscape"
   xmlns:sodipodi="http://sodipodi.sourceforge.net/DTD/sodipodi-0.dtd"
   xmlns="http://www.w3.org/2000/svg"
   xmlns:svg="http://www.w3.org/2000/svg">
  <sodipodi:namedview
     id="namedview2483"
     pagecolor="#ffffff"
     bordercolor="#666666"
     borderopacity="1.0"
     inkscape:pageshadow="2"
     inkscape:pageopacity="0.0"
     inkscape:pagecheckerboard="0"
     inkscape:document-units="mm"
     showgrid="false"
     inkscape:zoom="2.4490006"
     inkscape:cx="129.64472"
     inkscape:cy="99.632481"
     inkscape:window-width="1920"
     inkscape:window-height="1001"
     inkscape:window-x="0"
     inkscape:window-y="0"
     inkscape:window-maximized="1"
     inkscape:current-layer="layer1" />
  <defs
     id="defs2478" />
  <g
     inkscape:label="Capa 1"
     inkscape:groupmode="layer"
     id="layer1">
    <path
       style="fill:#000000;stroke-width:0.10011"
       d="m 9.7012233,21.907043 c -2.581503,-0.293554 -5.390744,-1.776111 -7.040666,-3.715656 -1.209064,-1.421298 -1.95246405,-2.873921 -2.42338805,-4.735309 -0.316226,-1.249958 -0.316226,-3.6818659 0,-4.9318239 C 1.0790393,5.1966221 3.0825593,2.6679161 6.0343553,1.2074391 8.5435283,-0.03404087 11.217283,-0.32291987 13.851542,0.36285113 17.646635,1.3508081 20.648446,4.3381851 21.722188,8.1956436 21.978177,9.1152876 22,9.3347991 22,10.990173 c 0,1.655367 -0.02183,1.874878 -0.277812,2.794522 -1.247121,4.480331 -4.932435,7.614666 -9.560742,8.131359 -1.021623,0.114053 -1.389919,0.112701 -2.4602227,-0.009 z m 3.4141867,-2.98715 c 0.995752,-0.272442 2.148884,-0.844484 2.641796,-1.310521 0.371714,-0.351438 0.394085,-0.404233 0.340297,-0.802808 -0.03911,-0.289633 -0.141985,-0.4988 -0.320426,-0.65135 -0.398632,-0.340795 -0.851112,-0.293332 -1.62477,0.170443 -2.476205,1.484352 -5.5712207,1.044009 -7.5866147,-1.079385 -0.981831,-1.034446 -1.684496,-2.610407 -1.684496,-3.778046 v -0.428153 h 0.696988 c 0.383352,0 0.72258,-0.04116 0.753848,-0.09142 0.06171,-0.09924 -2.354556,-3.796309 -2.483017,-3.7991958 -0.113383,-0.00325 -2.57332,3.7253818 -2.517493,3.8151648 0.02578,0.04148 0.37653,0.07545 0.77939,0.07545 h 0.732469 l 0.06291,0.723578 c 0.319034,3.669174 3.257892,6.781553 6.945558,7.35565 0.8607037,0.134 2.3855497,0.04083 3.2635627,-0.199408 z m 6.394536,-5.955326 c 0.672671,-1.026565 1.200958,-1.901985 1.173974,-1.94539 -0.02698,-0.04343 -0.38531,-0.07891 -0.796271,-0.07891 h -0.7472 v -0.492506 c 0,-1.193764 -0.517505,-2.7391217 -1.333702,-3.982682 C 15.511391,2.9678801 11.02451,1.7934201 7.2876363,3.7116651 c -1.254816,0.64414 -1.575901,1.096004 -1.255557,1.766963 0.315617,0.6610572 0.911892,0.7348584 1.755556,0.217294 1.035865,-0.635472 1.907237,-0.878136 3.1688047,-0.882467 0.783876,-0.0032 1.279519,0.04844 1.707088,0.176119 2.459954,0.734605 4.221197,2.8360559 4.506336,5.3768159 l 0.06441,0.573882 h -0.748078 c -0.411444,0 -0.771163,0.03712 -0.79937,0.08248 -0.05726,0.09208 2.408092,3.810359 2.525566,3.809098 0.04097,-2.66e-4 0.624883,-0.840706 1.297558,-1.867278 z"
       id="path1384"
       inkscape:export-filename="/home/julian-guerrero/buttonreload.png"
       inkscape:export-xdpi="6.7399998"
       inkscape:export-ydpi="6.7399998" />
  </g>
</svg>
