<?xml version="1.0" encoding="UTF-8" standalone="no"?>
<!-- Created with Inkscape (http://www.inkscape.org/) -->

<svg
   width="32mm"
   height="32mm"
   viewBox="0 0 32 32"
   version="1.1"
   id="svg5"
   inkscape:version="1.1.2 (0a00cf5339, 2022-02-04)"
   sodipodi:docname="btn-folder.svg"
   xmlns:inkscape="http://www.inkscape.org/namespaces/inkscape"
   xmlns:sodipodi="http://sodipodi.sourceforge.net/DTD/sodipodi-0.dtd"
   xmlns="http://www.w3.org/2000/svg"
   xmlns:svg="http://www.w3.org/2000/svg">
  <sodipodi:namedview
     id="namedview7"
     pagecolor="#ffffff"
     bordercolor="#666666"
     borderopacity="1.0"
     inkscape:pageshadow="2"
     inkscape:pageopacity="0.0"
     inkscape:pagecheckerboard="0"
     inkscape:document-units="mm"
     showgrid="false"
     inkscape:zoom="1.6459695"
     inkscape:cx="64.095963"
     inkscape:cy="72.905361"
     inkscape:window-width="1516"
     inkscape:window-height="849"
     inkscape:window-x="172"
     inkscape:window-y="53"
     inkscape:window-maximized="0"
     inkscape:current-layer="g5911" />
  <defs
     id="defs2" />
  <g
     inkscape:label="Capa 1"
     inkscape:groupmode="layer"
     id="layer1">
    <g
       id="g2561"
       transform="matrix(0.24314156,0,0,0.23738281,68.69551,7.7684852)"
       style="stroke-width:4.16242">
      <g
         id="g5911"
         transform="matrix(1,0,0,1.0333474,-5.8606105e-7,-3.4040375)"
         style="stroke-width:4.09471">
        <g
           id="g1107"
           transform="matrix(1,0,0,1.1348376,0,-13.78743)">
          <path
             style="fill:#fbe24c;stroke-width:4.09471"
             d="m -282.5307,53.86424 c 0.0824,-37.444079 0.10472,-38.959129 0.59918,-40.647749 1.1564,-3.94915 4.71968,-7.09251 8.94491,-7.89077 1.07424,-0.20296 5.08272,-0.27573 12.2843,-0.22303 l 10.68976,0.0782 5.92248,7.7916 c 3.25737,4.28539 6.13652,7.94656 6.39813,8.13594 0.3796,0.27481 4.18361,0.34433 18.84062,0.34433 l 59.13614,0.40212 c 2.88042,0.73058 5.19469,2.39953 6.8613,4.94805 1.9036,2.91092 1.82103,1.38128 1.91056,35.395656 -0.0608,12.280595 0.0209,12.100001 0.0209,12.100001 l -65.81824,-0.06146 -65.74576,0.04956 c 0,0 -0.0586,-13.631239 -0.0443,-20.422473 z"
             id="path1103"
             sodipodi:nodetypes="cssscscccscccccc" />
          <path
             style="fill:#fbb800;stroke-width:4.09471"
             d="m -273.91658,101.72001 c -3.24643,-0.87093 -6.08659,-3.199044 -7.58531,-6.21777 l -0.87219,-1.756778 -0.0795,-9.723437 -0.0794,-9.723437 h 65.80528 65.80529 l -0.0795,9.723437 -0.0795,9.723437 -0.89335,1.800487 c -1.52619,3.07589 -4.58538,5.508751 -7.86342,6.253471 -1.84572,0.41931 -112.50645,0.34228 -114.07837,-0.0794 z"
             id="path1105"
             sodipodi:nodetypes="sscccccccssss" />
        </g>
      </g>
    </g>
  </g>
</svg>
