<?xml version="1.0" encoding="UTF-8" standalone="no"?>
<!-- Created with Inkscape (http://www.inkscape.org/) -->

<svg
   width="22mm"
   height="22mm"
   viewBox="0 0 22 22"
   version="1.1"
   id="svg890"
   inkscape:version="1.1.2 (0a00cf5339, 2022-02-04)"
   sodipodi:docname="btn-lock.svg"
   xmlns:inkscape="http://www.inkscape.org/namespaces/inkscape"
   xmlns:sodipodi="http://sodipodi.sourceforge.net/DTD/sodipodi-0.dtd"
   xmlns="http://www.w3.org/2000/svg"
   xmlns:svg="http://www.w3.org/2000/svg">
  <sodipodi:namedview
     id="namedview892"
     pagecolor="#ffffff"
     bordercolor="#666666"
     borderopacity="1.0"
     inkscape:pageshadow="2"
     inkscape:pageopacity="0.0"
     inkscape:pagecheckerboard="0"
     inkscape:document-units="mm"
     showgrid="false"
     inkscape:zoom="3.3770842"
     inkscape:cx="97.865489"
     inkscape:cy="91.795164"
     inkscape:window-width="1920"
     inkscape:window-height="1001"
     inkscape:window-x="0"
     inkscape:window-y="0"
     inkscape:window-maximized="1"
     inkscape:current-layer="layer1" />
  <defs
     id="defs887" />
  <g
     inkscape:label="Capa 1"
     inkscape:groupmode="layer"
     id="layer1">
    <path
       style="fill:#000000;stroke-width:0.0905591"
       d="M 2.7237663,21.858925 C 1.6262613,21.574026 0.85101002,21.023921 0.27482225,20.121207 L 6.6e-6,19.690643 V 15.150217 10.609779 L 0.24310312,10.159911 C 0.50886943,9.6681195 1.3307913,8.9391715 1.947629,8.6481925 c 0.2115179,-0.09978 0.6494515,-0.238964 0.9732061,-0.3093 0.5231714,-0.113637 0.5892326,-0.151178 0.5939528,-0.33759 0.04521,-1.776643 0.2157065,-3.407167 0.4094362,-3.914582 0.7597669,-1.990005 2.2352396,-3.249852 4.4746164,-3.82067795 1.1025223,-0.281037 3.2569185,-0.353187 4.4790635,-0.150008 1.211279,0.201378 2.378577,0.67302095 3.196834,1.29165995 0.841401,0.636136 1.266903,1.162491 1.740892,2.153504 0.433857,0.907057 0.565389,1.698064 0.567952,3.415145 l 0.0022,1.220122 0.654755,0.133793 c 1.193225,0.243821 2.142646,0.878481 2.725053,1.8216295 0.234254,0.37935 0.234417,0.38277 0.234417,4.959182 v 4.579573 l -0.331519,0.522908 c -0.448807,0.707909 -1.054011,1.17773 -1.947268,1.511666 L 18.986184,22 11.117074,21.9967 C 3.9215707,21.9941 3.2031112,21.98246 2.7241574,21.858174 Z m 9.8998207,-4.399358 c 0,-1.026558 0.03997,-1.722224 0.09879,-1.722224 0.217345,0 1.398575,-0.911621 1.637194,-1.263527 0.729394,-1.075588 -0.06205,-2.543849 -1.705552,-3.164256 -0.549603,-0.207464 -0.705053,-0.229043 -1.654207,-0.229537 -0.915151,-5.27e-4 -1.1224059,0.02568 -1.6392841,0.206749 -1.464843,0.513193 -2.3212022,1.728022 -1.9760403,2.803194 0.1557968,0.485322 0.7116272,1.036903 1.4567458,1.445634 l 0.5347996,0.293359 v 1.676419 1.67642 h 1.623779 1.623772 z M 14.69458,6.4803395 c -0.05621,-1.912068 -0.113129,-2.11855 -0.777822,-2.823227 -0.24289,-0.257495 -0.517654,-0.418562 -1.044859,-0.612516 -0.681415,-0.250674 -0.77005,-0.263099 -1.869882,-0.262299 -0.979152,5.27e-4 -1.2341497,0.02802 -1.6783618,0.180001 -0.6603183,0.225844 -1.2478226,0.646467 -1.6062285,1.149967 -0.2756211,0.387198 -0.2789896,0.411436 -0.3135455,2.25064 l -0.034943,1.859235 h 3.6884108 3.688434 z"
       id="path2682"
       sodipodi:nodetypes="sscccsssssssssscssscsscsssssssssscccccsssssssscccs"
       inkscape:export-filename="/home/julian-guerrero/buttonpasswd.png"
       inkscape:export-xdpi="6.7399998"
       inkscape:export-ydpi="6.7399998" />
  </g>
</svg>
