<?xml version="1.0" encoding="UTF-8" standalone="no"?>
<svg
   width="22"
   height="22"
   fill="currentColor"
   class="bi bi-file-text"
   viewBox="0 0 22 22"
   version="1.1"
   id="svg6"
   sodipodi:docname="btn-file-upload.svg"
   inkscape:version="1.1.2 (0a00cf5339, 2022-02-04)"
   xmlns:inkscape="http://www.inkscape.org/namespaces/inkscape"
   xmlns:sodipodi="http://sodipodi.sourceforge.net/DTD/sodipodi-0.dtd"
   xmlns="http://www.w3.org/2000/svg"
   xmlns:svg="http://www.w3.org/2000/svg">
  <defs
     id="defs10" />
  <sodipodi:namedview
     id="namedview8"
     pagecolor="#ffffff"
     bordercolor="#666666"
     borderopacity="1.0"
     inkscape:pageshadow="2"
     inkscape:pageopacity="0.0"
     inkscape:pagecheckerboard="0"
     showgrid="false"
     inkscape:zoom="27.56137"
     inkscape:cx="11.501605"
     inkscape:cy="11.646736"
     inkscape:window-width="1920"
     inkscape:window-height="1001"
     inkscape:window-x="0"
     inkscape:window-y="0"
     inkscape:window-maximized="1"
     inkscape:current-layer="svg6" />
  <path
     id="rect1857"
     style="fill:#ffeeaa;stroke-width:0.180947"
     d="M 2.8370185,-5.979026e-7 H 11.709781 L 17.493029,5.9742229 V 19.214831 c 0,1.542984 -1.26531,2.785168 -2.837018,2.785168 H 2.8370185 C 1.2653109,21.999999 1.7824958e-6,20.757815 1.7824958e-6,19.214831 V 2.7851667 C 1.7824958e-6,1.2421837 1.2653109,-5.979026e-7 2.8370185,-5.979026e-7 Z"
     sodipodi:nodetypes="sccssssss" />
  <path
     style="fill:#fbb800;stroke-width:0.683888"
     d="M 13.123021,5.8935535 C 12.425936,5.7096399 11.906677,5.164099 11.756735,4.4581169 11.698158,4.1823151 11.685736,3.6877933 11.69638,2.0554189 L 11.709781,-5.9790261e-7 14.147914,2.5102497 c 1.340972,1.3806375 2.642203,2.7248382 2.891623,2.9871117 l 0.453492,0.4768615 -2.044694,-0.00331 c -1.628658,-0.00265 -2.101792,-0.018381 -2.325314,-0.077353 z"
     id="path978" />
  <g
     id="g1479"
     transform="matrix(0.11844931,0,0,0.11506608,-30.277696,-17.944632)"
     style="fill:#b3b3b3;fill-opacity:1;stroke-width:5.88888">
    <rect
       style="fill:#b3b3b3;fill-opacity:1;stroke-width:1.55811"
       id="rect1162"
       width="58.372555"
       height="9.1965494"
       x="286.42361"
       y="224.42944"
       ry="4.5982747" />
    <rect
       style="fill:#b3b3b3;fill-opacity:1;stroke-width:1.5581"
       id="rect1244"
       width="77.956001"
       height="9.1965494"
       x="286.42361"
       y="249.0233"
       ry="4.5982747" />
    <rect
       style="fill:#b3b3b3;fill-opacity:1;stroke-width:1.55811"
       id="rect1360"
       width="58.372555"
       height="9.1965494"
       x="286.42361"
       y="273.66681"
       ry="4.5982747" />
  </g>
  <path
     style="fill:#fbb800;stroke-width:0.595393"
     d="m 16.339844,9.0301842 c 1.429191,0.196704 2.740274,0.8407642 3.756083,1.8451508 0.90063,0.890501 1.539521,2.096201 1.818952,3.432679 0.123683,0.591565 0.110529,1.838438 -0.02611,2.47483 -0.344195,1.60307 -1.200946,2.962419 -2.467031,3.914271 -2.077931,1.562204 -4.981934,1.736383 -7.193693,0.431472 C 10.489593,20.102918 9.3662255,18.448441 9.0490885,16.446665 8.9750838,15.979543 8.98661,14.937707 9.0711699,14.451111 9.491229,12.033865 11.143425,10.093904 13.433587,9.3288838 c 0.2702,-0.090259 0.672406,-0.1966166 0.893793,-0.2363511 0.494028,-0.088665 1.577387,-0.1222297 2.012464,-0.062348 z"
     id="path980"
     sodipodi:nodetypes="sssssssssss" />
  <path
     style="fill:#083863;stroke-width:0.595393"
     d="m 14.660158,21.969816 c -1.429193,-0.196704 -2.740276,-0.840765 -3.756083,-1.845151 -0.900631,-0.890501 -1.5395224,-2.096201 -1.8189532,-3.43268 -0.1236839,-0.591564 -0.1105294,-1.838437 0.026108,-2.474829 0.3441951,-1.603071 1.2009462,-2.96242 2.4670302,-3.914271 2.077932,-1.5622043 4.981935,-1.7363839 7.193695,-0.4314727 1.738453,1.0256697 2.861822,2.6801457 3.178959,4.6819217 0.074,0.467123 0.06248,1.508958 -0.02208,1.995554 -0.420059,2.417247 -2.072254,4.357208 -4.362417,5.122227 -0.2702,0.09026 -0.672407,0.196617 -0.893794,0.236351 -0.494028,0.08867 -1.577387,0.12223 -2.012463,0.06235 z m 1.106133,-2.573856 c 0.23133,-0.112549 0.226233,-0.04935 0.250819,-3.109732 l 0.023,-2.862801 1.070415,1.150496 c 1.183959,1.272535 1.263333,1.331819 1.581399,1.181125 0.271734,-0.128744 0.392809,-0.459632 0.255957,-0.699518 -0.05513,-0.09663 -2.772729,-3.020996 -3.079442,-3.313736 -0.197518,-0.188518 -0.417648,-0.229771 -0.617042,-0.115635 -0.154238,0.08829 -3.046208,3.157198 -3.194099,3.389524 -0.252729,0.397021 0.106076,0.886519 0.563606,0.768895 0.119155,-0.03064 0.39419,-0.295266 1.234282,-1.187603 l 1.080962,-1.148188 0.023,2.835315 c 0.02261,2.78755 0.02462,2.837497 0.119305,2.964936 0.160343,0.215815 0.428507,0.273095 0.687839,0.146922 z"
     id="path30951" />
</svg>
