<?xml version="1.0" encoding="UTF-8" standalone="no"?>
<svg
   width="16"
   height="16"
   fill="currentColor"
   class="bi bi-calendar-check-fill"
   viewBox="0 0 16 16"
   version="1.1"
   id="svg4"
   sodipodi:docname="btn-calendar-check.svg"
   inkscape:version="1.1.2 (0a00cf5339, 2022-02-04)"
   xmlns:inkscape="http://www.inkscape.org/namespaces/inkscape"
   xmlns:sodipodi="http://sodipodi.sourceforge.net/DTD/sodipodi-0.dtd"
   xmlns="http://www.w3.org/2000/svg"
   xmlns:svg="http://www.w3.org/2000/svg">
  <defs
     id="defs8" />
  <sodipodi:namedview
     id="namedview6"
     pagecolor="#ffffff"
     bordercolor="#666666"
     borderopacity="1.0"
     inkscape:pageshadow="2"
     inkscape:pageopacity="0.0"
     inkscape:pagecheckerboard="0"
     showgrid="false"
     inkscape:zoom="15.887806"
     inkscape:cx="4.091188"
     inkscape:cy="8.6859069"
     inkscape:current-layer="svg4"
     inkscape:window-width="1920"
     inkscape:window-height="1001"
     inkscape:window-x="0"
     inkscape:window-y="0"
     inkscape:window-maximized="1" />
  <path
     d="m 3.9999999,0.49999988 a 0.5,0.5 0 0 0 -1,0 v 0.5 h -1 A 2,2 0 0 0 -6.25e-8,2.9999998 v 1 H 16 v -1 A 2,2 0 0 0 14,0.99999988 h -1 v -0.5 a 0.5,0.5 0 0 0 -1,0 v 0.5 H 3.9999999 Z M 16,14 V 4.9999998 H -6.25e-8 V 14 A 2,2 0 0 0 1.9999999,16 H 14 a 2,2 0 0 0 2,-2 z M 10.854,8.8539998 7.8539999,11.854 a 0.5,0.5 0 0 1 -0.708,0 l -1.5,-1.5 a 0.50063171,0.50063171 0 0 1 0.708,-0.7080002 L 7.4999999,10.793 10.146,8.1459998 a 0.5006316,0.5006316 0 0 1 0.708,0.708 z"
     id="path2"
     style="fill:#ffffff"
     inkscape:export-filename="/home/julian-guerrero/Descargas/path2.png"
     inkscape:export-xdpi="96"
     inkscape:export-ydpi="96" />
</svg>
