<?xml version="1.0" encoding="UTF-8" standalone="no"?>
<!-- Created with Inkscape (http://www.inkscape.org/) -->

<svg
   width="32mm"
   height="32mm"
   viewBox="0 0 32 32"
   version="1.1"
   id="svg1437"
   inkscape:version="1.1.2 (0a00cf5339, 2022-02-04)"
   sodipodi:docname="btn-user.svg"
   xmlns:inkscape="http://www.inkscape.org/namespaces/inkscape"
   xmlns:sodipodi="http://sodipodi.sourceforge.net/DTD/sodipodi-0.dtd"
   xmlns="http://www.w3.org/2000/svg"
   xmlns:svg="http://www.w3.org/2000/svg">
  <sodipodi:namedview
     id="namedview1439"
     pagecolor="#ffffff"
     bordercolor="#666666"
     borderopacity="1.0"
     inkscape:pageshadow="2"
     inkscape:pageopacity="0.0"
     inkscape:pagecheckerboard="0"
     inkscape:document-units="mm"
     showgrid="false"
     inkscape:zoom="0.57370932"
     inkscape:cx="396.54228"
     inkscape:cy="561.25984"
     inkscape:window-width="1920"
     inkscape:window-height="1001"
     inkscape:window-x="0"
     inkscape:window-y="0"
     inkscape:window-maximized="1"
     inkscape:current-layer="layer1" />
  <defs
     id="defs1434" />
  <g
     inkscape:label="Capa 1"
     inkscape:groupmode="layer"
     id="layer1">
    <path
       style="fill:#000000;stroke-width:1.28437"
       d="M 13.449831,31.764624 C 7.6680235,30.864118 2.7968835,26.782988 0.88926249,21.241139 -2.0262415,12.7713 2.4614355,3.6431014 10.925962,0.8259184 c 8.388387,-2.791846 17.464396,1.724696 20.242306,10.0732936 3.1433,9.446736 -2.948912,19.396556 -12.782743,20.876799 -2.003573,0.301592 -2.940019,0.299432 -4.935694,-0.01139 z m 5.606297,-1.395641 c 2.576157,-0.541128 5.020973,-1.837069 7.055104,-3.739737 L 27.39839,25.42527 26.001662,24.89479 C 25.233465,24.603023 23.557761,24.020121 22.27788,23.599455 l -2.327049,-0.764859 v -0.666171 c 0,-0.3664 0.190427,-1.134142 0.423173,-1.706094 0.232739,-0.571956 0.478852,-1.300373 0.54691,-1.618707 0.06806,-0.318332 0.348957,-1.052296 0.624215,-1.631024 0.611189,-1.284999 0.887361,-2.883846 0.647787,-3.750249 -0.117861,-0.426241 -0.104423,-1.214215 0.04241,-2.487197 0.186103,-1.6133446 0.177789,-1.9908986 -0.06198,-2.8144716 -0.521298,-1.790593 -1.596283,-2.999147 -3.364092,-3.782077 -0.543538,-0.240719 -1.179406,-0.312005 -2.810024,-0.315017 -1.912191,-0.0036 -2.197042,0.03852 -3.073467,0.45372 -1.984958,0.940362 -3.2441535,2.820003 -3.2179595,4.803551 0.08308,6.2920746 0.110705,6.5947016 0.7152845,7.8368496 0.313936,0.644992 0.570788,1.258085 0.570788,1.362427 0,0.104346 0.19758,0.754415 0.439066,1.444597 0.241483,0.690188 0.439063,1.62492 0.439063,2.07719 v 0.822308 L 9.7205855,23.56784 c -1.183288,0.386986 -2.820313,0.962434 -3.637841,1.27877 l -1.486413,0.575163 1.289033,1.205721 c 1.979459,1.851541 4.4659835,3.190166 6.9276345,3.729506 1.47844,0.323918 4.728376,0.330161 6.243124,0.01197 z"
       id="path144"
       inkscape:connector-curvature="0"
       inkscape:export-xdpi="21.709999"
       inkscape:export-ydpi="21.709999" />
  </g>
</svg>
