<?xml version="1.0" encoding="UTF-8" standalone="no"?>
<svg
   width="22"
   height="22"
   fill="currentColor"
   class="bi bi-file-text"
   viewBox="0 0 22 22"
   version="1.1"
   id="svg6"
   sodipodi:docname="btn-file.svg"
   inkscape:version="1.1.2 (0a00cf5339, 2022-02-04)"
   xmlns:inkscape="http://www.inkscape.org/namespaces/inkscape"
   xmlns:sodipodi="http://sodipodi.sourceforge.net/DTD/sodipodi-0.dtd"
   xmlns="http://www.w3.org/2000/svg"
   xmlns:svg="http://www.w3.org/2000/svg">
  <defs
     id="defs10" />
  <sodipodi:namedview
     id="namedview8"
     pagecolor="#ffffff"
     bordercolor="#666666"
     borderopacity="1.0"
     inkscape:pageshadow="2"
     inkscape:pageopacity="0.0"
     inkscape:pagecheckerboard="0"
     showgrid="false"
     inkscape:zoom="20.125"
     inkscape:cx="-0.49689441"
     inkscape:cy="9.4409938"
     inkscape:window-width="1920"
     inkscape:window-height="1001"
     inkscape:window-x="0"
     inkscape:window-y="0"
     inkscape:window-maximized="1"
     inkscape:current-layer="svg6" />
  <g
     id="g829"
     transform="scale(1.375)"
     style="stroke-width:0.727273">
    <path
       d="m 5,4 a 0.5,0.5 0 0 0 0,1 h 6 A 0.5,0.5 0 0 0 11,4 Z M 4.5,6.5 A 0.5,0.5 0 0 1 5,6 h 6 a 0.5,0.5 0 0 1 0,1 H 5 A 0.5,0.5 0 0 1 4.5,6.5 Z M 5,8 a 0.5,0.5 0 0 0 0,1 h 6 a 0.5,0.5 0 0 0 0,-1 z m 0,2 a 0.5,0.5 0 0 0 0,1 h 3 a 0.5,0.5 0 0 0 0,-1 z"
       id="path2"
       style="stroke-width:0.727273" />
    <path
       d="M 2,2 A 2,2 0 0 1 4,0 h 8 a 2,2 0 0 1 2,2 v 12 a 2,2 0 0 1 -2,2 H 4 A 2,2 0 0 1 2,14 Z M 12,1 H 4 A 1,1 0 0 0 3,2 v 12 a 1,1 0 0 0 1,1 h 8 a 1,1 0 0 0 1,-1 V 2 A 1,1 0 0 0 12,1 Z"
       id="path4"
       style="stroke-width:0.727273" />
  </g>
</svg>
