<?xml version="1.0" encoding="UTF-8" standalone="no"?>
<!-- Created with Inkscape (http://www.inkscape.org/) -->

<svg
   width="100mm"
   height="100mm"
   viewBox="0 0 100 100"
   version="1.1"
   id="svg866"
   inkscape:version="1.1.2 (0a00cf5339, 2022-02-04)"
   sodipodi:docname="btn-edit.svg"
   xmlns:inkscape="http://www.inkscape.org/namespaces/inkscape"
   xmlns:sodipodi="http://sodipodi.sourceforge.net/DTD/sodipodi-0.dtd"
   xmlns="http://www.w3.org/2000/svg"
   xmlns:svg="http://www.w3.org/2000/svg">
  <sodipodi:namedview
     id="namedview868"
     pagecolor="#ffffff"
     bordercolor="#666666"
     borderopacity="1.0"
     inkscape:pageshadow="2"
     inkscape:pageopacity="0.0"
     inkscape:pagecheckerboard="0"
     inkscape:document-units="mm"
     showgrid="false"
     width="100mm"
     inkscape:zoom="0.57370932"
     inkscape:cx="281.50144"
     inkscape:cy="561.25984"
     inkscape:window-width="1920"
     inkscape:window-height="1001"
     inkscape:window-x="0"
     inkscape:window-y="0"
     inkscape:window-maximized="1"
     inkscape:current-layer="layer1" />
  <defs
     id="defs863" />
  <g
     inkscape:label="Capa 1"
     inkscape:groupmode="layer"
     id="layer1">
    <path
       id="path3082"
       style="fill:#008000;stroke-width:0.319277"
       d="M 50.075083,-2.1868888e-6 C 44.469462,-2.1868888e-6 43.051494,0.10377781 40.180336,0.72477781 31.426196,2.6184078 24.375107,6.0686278 17.550684,11.797928 c -8.3678603,7.0252 -14.2492696,16.98927 -16.67937162,28.25726 -1.41772,6.66881 -0.87077699797,12.72922 -0.01379,19.7204 3.35480002,15.43646 12.70186162,27.79167 26.28423662,34.74323 5.466914,2.798 9.475287,4.11358 15.567089,5.109265 4.043871,0.660997 13.251231,0.405067 17.418639,-0.48405 C 80.024001,94.899248 94.937961,79.932248 99.2756,59.856048 99.89638,56.983238 100,55.564458 100,49.955598 c 0,-5.60342 -0.10371,-7.03032 -0.72308,-9.90041 C 95.920191,24.490628 86.260801,11.955548 72.256424,4.9901278 68.368417,3.0563578 64.415758,1.6838778 59.967873,0.72354781 57.099501,0.10423781 55.673451,-2.1868888e-6 50.073125,-2.1868888e-6 Z M 68.653279,15.469408 c 1.611481,0.009 3.323303,1.87212 6.977142,5.84906 2.96358,3.22541 5.48744,6.2997 5.6089,6.8315 0.12081,0.53181 0.088,1.42991 -0.0747,1.99542 -0.27648,0.9612 -5.67138,7.44841 -6.19408,7.44841 -0.13046,0 -3.365057,-3.44093 -7.186703,-7.64677 h -6.07e-4 l -6.948568,-7.64674 2.521672,-2.6953 c 2.531326,-2.7055 3.87521,-4.14291 5.297177,-4.13558 z m -10.227574,9.50935 7.050013,7.74844 7.04891,7.74844 -17.050785,18.73793 -17.050811,18.73797 -9.388571,3.28977 c -5.163738,1.80914 -9.551909,3.28911 -9.751324,3.28911 -0.19969,0 -0.462873,-0.28655 -0.585446,-0.6375 -0.121083,-0.3508 1.106986,-5.28278 2.731816,-10.95956 l 2.954289,-10.3215 3.375155,-3.86672 18.477827,-20.37413 z m -1.099732,5.86465 c -0.867633,-0.055 -2.898436,2.0813 -14.30355,14.61735 -12.584612,13.83286 -13.649674,15.12022 -13.227456,15.98713 0.252372,0.51856 0.736456,0.94254 1.074743,0.94254 0.338509,0 6.677,-6.65922 14.085298,-14.79888 7.408573,-8.13967 13.46998,-15.1069 13.46998,-15.48251 0,-0.37564 -0.385921,-0.91013 -0.857732,-1.18765 -0.07364,-0.0434 -0.151698,-0.0725 -0.241338,-0.078 z m -31.146756,35.97512 c -0.128254,0 -0.755541,1.79655 -1.393944,3.9921 l -1.160798,3.99214 1.773026,1.98548 c 0.975091,1.09211 1.860569,1.98607 1.967448,1.98607 0.106189,0 1.746106,-0.54085 3.642642,-1.202 1.896425,-0.66115 3.529833,-1.26555 3.629375,-1.34299 0.208241,-0.16205 -8.104043,-9.4108 -8.457749,-9.4108 z"
       inkscape:export-filename="/home/julian-guerrero/Descargas/path3082.png"
       inkscape:export-xdpi="6.7399998"
       inkscape:export-ydpi="6.7399998" />
  </g>
</svg>
