<?xml version="1.0" encoding="UTF-8" standalone="no"?>
<!-- Created with Inkscape (http://www.inkscape.org/) -->

<svg
   width="22mm"
   height="22mm"
   viewBox="0 0 22 22"
   version="1.1"
   id="svg1589"
   inkscape:version="1.1.2 (0a00cf5339, 2022-02-04)"
   sodipodi:docname="btn-up.svg"
   xmlns:inkscape="http://www.inkscape.org/namespaces/inkscape"
   xmlns:sodipodi="http://sodipodi.sourceforge.net/DTD/sodipodi-0.dtd"
   xmlns="http://www.w3.org/2000/svg"
   xmlns:svg="http://www.w3.org/2000/svg">
  <sodipodi:namedview
     id="namedview1591"
     pagecolor="#ffffff"
     bordercolor="#666666"
     borderopacity="1.0"
     inkscape:pageshadow="2"
     inkscape:pageopacity="0.0"
     inkscape:pagecheckerboard="0"
     inkscape:document-units="mm"
     showgrid="false"
     inkscape:zoom="3.8680225"
     inkscape:cx="50.284093"
     inkscape:cy="68.510461"
     inkscape:window-width="1920"
     inkscape:window-height="1001"
     inkscape:window-x="0"
     inkscape:window-y="0"
     inkscape:window-maximized="1"
     inkscape:current-layer="layer1" />
  <defs
     id="defs1586" />
  <g
     inkscape:label="Capa 1"
     inkscape:groupmode="layer"
     id="layer1">
    <path
       id="path1744"
       style="fill:#000000;stroke-width:0.070241"
       d="M 11.016613,1.0119914e-6 C 9.7833792,1.0119914e-6 9.4714262,0.02283101 8.8397702,0.15946101 6.9138662,0.57605901 5.3625742,1.335104 3.8612352,2.595547 c -1.840944,1.545545 -3.13483407,3.737644 -3.66945607,6.2166 -0.311894,1.467137 -0.191713986247,2.800425 -0.0033,4.33849 0.738059,3.396011 2.79439007,6.114157 5.78252207,7.643503 1.202715,0.615559 2.084719,0.904991 3.424909,1.124042 0.8896488,0.145417 2.9152848,0.0891 3.8321058,-0.106487 4.37723,-0.93386 7.658173,-4.226583 8.612458,-8.643359 0.136552,-0.632019 0.159504,-0.944151 0.159504,-2.178092 0,-1.232762 -0.02302,-1.54668 -0.159224,-2.178097 C 21.102272,5.387947 18.977366,2.630227 15.8964,1.097832 15.041061,0.67240701 14.17143,0.37046201 13.192906,0.15918801 12.561849,0.02293901 12.248114,1.0119914e-6 11.016063,1.0119914e-6 Z M 11.000293,4.881643 l 3.019497,5.233081 3.019621,5.233082 H 11.000293 4.9611682 l 3.019491,-5.233082 z"
       inkscape:export-filename="/home/julian-guerrero/buttonleft.png"
       inkscape:export-xdpi="6.7399998"
       inkscape:export-ydpi="6.7399998" />
  </g>
</svg>
