<?xml version="1.0" encoding="UTF-8" standalone="no"?>
<!-- Created with Inkscape (http://www.inkscape.org/) -->

<svg
   width="22mm"
   height="22mm"
   viewBox="0 0 22 22"
   version="1.1"
   id="svg922"
   inkscape:version="1.1.2 (0a00cf5339, 2022-02-04)"
   sodipodi:docname="btn-bell-red.svg"
   xmlns:inkscape="http://www.inkscape.org/namespaces/inkscape"
   xmlns:sodipodi="http://sodipodi.sourceforge.net/DTD/sodipodi-0.dtd"
   xmlns="http://www.w3.org/2000/svg"
   xmlns:svg="http://www.w3.org/2000/svg">
  <sodipodi:namedview
     id="namedview924"
     pagecolor="#ffffff"
     bordercolor="#666666"
     borderopacity="1.0"
     inkscape:pageshadow="2"
     inkscape:pageopacity="0.0"
     inkscape:pagecheckerboard="0"
     inkscape:document-units="mm"
     showgrid="false"
     inkscape:zoom="2.8340531"
     inkscape:cx="83.096538"
     inkscape:cy="97.034174"
     inkscape:window-width="1920"
     inkscape:window-height="1001"
     inkscape:window-x="0"
     inkscape:window-y="0"
     inkscape:window-maximized="1"
     inkscape:current-layer="layer1" />
  <defs
     id="defs919" />
  <g
     inkscape:label="Capa 1"
     inkscape:groupmode="layer"
     id="layer1">
    <g
       style="fill:#ff0000;stroke:#000000;stroke-width:0.322214;stroke-dasharray:none"
       id="g315"
       transform="matrix(1.4594975,0,0,1.3479782,-0.67598,0.21676348)"
       inkscape:export-filename="g315.png"
       inkscape:export-xdpi="40.630001"
       inkscape:export-ydpi="40.630001">
      <path
         d="m 8,16 a 2,2 0 0 0 2,-2 H 6 a 2,2 0 0 0 2,2 z M 8.995,1.099 a 1,1 0 1 0 -1.99,0 A 5.002,5.002 0 0 0 3,6 C 3,7.098 2.5,12 1,13 H 15 C 13.5,12 13,7.098 13,6 13,3.58 11.28,1.56 8.995,1.099 Z"
         id="path306"
         style="fill:#ff0000;stroke:#000000;stroke-width:0.322214;stroke-dasharray:none" />
    </g>
  </g>
</svg>
