<?xml version="1.0" encoding="UTF-8" standalone="no"?>
<svg
   width="22"
   height="22"
   fill="currentColor"
   class="bi bi-file-text"
   viewBox="0 0 22 22"
   version="1.1"
   id="svg6"
   sodipodi:docname="btn-file-delete.svg"
   inkscape:version="1.1.2 (0a00cf5339, 2022-02-04)"
   xmlns:inkscape="http://www.inkscape.org/namespaces/inkscape"
   xmlns:sodipodi="http://sodipodi.sourceforge.net/DTD/sodipodi-0.dtd"
   xmlns="http://www.w3.org/2000/svg"
   xmlns:svg="http://www.w3.org/2000/svg">
  <defs
     id="defs10" />
  <sodipodi:namedview
     id="namedview8"
     pagecolor="#ffffff"
     bordercolor="#666666"
     borderopacity="1.0"
     inkscape:pageshadow="2"
     inkscape:pageopacity="0.0"
     inkscape:pagecheckerboard="0"
     showgrid="false"
     inkscape:zoom="7.8905508"
     inkscape:cx="43.089514"
     inkscape:cy="32.697337"
     inkscape:window-width="1920"
     inkscape:window-height="1001"
     inkscape:window-x="0"
     inkscape:window-y="0"
     inkscape:window-maximized="1"
     inkscape:current-layer="svg6" />
  <g
     id="g30675"
     transform="matrix(0.11720817,0,0,0.11506607,-37.071271,-29.509479)"
     style="stroke-width:5.88888">
    <path
       id="rect1857"
       style="fill:#00aae8;stroke-width:1.55811"
       d="m 340.49068,256.45682 h 75.70089 l 49.34168,51.91994 v 115.06961 c 0,13.40955 -10.79541,24.20495 -24.20495,24.20495 H 340.49068 c -13.40954,0 -24.20494,-10.7954 -24.20494,-24.20495 V 280.66176 c 0,-13.40954 10.7954,-24.20494 24.20494,-24.20494 z"
       sodipodi:nodetypes="sccssssss" />
    <path
       style="fill:#00edd0;stroke-width:5.88888"
       d="m 428.24909,307.67569 c -5.94741,-1.59833 -10.37764,-6.33944 -11.65692,-12.47489 -0.49977,-2.3969 -0.60575,-6.69462 -0.51494,-20.88103 l 0.11434,-17.86295 20.80173,21.81573 c 11.44094,11.99865 22.54282,23.68064 24.67083,25.95997 l 3.86912,4.14424 -17.44498,-0.0288 c -13.89543,-0.023 -17.93213,-0.15974 -19.83918,-0.67225 z"
       id="path978" />
  </g>
  <g
     id="g1479"
     transform="matrix(0.11844931,0,0,0.11506608,-30.277696,-17.944632)"
     style="fill:#083863;fill-opacity:1;stroke-width:5.88888">
    <rect
       style="fill:#083863;fill-opacity:1;stroke-width:1.55811"
       id="rect1162"
       width="58.372555"
       height="9.1965494"
       x="286.42361"
       y="224.42944"
       ry="4.5982747" />
    <rect
       style="fill:#083863;fill-opacity:1;stroke-width:1.5581"
       id="rect1244"
       width="77.956001"
       height="9.1965494"
       x="286.42361"
       y="249.0233"
       ry="4.5982747" />
    <rect
       style="fill:#083863;fill-opacity:1;stroke-width:1.55811"
       id="rect1360"
       width="58.372555"
       height="9.1965494"
       x="286.42361"
       y="273.66681"
       ry="4.5982747" />
  </g>
  <path
     id="path65"
     style="fill:#d40000;stroke:none;stroke-width:0.177613"
     d="M 15.499999,9 C 11.91015,9.000004 9.000004,11.910151 9,15.500001 9.000003,19.08985 11.91015,21.999997 15.499999,22 19.08985,21.999998 21.999996,19.089851 22,15.500001 21.999996,11.910151 19.08985,9.000003 15.499999,9 Z m -2.617182,2.767714 c 0.284785,0 0.569546,0.109126 0.787764,0.327342 l 1.829418,1.82942 1.82942,-1.82942 c 0.436435,-0.436433 1.13916,-0.436433 1.575593,0 0.436434,0.436433 0.436434,1.139091 0,1.575525 l -1.829421,1.82942 1.829421,1.829419 c 0.436434,0.436434 0.436434,1.139159 0,1.575592 -0.436433,0.436435 -1.139158,0.436435 -1.575593,0 l -1.82942,-1.82942 -1.829418,1.82942 c -0.436434,0.436435 -1.13916,0.436435 -1.575593,0 -0.436434,-0.436433 -0.436434,-1.139158 0,-1.575592 l 1.82942,-1.829419 -1.82942,-1.82942 c -0.436434,-0.436434 -0.436434,-1.139092 0,-1.575525 0.218216,-0.218216 0.503045,-0.327342 0.787829,-0.327342 z" />
</svg>
