<?xml version="1.0" encoding="UTF-8" standalone="no"?>
<svg
   width="22"
   height="22"
   fill="currentColor"
   class="bi bi-file-text"
   viewBox="0 0 22 22"
   version="1.1"
   id="svg6"
   sodipodi:docname="btn-file-upload.svg"
   inkscape:version="1.1.2 (0a00cf5339, 2022-02-04)"
   xmlns:inkscape="http://www.inkscape.org/namespaces/inkscape"
   xmlns:sodipodi="http://sodipodi.sourceforge.net/DTD/sodipodi-0.dtd"
   xmlns="http://www.w3.org/2000/svg"
   xmlns:svg="http://www.w3.org/2000/svg">
  <defs
     id="defs10" />
  <sodipodi:namedview
     id="namedview8"
     pagecolor="#ffffff"
     bordercolor="#666666"
     borderopacity="1.0"
     inkscape:pageshadow="2"
     inkscape:pageopacity="0.0"
     inkscape:pagecheckerboard="0"
     showgrid="false"
     inkscape:zoom="1.0066908"
     inkscape:cx="-18.87372"
     inkscape:cy="39.734148"
     inkscape:window-width="1920"
     inkscape:window-height="1001"
     inkscape:window-x="0"
     inkscape:window-y="0"
     inkscape:window-maximized="1"
     inkscape:current-layer="svg6" />
  <path
     id="rect1857"
     style="fill:#fbe24c;stroke-width:0.180947"
     d="M 2.8370185,-5.979026e-7 H 11.709781 L 17.493029,5.9742229 V 19.214831 c 0,1.542984 -1.26531,2.785168 -2.837018,2.785168 H 2.8370185 C 1.2653109,21.999999 1.7824958e-6,20.757815 1.7824958e-6,19.214831 V 2.7851667 C 1.7824958e-6,1.2421837 1.2653109,-5.979026e-7 2.8370185,-5.979026e-7 Z"
     sodipodi:nodetypes="sccssssss" />
  <path
     style="fill:#fbb800;stroke-width:0.683888"
     d="M 13.123021,5.8935535 C 12.425936,5.7096399 11.906677,5.164099 11.756735,4.4581169 11.698158,4.1823151 11.685736,3.6877933 11.69638,2.0554189 L 11.709781,-5.9790261e-7 14.147914,2.5102497 c 1.340972,1.3806375 2.642203,2.7248382 2.891623,2.9871117 l 0.453492,0.4768615 -2.044694,-0.00331 c -1.628658,-0.00265 -2.101792,-0.018381 -2.325314,-0.077353 z"
     id="path978" />
  <g
     id="g1479"
     transform="matrix(0.11844931,0,0,0.11506608,-30.277696,-17.944632)"
     style="fill:#083863;fill-opacity:1;stroke-width:5.88888">
    <rect
       style="fill:#083863;fill-opacity:1;stroke-width:1.55811"
       id="rect1162"
       width="58.372555"
       height="9.1965494"
       x="286.42361"
       y="224.42944"
       ry="4.5982747" />
    <rect
       style="fill:#083863;fill-opacity:1;stroke-width:1.5581"
       id="rect1244"
       width="77.956001"
       height="9.1965494"
       x="286.42361"
       y="249.0233"
       ry="4.5982747" />
    <rect
       style="fill:#083863;fill-opacity:1;stroke-width:1.55811"
       id="rect1360"
       width="58.372555"
       height="9.1965494"
       x="286.42361"
       y="273.66681"
       ry="4.5982747" />
  </g>
  <g
     id="g1520"
     transform="matrix(-0.15602466,0,0,-0.15905169,6.0284492,8.6179166)">
    <path
       style="fill:#fcec40;stroke-width:3.77953"
       d="m -66.088239,-2.5920352 c -9.160032,-1.2367304 -17.563082,-5.286107 -24.073649,-11.6009488 -5.772354,-5.598816 -9.867162,-13.179371 -11.658102,-21.582164 -0.79272,-3.719323 -0.70841,-11.558743 0.16733,-15.559908 2.206028,-10.078926 7.697155,-18.625513 15.811799,-24.610053 13.31797,-9.82199 31.930429,-10.917104 46.106132,-2.712781 11.142176,6.448652 18.342109,16.850783 20.374717,29.436479 0.474314,2.936922 0.40044,9.487217 -0.141525,12.546574 -2.692261,15.197869 -13.281585,27.3949122 -27.959791,32.2047981 -1.73178,0.567482 -4.309618,1.2361807 -5.728536,1.4860018 -3.166347,0.5574619 -10.109857,0.7684906 -12.898375,0.3920019 z"
       id="path980"
       sodipodi:nodetypes="sssssssssss" />
    <path
       style="fill:#083863;stroke-width:3.77953"
       d="m -55.322719,-83.94692 c 9.16004,1.23673 17.56309,5.28611 24.07365,11.600953 5.77236,5.598816 9.86717,13.179371 11.65811,21.582164 0.79272,3.719322 0.70841,11.558743 -0.16733,15.559908 -2.20603,10.078926 -7.69716,18.625513 -15.8118,24.610053 -13.31797,9.8219906 -31.93043,10.9171036 -46.10614,2.7127821 -11.14217,-6.4486531 -18.342111,-16.8507841 -20.374721,-29.4364801 -0.47431,-2.936922 -0.40044,-9.487217 0.14153,-12.546574 2.692261,-15.197869 13.281581,-27.394916 27.959791,-32.204796 1.73178,-0.56748 4.30962,-1.23618 5.72854,-1.486 3.16635,-0.55747 10.10986,-0.76849 12.89837,-0.39201 z m -7.08948,16.182511 c -1.48265,0.707628 -1.44998,0.310266 -1.60756,19.551707 l -0.14739,17.999189 -6.86055,-7.233471 c -7.58828,-8.000767 -8.09701,-8.373503 -10.13557,-7.42605 -1.74161,0.80945 -2.51761,2.889828 -1.64049,4.398055 0.35332,0.607529 17.77109,18.993805 19.73689,20.834336 1.26594,1.18526 2.67681,1.444634 3.95477,0.727031 0.98855,-0.555084 19.52389,-19.850139 20.47176,-21.310836 1.6198,-2.496177 -0.67987,-5.573777 -3.61229,-4.834247 -0.76369,0.192611 -2.52646,1.856416 -7.91081,7.466772 l -6.92815,7.218962 -0.14739,-17.826372 c -0.14491,-17.526066 -0.15779,-17.840094 -0.76465,-18.641334 -1.02768,-1.356887 -2.74641,-1.717024 -4.40853,-0.923742 z"
       id="path30951" />
  </g>
</svg>
