<?xml version="1.0" encoding="UTF-8" standalone="no"?>
<!-- Created with Inkscape (http://www.inkscape.org/) -->

<svg
   width="22"
   height="22"
   viewBox="0 0 5.8208328 5.8208328"
   version="1.1"
   id="svg5"
   inkscape:version="1.1.2 (0a00cf5339, 2022-02-04)"
   sodipodi:docname="btn-file-prev.svg"
   xmlns:inkscape="http://www.inkscape.org/namespaces/inkscape"
   xmlns:sodipodi="http://sodipodi.sourceforge.net/DTD/sodipodi-0.dtd"
   xmlns="http://www.w3.org/2000/svg"
   xmlns:svg="http://www.w3.org/2000/svg">
  <sodipodi:namedview
     id="namedview7"
     pagecolor="#ffffff"
     bordercolor="#666666"
     borderopacity="1.0"
     inkscape:pageshadow="2"
     inkscape:pageopacity="0.0"
     inkscape:pagecheckerboard="0"
     inkscape:document-units="mm"
     showgrid="false"
     inkscape:zoom="7.6765369"
     inkscape:cx="8.2719592"
     inkscape:cy="22.405937"
     inkscape:window-width="1920"
     inkscape:window-height="1001"
     inkscape:window-x="0"
     inkscape:window-y="0"
     inkscape:window-maximized="1"
     inkscape:current-layer="layer1"
     units="px"
     width="22px" />
  <defs
     id="defs2" />
  <g
     inkscape:label="Capa 1"
     inkscape:groupmode="layer"
     id="layer1">
    <g
       id="g1222"
       transform="matrix(1.0210123,0,0,1,0.54760843,2.457642e-7)">
      <path
         id="rect1857-6"
         style="fill:#fbe24c;stroke-width:0.0478756"
         d="M 0.75062733,-1.5819506e-7 H 3.0982124 L 4.6283634,1.5806798 V 5.083924 c 0,0.4082478 -0.33478,0.736909 -0.7506277,0.736909 H 0.75062733 C 0.3347797,5.820833 0,5.4921718 0,5.083924 V 0.73690868 C 0,0.3286611 0.3347797,-1.5819506e-7 0.75062733,-1.5819506e-7 Z"
         sodipodi:nodetypes="sccssssss" />
      <path
         style="fill:#fbb800;stroke-width:0.180945"
         d="M 3.4721326,1.559336 C 3.2876955,1.5106755 3.1503082,1.3663345 3.1106361,1.1795434 3.0951376,1.1065709 3.0918509,0.97572863 3.0946672,0.54382958 L 3.0982129,-1.5819506e-7 3.7433022,0.66417022 C 4.098101,1.0294639 4.4423851,1.385117 4.5083774,1.4545102 L 4.6283639,1.5806798 4.0873719,1.579804 C 3.6564562,1.5791029 3.5312728,1.5749407 3.4721326,1.5593377 Z"
         id="path978-8" />
    </g>
    <g
       id="g1278"
       transform="translate(1.7349559,0.52916672)">
      <ellipse
         style="fill:#ffffff;stroke:#083863;stroke-width:0.0383498;stroke-miterlimit:4;stroke-dasharray:none"
         id="ellipse973"
         cx="1.0731915"
         cy="2.9104166"
         rx="1.7140557"
         ry="1.6849949" />
      <path
         style="fill:#083863;stroke:#000000;stroke-width:0.0383498;stroke-miterlimit:4;stroke-dasharray:none"
         d="M 0.9180244,4.6538969 C 0.17012012,4.5990389 -0.42244036,4.3612909 -0.94894102,3.9048349 -1.2277589,3.6631099 -1.4469709,3.3922599 -1.6336349,3.0588539 c -0.029108,-0.05199 -0.059869,-0.103114 -0.068358,-0.1136 -0.020934,-0.02587 -0.0195,-0.04014 0.00819,-0.08154 0.012996,-0.01943 0.040946,-0.06687 0.062113,-0.10542 0.3063813,-0.558044 0.81862597,-1.039917 1.38283084,-1.300841 0.36052516,-0.16673 0.71858246,-0.256134 1.15954959,-0.289533 0.13160747,-0.01 0.51517887,-0.0042 0.64474357,0.0096 0.4226151,0.04522 0.7830971,0.14828 1.1254203,0.321722 0.1442438,0.07309 0.2192738,0.117952 0.3577877,0.213962 0.3849745,0.266842 0.7009516,0.617347 0.9460227,1.049396 0.029184,0.05145 0.059942,0.102043 0.068352,0.112439 0.020955,0.02589 0.019268,0.04246 -0.00852,0.08368 -0.013097,0.01943 -0.043816,0.07117 -0.068262,0.114981 -0.081862,0.146705 -0.1836247,0.297464 -0.2946496,0.436517 -0.069733,0.08733 -0.2935681,0.319323 -0.3793943,0.393208 -0.5122295,0.440967 -1.0493712,0.666598 -1.7651394,0.741463 -0.1123446,0.01176 -0.503837,0.01743 -0.61902436,0.009 z m 0.3909625,-0.599108 c 0.1580515,-0.01773 0.346898,-0.08666 0.4745293,-0.173233 0.1287049,-0.08729 0.2614925,-0.225957 0.3439226,-0.359144 0.098144,-0.158579 0.1491471,-0.32646 0.1647126,-0.542169 0.014926,-0.206865 -0.021911,-0.396222 -0.1150865,-0.591558 -0.047751,-0.100106 -0.098701,-0.17545 -0.1785928,-0.264095 -0.1394372,-0.154715 -0.2834066,-0.252664 -0.4634186,-0.315284 -0.084057,-0.02924 -0.1519891,-0.04039 -0.2924818,-0.04799 -0.1978396,-0.01072 -0.28284216,0.003 -0.45498802,0.0734 -0.16212557,0.06629 -0.25681141,0.13095 -0.3816163,0.260595 -0.10847894,0.112688 -0.16270538,0.191165 -0.22325441,0.323096 -0.0599318,0.130585 -0.08785838,0.247067 -0.09920498,0.413779 -0.01397254,0.205319 0.01911152,0.387007 0.10505341,0.576915 0.0991116,0.219008 0.29306027,0.423103 0.50858025,0.535184 0.17457194,0.09078 0.40942455,0.1332 0.61184515,0.110497 z M 1.0758393,3.7142409 c -0.064713,-0.011 -0.16413565,-0.04479 -0.23292419,-0.07917 -0.18548552,-0.0927 -0.31681237,-0.246612 -0.39064913,-0.45783 -0.0337359,-0.0965 -0.0446801,-0.159897 -0.0448249,-0.259645 -3.243e-4,-0.229099 0.0740429,-0.417611 0.22786316,-0.577521 0.0925118,-0.09618 0.18227413,-0.153787 0.31546131,-0.202473 0.0543986,-0.01989 0.17234105,-0.04525 0.21042465,-0.04525 h 0.020379 v 0.407839 0.40784 h 0.3922531 0.3922536 l -2.32e-5,0.02708 c -2.33e-5,0.0357 -0.015007,0.129827 -0.030157,0.189582 -0.073699,0.290662 -0.3123241,0.51868 -0.6102941,0.583164 -0.067837,0.01468 -0.1834818,0.01763 -0.2497612,0.0064 z"
         id="path975" />
    </g>
  </g>
</svg>
