<?xml version="1.0" encoding="UTF-8" standalone="no"?>
<!-- Created with Inkscape (http://www.inkscape.org/) -->

<svg
   width="32mm"
   height="32mm"
   viewBox="0 0 32 32"
   version="1.1"
   id="svg5"
   inkscape:version="1.1.2 (0a00cf5339, 2022-02-04)"
   sodipodi:docname="btn-file-download.svg"
   xmlns:inkscape="http://www.inkscape.org/namespaces/inkscape"
   xmlns:sodipodi="http://sodipodi.sourceforge.net/DTD/sodipodi-0.dtd"
   xmlns="http://www.w3.org/2000/svg"
   xmlns:svg="http://www.w3.org/2000/svg">
  <sodipodi:namedview
     id="namedview7"
     pagecolor="#ffffff"
     bordercolor="#666666"
     borderopacity="1.0"
     inkscape:pageshadow="2"
     inkscape:pageopacity="0.0"
     inkscape:pagecheckerboard="0"
     inkscape:document-units="mm"
     showgrid="false"
     inkscape:zoom="4.8525628"
     inkscape:cx="56.36197"
     inkscape:cy="64.089845"
     inkscape:window-width="1920"
     inkscape:window-height="1001"
     inkscape:window-x="0"
     inkscape:window-y="0"
     inkscape:window-maximized="1"
     inkscape:current-layer="layer1" />
  <defs
     id="defs2" />
  <g
     inkscape:label="Capa 1"
     inkscape:groupmode="layer"
     id="layer1">
    <g
       id="g30675"
       transform="matrix(0.17228989,0,0,0.16736883,-54.492835,-42.922878)"
       style="stroke-width:5.88888">
      <path
         id="rect1857"
         style="fill:#00aae8;stroke-width:1.55811"
         d="m 340.49068,256.45682 h 75.70089 l 49.34168,51.91994 v 115.06961 c 0,13.40955 -10.79541,24.20495 -24.20495,24.20495 H 340.49068 c -13.40954,0 -24.20494,-10.7954 -24.20494,-24.20495 V 280.66176 c 0,-13.40954 10.7954,-24.20494 24.20494,-24.20494 z"
         sodipodi:nodetypes="sccssssss" />
      <path
         style="fill:#00edd0;stroke-width:5.88888"
         d="m 428.24909,307.67569 c -5.94741,-1.59833 -10.37764,-6.33944 -11.65692,-12.47489 -0.49977,-2.3969 -0.60575,-6.69462 -0.51494,-20.88103 l 0.11434,-17.86295 20.80173,21.81573 c 11.44094,11.99865 22.54282,23.68064 24.67083,25.95997 l 3.86912,4.14424 -17.44498,-0.0288 c -13.89543,-0.023 -17.93213,-0.15974 -19.83918,-0.67225 z"
         id="path978" />
    </g>
    <g
       id="g1479"
       transform="matrix(0.17228989,0,0,0.16736883,-46.148088,-23.17162)"
       style="fill:#083863;fill-opacity:1;stroke-width:5.88888">
      <rect
         style="fill:#083863;fill-opacity:1;stroke-width:1.55811"
         id="rect1162"
         width="58.372555"
         height="9.1965494"
         x="286.42361"
         y="224.42944"
         ry="4.5982747" />
      <rect
         style="fill:#083863;fill-opacity:1;stroke-width:1.5581"
         id="rect1244"
         width="77.956001"
         height="9.1965494"
         x="286.42361"
         y="249.0233"
         ry="4.5982747" />
      <rect
         style="fill:#083863;fill-opacity:1;stroke-width:1.55811"
         id="rect1360"
         width="58.372555"
         height="9.1965494"
         x="286.42361"
         y="273.66681"
         ry="4.5982747" />
    </g>
    <g
       id="g956"
       transform="matrix(1.1323032,0,0,1.2122158,-4.2337026,-6.7909047)"
       style="stroke-width:0.853549">
      <path
         style="fill:#083863;stroke-width:0.853549"
         d="m 21.00758,31.958579 c -2.140409,-0.269934 -4.103935,-1.153768 -5.625248,-2.532072 -1.348816,-1.222021 -2.305643,-2.876585 -2.724129,-4.710614 -0.185234,-0.811795 -0.165533,-2.52286 0.0391,-3.396171 0.515479,-2.199869 1.798581,-4.065283 3.694716,-5.371494 3.111987,-2.143789 7.461128,-2.382813 10.77354,-0.592103 2.603573,1.40751 4.285969,3.677923 4.760925,6.42493 0.110832,0.641025 0.09357,2.07072 -0.03307,2.738468 -0.629096,3.317151 -3.103485,5.979329 -6.533316,7.029155 -0.404662,0.123861 -1.007021,0.269814 -1.338577,0.324341 -0.739875,0.121674 -2.362353,0.167734 -3.013941,0.08556 z"
         id="path980"
         sodipodi:nodetypes="sssssssssss" />
      <path
         style="fill:#fcd940;stroke-width:0.853549"
         d="m 23.523141,14.20172 c 2.140409,0.269934 4.103935,1.153768 5.625248,2.532072 1.348816,1.222021 2.305643,2.876585 2.724129,4.710614 0.185234,0.811795 0.165533,2.52286 -0.0391,3.396171 -0.515479,2.199869 -1.798581,4.065283 -3.694716,5.371494 -3.111987,2.143789 -7.461128,2.382813 -10.77354,0.592103 -2.603573,-1.40751 -4.285969,-3.677923 -4.760925,-6.42493 -0.110832,-0.641025 -0.09357,-2.07072 0.03307,-2.738468 0.629096,-3.317151 3.103485,-5.979329 6.533316,-7.029155 0.404662,-0.123861 1.007021,-0.269814 1.338577,-0.324341 0.739875,-0.121674 2.362353,-0.167734 3.013941,-0.08556 z m -1.656587,3.532062 c -0.346449,0.15445 -0.338815,0.06772 -0.375637,4.267438 l -0.03444,3.928579 -1.603092,-1.578808 c -1.773139,-1.746281 -1.892014,-1.827636 -2.36836,-1.620841 -0.40696,0.176674 -0.588286,0.630746 -0.383332,0.959938 0.08256,0.132602 4.152541,4.145668 4.611886,4.54739 0.295808,0.2587 0.625485,0.315312 0.924103,0.158685 0.230994,-0.121155 4.562114,-4.332575 4.7836,-4.651393 0.378497,-0.544826 -0.158864,-1.216556 -0.844077,-1.055143 -0.178449,0.04204 -0.590352,0.405189 -1.848504,1.629729 l -1.61889,1.575641 -0.03444,-3.890859 c -0.03386,-3.825313 -0.03687,-3.893854 -0.178675,-4.068736 -0.240136,-0.29616 -0.641748,-0.374765 -1.030134,-0.20162 z"
         id="path30951" />
    </g>
  </g>
</svg>
