<?xml version="1.0" encoding="UTF-8" standalone="no"?>
<svg
   width="22"
   height="22"
   fill="currentColor"
   class="bi bi-file-text"
   viewBox="0 0 22 22"
   version="1.1"
   id="svg6"
   sodipodi:docname="btn-file-delete.svg"
   inkscape:version="1.1.2 (0a00cf5339, 2022-02-04)"
   xmlns:inkscape="http://www.inkscape.org/namespaces/inkscape"
   xmlns:sodipodi="http://sodipodi.sourceforge.net/DTD/sodipodi-0.dtd"
   xmlns="http://www.w3.org/2000/svg"
   xmlns:svg="http://www.w3.org/2000/svg">
  <defs
     id="defs10" />
  <sodipodi:namedview
     id="namedview8"
     pagecolor="#ffffff"
     bordercolor="#666666"
     borderopacity="1.0"
     inkscape:pageshadow="2"
     inkscape:pageopacity="0.0"
     inkscape:pagecheckerboard="0"
     showgrid="false"
     inkscape:zoom="9.3915608"
     inkscape:cx="33.966665"
     inkscape:cy="22.679936"
     inkscape:window-width="1920"
     inkscape:window-height="1001"
     inkscape:window-x="0"
     inkscape:window-y="0"
     inkscape:window-maximized="1"
     inkscape:current-layer="svg6" />
  <path
     id="rect1857"
     style="fill:#fbe24c;stroke-width:0.180947"
     d="M 2.8370185,-5.979026e-7 H 11.709781 L 17.493029,5.9742229 V 19.214831 c 0,1.542984 -1.26531,2.785168 -2.837018,2.785168 H 2.8370185 C 1.2653109,21.999999 1.7824958e-6,20.757815 1.7824958e-6,19.214831 V 2.7851667 C 1.7824958e-6,1.2421837 1.2653109,-5.979026e-7 2.8370185,-5.979026e-7 Z"
     sodipodi:nodetypes="sccssssss" />
  <path
     style="fill:#fbb800;stroke-width:0.683888"
     d="M 13.123021,5.8935535 C 12.425936,5.7096399 11.906677,5.164099 11.756735,4.4581169 11.698158,4.1823151 11.685736,3.6877933 11.69638,2.0554189 L 11.709781,-5.9790261e-7 14.147914,2.5102497 c 1.340972,1.3806375 2.642203,2.7248382 2.891623,2.9871117 l 0.453492,0.4768615 -2.044694,-0.00331 c -1.628658,-0.00265 -2.101792,-0.018381 -2.325314,-0.077353 z"
     id="path978" />
  <g
     id="g1479"
     transform="matrix(0.11844931,0,0,0.11506608,-30.277696,-17.944632)"
     style="fill:#083863;fill-opacity:1;stroke-width:5.88888">
    <rect
       style="fill:#083863;fill-opacity:1;stroke-width:1.55811"
       id="rect1162"
       width="58.372555"
       height="9.1965494"
       x="286.42361"
       y="224.42944"
       ry="4.5982747" />
    <rect
       style="fill:#083863;fill-opacity:1;stroke-width:1.5581"
       id="rect1244"
       width="77.956001"
       height="9.1965494"
       x="286.42361"
       y="249.0233"
       ry="4.5982747" />
    <rect
       style="fill:#083863;fill-opacity:1;stroke-width:1.55811"
       id="rect1360"
       width="58.372555"
       height="9.1965494"
       x="286.42361"
       y="273.66681"
       ry="4.5982747" />
  </g>
  <path
     id="path65"
     style="fill:#d40000;stroke:none;stroke-width:0.177613"
     d="M 15.5,9 C 11.91015,9.000004 9,11.910151 9,15.500001 9,19.08985 11.91015,21.999997 15.5,22 19.08985,21.999998 22,19.089851 22,15.500001 22,11.910151 19.08985,9.000003 15.5,9 Z m -2.61718,2.767714 c 0.28478,0 0.56954,0.109126 0.78776,0.327342 l 1.82942,1.82942 1.82942,-1.82942 c 0.43643,-0.436433 1.13916,-0.436433 1.57559,0 0.43644,0.436433 0.43644,1.139091 0,1.575525 l -1.82942,1.82942 1.82942,1.829419 c 0.43644,0.436434 0.43644,1.139159 0,1.575592 -0.43643,0.436435 -1.13916,0.436435 -1.57559,0 L 15.5,17.075592 l -1.82942,1.82942 c -0.43643,0.436435 -1.13916,0.436435 -1.57559,0 -0.43644,-0.436433 -0.43644,-1.139158 0,-1.575592 l 1.82942,-1.829419 -1.82942,-1.82942 c -0.43644,-0.436434 -0.43644,-1.139092 0,-1.575525 0.21821,-0.218216 0.50304,-0.327342 0.78783,-0.327342 z" />
</svg>
