<?xml version="1.0" encoding="UTF-8" standalone="no"?>
<svg
   width="22"
   height="22"
   fill="currentColor"
   class="bi bi-printer-fill"
   viewBox="0 0 16 16"
   version="1.1"
   id="svg6"
   sodipodi:docname="printer-fill.svg"
   inkscape:version="1.1.2 (1:1.1+202202050950+0a00cf5339)"
   xmlns:inkscape="http://www.inkscape.org/namespaces/inkscape"
   xmlns:sodipodi="http://sodipodi.sourceforge.net/DTD/sodipodi-0.dtd"
   xmlns="http://www.w3.org/2000/svg"
   xmlns:svg="http://www.w3.org/2000/svg">
  <defs
     id="defs10" />
  <sodipodi:namedview
     id="namedview8"
     pagecolor="#ffffff"
     bordercolor="#666666"
     borderopacity="1.0"
     inkscape:pageshadow="2"
     inkscape:pageopacity="0.0"
     inkscape:pagecheckerboard="0"
     showgrid="false"
     inkscape:zoom="14.73061"
     inkscape:cx="4.0392081"
     inkscape:cy="7.5353294"
     inkscape:current-layer="svg6" />
  <g
     id="g652"
     inkscape:export-filename="/home/julian-guerrero/Descargas/g652.png"
     inkscape:export-xdpi="96"
     inkscape:export-ydpi="96"
     transform="matrix(0.49999994,0,0,0.5,51.314964,4.6389828)">
    <rect
       style="fill:none;stroke-width:45.5803;stroke-miterlimit:0"
       id="rect34"
       width="32"
       height="32"
       x="-102.62994"
       y="-9.2779655" />
    <g
       id="g140"
       transform="matrix(2,0,0,2,-102.62994,-8.2779656)">
      <path
         d="M 5,1 A 2,2 0 0 0 3,3 V 4 H 13 V 3 A 2,2 0 0 0 11,1 Z m 6,8 H 5 a 1,1 0 0 0 -1,1 v 3 a 1,1 0 0 0 1,1 h 6 a 1,1 0 0 0 1,-1 V 10 A 1,1 0 0 0 11,9 Z"
         id="path2" />
      <path
         d="M 0,7 A 2,2 0 0 1 2,5 h 12 a 2,2 0 0 1 2,2 v 3 a 2,2 0 0 1 -2,2 H 13 V 10 A 2,2 0 0 0 11,8 H 5 a 2,2 0 0 0 -2,2 v 2 H 2 A 2,2 0 0 1 0,10 Z m 2.5,1 a 0.5,0.5 0 1 0 0,-1 0.5,0.5 0 0 0 0,1 z"
         id="path4" />
    </g>
  </g>
</svg>
