<?xml version="1.0" encoding="UTF-8" standalone="no"?>
<svg
   width="40mm"
   height="32mm"
   viewBox="0 0 40 32"
   version="1.1"
   id="svg8"
   inkscape:version="1.1.2 (0a00cf5339, 2022-02-04)"
   sodipodi:docname="btn-home.svg"
   xmlns:inkscape="http://www.inkscape.org/namespaces/inkscape"
   xmlns:sodipodi="http://sodipodi.sourceforge.net/DTD/sodipodi-0.dtd"
   xmlns="http://www.w3.org/2000/svg"
   xmlns:svg="http://www.w3.org/2000/svg"
   xmlns:rdf="http://www.w3.org/1999/02/22-rdf-syntax-ns#"
   xmlns:cc="http://creativecommons.org/ns#"
   xmlns:dc="http://purl.org/dc/elements/1.1/">
  <defs
     id="defs2" />
  <sodipodi:namedview
     id="base"
     pagecolor="#ffffff"
     bordercolor="#666666"
     borderopacity="1.0"
     inkscape:pageopacity="0.0"
     inkscape:pageshadow="2"
     inkscape:zoom="3.3555559"
     inkscape:cx="99.685419"
     inkscape:cy="62.284761"
     inkscape:document-units="mm"
     inkscape:current-layer="layer1"
     inkscape:document-rotation="0"
     showgrid="false"
     inkscape:pagecheckerboard="0"
     inkscape:window-width="1920"
     inkscape:window-height="1001"
     inkscape:window-x="0"
     inkscape:window-y="0"
     inkscape:window-maximized="1" />
  <metadata
     id="metadata5">
    <rdf:RDF>
      <cc:Work
         rdf:about="">
        <dc:format>image/svg+xml</dc:format>
        <dc:type
           rdf:resource="http://purl.org/dc/dcmitype/StillImage" />
      </cc:Work>
    </rdf:RDF>
  </metadata>
  <g
     inkscape:label="Capa 1"
     inkscape:groupmode="layer"
     id="layer1">
    <g
       id="g847"
       transform="matrix(0.2953883,0,0,0.29685996,-14.188252,-12.544977)"
       style="fill:#ffffff"
       inkscape:export-xdpi="27.727911"
       inkscape:export-ydpi="27.727911">
      <path
         style="fill:#ffffff;fill-opacity:1;stroke-width:0.264583"
         d="m 80.226039,149.98004 c 4.547526,-0.0406 11.988932,-0.0406 16.536458,0 4.547523,0.0406 0.826823,0.0738 -8.268229,0.0738 -9.095052,0 -12.815755,-0.0332 -8.268229,-0.0738 z m 54.504161,0 c 4.54753,-0.0406 11.98893,-0.0406 16.53646,0 4.54753,0.0406 0.82682,0.0738 -8.26823,0.0738 -9.09505,0 -12.81575,-0.0332 -8.26823,-0.0738 z m -63.87482,-0.24268 c 0.09701,-0.097 0.255764,-0.097 0.352778,0 0.09701,0.097 0.01764,0.17639 -0.176389,0.17639 -0.194028,0 -0.273403,-0.0794 -0.176389,-0.17639 z m 89.42916,0 c 0.097,-0.097 0.25577,-0.097 0.35278,0 0.097,0.097 0.0176,0.17639 -0.17639,0.17639 -0.19403,0 -0.2734,-0.0794 -0.17639,-0.17639 z m -90.997828,-0.92283 c -0.116967,-0.18925 -0.07258,-0.23364 0.116677,-0.11667 0.168005,0.10383 0.305463,0.24129 0.305463,0.30546 0,0.2207 -0.23364,0.11621 -0.42214,-0.18879 z m 92.629428,0.0409 c 0.0899,-0.14553 0.22305,-0.26459 0.29581,-0.26459 0.0728,0 0.0587,0.11906 -0.0312,0.26459 -0.0899,0.14552 -0.22305,0.26458 -0.29581,0.26458 -0.0728,0 -0.0587,-0.11906 0.0312,-0.26458 z M 68.228378,147.7562 c -0.116966,-0.18925 -0.07258,-0.23364 0.116677,-0.11667 0.304999,0.1885 0.409487,0.42214 0.188787,0.42214 -0.06417,0 -0.201631,-0.13746 -0.305464,-0.30547 z m 94.746092,0.0409 c 0.0899,-0.14552 0.22305,-0.26458 0.29581,-0.26458 0.0728,0 0.0587,0.11906 -0.0312,0.26458 -0.0899,0.14552 -0.22306,0.26459 -0.29582,0.26459 -0.0728,0 -0.0587,-0.11907 0.0312,-0.26459 z m -95.62598,-2.271 c 0.0127,-0.30823 0.07539,-0.37092 0.159853,-0.15986 0.07643,0.191 0.06703,0.4192 -0.02089,0.50712 -0.08792,0.0879 -0.150453,-0.0684 -0.138963,-0.34726 z m 96.57291,0 c 0.0127,-0.30823 0.0754,-0.37092 0.15985,-0.15986 0.0764,0.191 0.067,0.4192 -0.0209,0.50712 -0.0879,0.0879 -0.15045,-0.0684 -0.13897,-0.34726 z m -53.53286,-27.82504 c 2.94679,-0.0426 7.76883,-0.0426 10.71562,0 2.9468,0.0426 0.53578,0.0774 -5.35781,0.0774 -5.89359,0 -8.30461,-0.0348 -5.35781,-0.0774 z m -54.085243,-12.1491 c 0.09701,-0.097 0.255764,-0.097 0.352778,0 0.09701,0.097 0.01764,0.17639 -0.176389,0.17639 -0.194027,0 -0.273402,-0.0794 -0.176389,-0.17639 z m 118.533323,0 c 0.097,-0.097 0.25577,-0.097 0.35278,0 0.097,0.097 0.0176,0.17639 -0.17639,0.17639 -0.19402,0 -0.2734,-0.0794 -0.17639,-0.17639 z M 54.205462,105.15829 c -0.116966,-0.18926 -0.07258,-0.23365 0.116677,-0.11668 0.304999,0.1885 0.409487,0.42214 0.188787,0.42214 -0.06417,0 -0.20163,-0.13746 -0.305464,-0.30546 z m 122.791928,0.0409 c 0.0899,-0.14552 0.22305,-0.26459 0.29581,-0.26459 0.0728,0 0.0587,0.11907 -0.0312,0.26459 -0.0899,0.14552 -0.22305,0.26458 -0.29581,0.26458 -0.0728,0 -0.0587,-0.11906 0.0312,-0.26458 z M 57.670311,104.93458 c 0.08994,-0.14552 0.223053,-0.26458 0.295813,-0.26458 0.07276,0 0.05871,0.11906 -0.03123,0.26458 -0.08994,0.14553 -0.223053,0.26459 -0.295814,0.26459 -0.07276,0 -0.05871,-0.11906 0.03123,-0.26459 z m 115.862229,-0.0409 c -0.11697,-0.18925 -0.0726,-0.23364 0.11668,-0.11667 0.30499,0.1885 0.40948,0.42214 0.18878,0.42214 -0.0642,0 -0.20163,-0.13746 -0.30546,-0.30547 z M 53.006354,103.9424 c -0.329107,-0.41965 -0.319749,-0.42901 0.09989,-0.0999 0.254661,0.19972 0.463021,0.40808 0.463021,0.46302 0,0.21776 -0.217272,0.0776 -0.562916,-0.36312 z m 124.917076,0.36312 c 0,-0.0549 0.20836,-0.2633 0.46302,-0.46302 0.41965,-0.32911 0.429,-0.31975 0.0999,0.0999 -0.34565,0.44073 -0.56292,0.58088 -0.56292,0.36312 z M 59.257811,103.61167 c 0.08994,-0.14552 0.223053,-0.26459 0.295813,-0.26459 0.07276,0 0.05871,0.11907 -0.03123,0.26459 -0.08994,0.14552 -0.223052,0.26458 -0.295813,0.26458 -0.07276,0 -0.05871,-0.11906 0.03123,-0.26458 z m 112.687229,-0.0409 c -0.11697,-0.18926 -0.0726,-0.23365 0.11668,-0.11668 0.30499,0.1885 0.40948,0.42214 0.18878,0.42214 -0.0642,0 -0.20163,-0.13746 -0.30546,-0.30546 z M 67.989061,103.34708 c 0.08994,-0.14552 0.223052,-0.26458 0.295813,-0.26458 0.07276,0 0.05871,0.11906 -0.03123,0.26458 -0.08994,0.14553 -0.223053,0.26459 -0.295813,0.26459 -0.07276,0 -0.05871,-0.11906 0.03123,-0.26459 z m 95.224729,-0.0409 c -0.11697,-0.18925 -0.0726,-0.23364 0.11668,-0.11667 0.168,0.10383 0.30546,0.24129 0.30546,0.30546 0,0.2207 -0.23364,0.11621 -0.42214,-0.18879 z M 51.683438,102.3549 c -0.329108,-0.41965 -0.31975,-0.42901 0.09989,-0.0999 0.254662,0.19972 0.463021,0.40808 0.463021,0.46302 0,0.21776 -0.217272,0.0776 -0.562915,-0.36312 z m 127.562912,0.36312 c 0,-0.0549 0.20836,-0.2633 0.46302,-0.46302 0.41964,-0.32911 0.429,-0.31975 0.0999,0.0999 -0.34564,0.44073 -0.56291,0.58088 -0.56291,0.36312 z M 60.845311,102.28875 c 0.08994,-0.14552 0.223053,-0.26458 0.295813,-0.26458 0.07276,0 0.05871,0.11906 -0.03123,0.26458 -0.08994,0.14552 -0.223052,0.26458 -0.295813,0.26458 -0.07276,0 -0.05871,-0.11906 0.03123,-0.26458 z m 8.466666,0 c 0.08994,-0.14552 0.223053,-0.26458 0.295813,-0.26458 0.07276,0 0.05871,0.11906 -0.03123,0.26458 -0.08994,0.14552 -0.223053,0.26458 -0.295814,0.26458 -0.07276,0 -0.05871,-0.11906 0.03123,-0.26458 z m 92.578893,-0.0409 c -0.11696,-0.18926 -0.0726,-0.23364 0.11668,-0.11668 0.16801,0.10384 0.30546,0.2413 0.30546,0.30547 0,0.2207 -0.23364,0.11621 -0.42214,-0.18879 z m 8.46667,0 c -0.11697,-0.18926 -0.0726,-0.23364 0.11668,-0.11668 0.168,0.10384 0.30546,0.2413 0.30546,0.30547 0,0.2207 -0.23364,0.11621 -0.42214,-0.18879 z M 62.432811,100.96583 c 0.08994,-0.14552 0.223053,-0.26458 0.295813,-0.26458 0.07276,0 0.05871,0.11906 -0.03123,0.26458 -0.08994,0.14553 -0.223052,0.26459 -0.295813,0.26459 -0.07276,0 -0.05871,-0.11906 0.03123,-0.26459 z m 8.466666,0 c 0.08994,-0.14552 0.223053,-0.26458 0.295813,-0.26458 0.07276,0 0.05871,0.11906 -0.03123,0.26458 -0.08994,0.14553 -0.223053,0.26459 -0.295814,0.26459 -0.07276,0 -0.05871,-0.11906 0.03123,-0.26459 z m 89.403893,-0.0409 c -0.11696,-0.18925 -0.0726,-0.23364 0.11668,-0.11667 0.305,0.1885 0.40949,0.42214 0.18879,0.42214 -0.0642,0 -0.20163,-0.13746 -0.30547,-0.30547 z m 8.46667,0 c -0.11697,-0.18925 -0.0726,-0.23364 0.11668,-0.11667 0.168,0.10383 0.30546,0.24129 0.30546,0.30546 0,0.2207 -0.23364,0.11621 -0.42214,-0.18879 z M 50.236713,100.66037 c -0.116967,-0.18926 -0.07258,-0.23364 0.116677,-0.11668 0.304999,0.1885 0.409486,0.42214 0.188786,0.42214 -0.06417,0 -0.20163,-0.13745 -0.305463,-0.30546 z m 130.729427,0.0409 c 0.0899,-0.14552 0.22305,-0.26458 0.29581,-0.26458 0.0728,0 0.0587,0.11906 -0.0312,0.26458 -0.0899,0.14552 -0.22305,0.26458 -0.29581,0.26458 -0.0728,0 -0.0587,-0.11906 0.0312,-0.26458 z M 64.020311,99.642918 c 0.08994,-0.145521 0.223053,-0.264583 0.295813,-0.264583 0.07276,0 0.05871,0.119062 -0.03123,0.264583 -0.08994,0.145521 -0.223053,0.264583 -0.295813,0.264583 -0.07276,0 -0.05871,-0.119062 0.03123,-0.264583 z m 8.466666,0 c 0.08994,-0.145521 0.223053,-0.264583 0.295813,-0.264583 0.07276,0 0.05871,0.119062 -0.03123,0.264583 -0.08994,0.145521 -0.223052,0.264583 -0.295813,0.264583 -0.07276,0 -0.05871,-0.119062 0.03123,-0.264583 z m 86.228893,-0.04088 c -0.11696,-0.189256 -0.0726,-0.233643 0.11668,-0.116676 0.16801,0.103834 0.30546,0.241292 0.30546,0.305465 0,0.220703 -0.23364,0.11621 -0.42214,-0.188789 z m 8.46667,0 c -0.11697,-0.189256 -0.0726,-0.233643 0.11668,-0.116676 0.305,0.1885 0.40948,0.42214 0.18878,0.42214 -0.0642,0 -0.20163,-0.137458 -0.30546,-0.305464 z M 48.913796,99.072871 c -0.116967,-0.189257 -0.07258,-0.233643 0.116677,-0.116676 0.168005,0.103833 0.305464,0.241292 0.305464,0.305464 0,0.220699 -0.233641,0.11621 -0.422141,-0.188788 z m 133.375264,0.04088 c 0.0899,-0.145521 0.22305,-0.264584 0.29581,-0.264584 0.0728,0 0.0587,0.119063 -0.0312,0.264584 -0.0899,0.14552 -0.22305,0.264583 -0.29581,0.264583 -0.0728,0 -0.0587,-0.119063 0.0312,-0.264583 z M 73.677602,98.749272 c 0,-0.05494 0.208359,-0.2633 0.463021,-0.463021 0.419645,-0.329107 0.429003,-0.319749 0.09989,0.0999 -0.345644,0.44073 -0.562916,0.580888 -0.562916,0.363125 z m 83.574578,-0.363125 c -0.32911,-0.419645 -0.31975,-0.429003 0.0999,-0.0999 0.25466,0.199721 0.46302,0.40808 0.46302,0.463021 0,0.217763 -0.21728,0.0776 -0.56292,-0.363125 z m -91.644369,-0.06614 c 0.08994,-0.145521 0.223053,-0.264584 0.295813,-0.264584 0.07276,0 0.05871,0.119063 -0.03123,0.264584 -0.08994,0.14552 -0.223053,0.264583 -0.295813,0.264583 -0.07276,0 -0.05871,-0.119063 0.03123,-0.264583 z m 99.987229,-0.04088 c -0.11697,-0.189257 -0.0726,-0.233643 0.11668,-0.116676 0.305,0.1885 0.40948,0.42214 0.18878,0.42214 -0.0642,0 -0.20163,-0.137459 -0.30546,-0.305464 z M 48.033908,97.371912 c 0.0127,-0.308226 0.07539,-0.370919 0.159853,-0.159853 0.07643,0.190995 0.06703,0.4192 -0.02089,0.507119 -0.08792,0.08792 -0.150452,-0.06835 -0.138964,-0.347266 z m 135.202082,0 c 0.0127,-0.308226 0.0754,-0.370919 0.15985,-0.159853 0.0764,0.190995 0.067,0.4192 -0.0209,0.507119 -0.0879,0.08792 -0.15045,-0.06835 -0.13896,-0.347266 z M 75.397394,97.261668 c 0.08994,-0.145521 0.223051,-0.264583 0.295812,-0.264583 0.07276,0 0.05871,0.119062 -0.03123,0.264583 -0.08994,0.145521 -0.223052,0.264584 -0.295812,0.264584 -0.07276,0 -0.05871,-0.119063 0.03123,-0.264584 z m 80.408066,-0.04088 c -0.11697,-0.189257 -0.0726,-0.233643 0.11667,-0.116676 0.16801,0.103833 0.30547,0.241292 0.30547,0.305464 0,0.220699 -0.23364,0.11621 -0.42214,-0.188788 z M 67.195311,96.997085 c 0.08994,-0.145521 0.223052,-0.264583 0.295813,-0.264583 0.07276,0 0.05871,0.119062 -0.03123,0.264583 -0.08994,0.145521 -0.223053,0.264583 -0.295813,0.264583 -0.07276,0 -0.05871,-0.119062 0.03123,-0.264583 z m 96.812229,-0.04088 c -0.11697,-0.189256 -0.0726,-0.233643 0.11668,-0.116676 0.305,0.1885 0.40948,0.42214 0.18878,0.42214 -0.0642,0 -0.20163,-0.137459 -0.30546,-0.305464 z M 76.984894,95.938752 c 0.08994,-0.145521 0.223051,-0.264584 0.295812,-0.264584 0.07276,0 0.05871,0.119063 -0.03123,0.264584 -0.08994,0.145521 -0.223052,0.264583 -0.295812,0.264583 -0.07276,0 -0.05871,-0.119062 0.03123,-0.264583 z m 77.233066,-0.04088 c -0.11697,-0.189257 -0.0726,-0.233643 0.11667,-0.116676 0.305,0.1885 0.40949,0.42214 0.18879,0.42214 -0.0642,0 -0.20163,-0.137459 -0.30546,-0.305464 z M 68.782811,95.674168 c 0.08994,-0.14552 0.223052,-0.264583 0.295813,-0.264583 0.07276,0 0.05871,0.119063 -0.03123,0.264583 -0.08994,0.145521 -0.223053,0.264584 -0.295813,0.264584 -0.07276,0 -0.05871,-0.119063 0.03123,-0.264584 z m 93.637229,-0.04088 c -0.11697,-0.189257 -0.0726,-0.233643 0.11668,-0.116676 0.305,0.188499 0.40948,0.42214 0.18879,0.42214 -0.0642,0 -0.20164,-0.137459 -0.30547,-0.305464 z M 78.175519,95.045106 c 0,-0.05494 0.208359,-0.2633 0.46302,-0.463021 0.419645,-0.329107 0.429004,-0.319749 0.0999,0.0999 -0.345643,0.44073 -0.562916,0.580887 -0.562916,0.363125 z m 74.578741,-0.363125 c -0.3291,-0.419645 -0.31974,-0.429003 0.0999,-0.0999 0.44073,0.345644 0.58089,0.562917 0.36313,0.562917 -0.0549,0 -0.2633,-0.20836 -0.46303,-0.463021 z M 70.370311,94.351252 c 0.08994,-0.145521 0.223052,-0.264584 0.295813,-0.264584 0.07276,0 0.05871,0.119063 -0.03123,0.264584 -0.08994,0.145521 -0.223053,0.264583 -0.295813,0.264583 -0.07276,0 -0.05871,-0.119062 0.03123,-0.264583 z m 90.462229,-0.04088 c -0.11697,-0.189256 -0.0726,-0.233643 0.11668,-0.116676 0.168,0.103833 0.30546,0.241292 0.30546,0.305464 0,0.2207 -0.23364,0.11621 -0.42214,-0.188788 z M 49.732812,94.086668 c 0.08994,-0.14552 0.223052,-0.264583 0.295813,-0.264583 0.07276,0 0.05871,0.119063 -0.03123,0.264583 -0.08994,0.145521 -0.223053,0.264584 -0.295813,0.264584 -0.07276,0 -0.05871,-0.119063 0.03123,-0.264584 z m 131.737228,-0.04088 c -0.11697,-0.189257 -0.0726,-0.233643 0.11668,-0.116676 0.30499,0.188499 0.40948,0.42214 0.18878,0.42214 -0.0642,0 -0.20163,-0.137459 -0.30546,-0.305464 z M 79.89531,93.557502 c 0.08994,-0.145521 0.223052,-0.264584 0.295812,-0.264584 0.07276,0 0.05871,0.119063 -0.03123,0.264584 -0.08994,0.145521 -0.223051,0.264583 -0.295812,0.264583 -0.07276,0 -0.05871,-0.119062 0.03123,-0.264583 z m 71.41223,-0.04088 c -0.11697,-0.189256 -0.0726,-0.233643 0.11668,-0.116676 0.168,0.103833 0.30546,0.241292 0.30546,0.305464 0,0.2207 -0.23364,0.11621 -0.42214,-0.188788 z M 71.95781,93.028335 c 0.08994,-0.145521 0.223053,-0.264583 0.295814,-0.264583 0.07276,0 0.05871,0.119062 -0.03123,0.264583 -0.08994,0.145521 -0.223053,0.264583 -0.295813,0.264583 -0.07276,0 -0.05871,-0.119062 0.03123,-0.264583 z m 87.28723,-0.04088 c -0.11697,-0.189256 -0.0726,-0.233643 0.11668,-0.116676 0.305,0.1885 0.40948,0.42214 0.18879,0.42214 -0.0642,0 -0.20164,-0.137458 -0.30547,-0.305464 z M 51.320312,92.763752 c 0.08994,-0.145521 0.223052,-0.264583 0.295813,-0.264583 0.07276,0 0.05871,0.119062 -0.03123,0.264583 -0.08994,0.145521 -0.223053,0.264583 -0.295813,0.264583 -0.07276,0 -0.05871,-0.119062 0.03123,-0.264583 z m 128.562228,-0.04088 c -0.11697,-0.189256 -0.0726,-0.233643 0.11668,-0.116676 0.30499,0.1885 0.40948,0.42214 0.18878,0.42214 -0.0642,0 -0.20163,-0.137459 -0.30546,-0.305464 z M 81.48281,92.234585 c 0.08994,-0.145521 0.223052,-0.264583 0.295812,-0.264583 0.07276,0 0.05871,0.119062 -0.03123,0.264583 -0.08994,0.145521 -0.223051,0.264584 -0.295812,0.264584 -0.07276,0 -0.05871,-0.119063 0.03123,-0.264584 z m 68.23723,-0.04088 c -0.11697,-0.189256 -0.0726,-0.233643 0.11668,-0.116676 0.168,0.103834 0.30546,0.241293 0.30546,0.305465 0,0.220699 -0.23364,0.11621 -0.42214,-0.188789 z M 73.54531,91.705419 c 0.08994,-0.145521 0.223053,-0.264584 0.295814,-0.264584 0.07276,0 0.05871,0.119063 -0.03123,0.264584 -0.08994,0.14552 -0.223053,0.264583 -0.295813,0.264583 -0.07276,0 -0.05871,-0.119063 0.03123,-0.264583 z m 84.11223,-0.04088 c -0.11697,-0.189257 -0.0726,-0.233643 0.11668,-0.116676 0.305,0.1885 0.40948,0.42214 0.18879,0.42214 -0.0642,0 -0.20164,-0.137459 -0.30547,-0.305464 z M 52.907811,91.440835 c 0.08994,-0.145521 0.223053,-0.264583 0.295814,-0.264583 0.07276,0 0.05871,0.119062 -0.03123,0.264583 -0.08994,0.145521 -0.223053,0.264584 -0.295813,0.264584 -0.07276,0 -0.05871,-0.119063 0.03123,-0.264584 z m 125.387229,-0.04088 c -0.11697,-0.189256 -0.0726,-0.233642 0.11668,-0.116675 0.30499,0.188499 0.40948,0.42214 0.18878,0.42214 -0.0642,0 -0.20163,-0.137459 -0.30546,-0.305465 z m -95.621605,-0.05901 c 0,-0.05494 0.208359,-0.2633 0.463021,-0.463021 0.419645,-0.329107 0.429003,-0.319749 0.0999,0.0999 -0.345644,0.44073 -0.562917,0.580888 -0.562917,0.363125 z M 148.25635,90.97782 c -0.32911,-0.419645 -0.31975,-0.429003 0.0999,-0.0999 0.44073,0.345644 0.58089,0.562917 0.36313,0.562917 -0.0549,0 -0.2633,-0.208359 -0.46302,-0.463021 z M 75.13281,90.382502 c 0.08994,-0.145521 0.223052,-0.264583 0.295812,-0.264583 0.07276,0 0.05871,0.119062 -0.03123,0.264583 -0.08994,0.145521 -0.223052,0.264583 -0.295812,0.264583 -0.07276,0 -0.05871,-0.119062 0.03123,-0.264583 z m 80.93723,-0.04088 c -0.11697,-0.189256 -0.0726,-0.233643 0.11668,-0.116676 0.168,0.103833 0.30546,0.241292 0.30546,0.305464 0,0.2207 -0.23364,0.116211 -0.42214,-0.188788 z M 54.495311,90.117919 c 0.08994,-0.145521 0.223053,-0.264584 0.295813,-0.264584 0.07276,0 0.05871,0.119063 -0.03123,0.264584 -0.08994,0.14552 -0.223053,0.264583 -0.295813,0.264583 -0.07276,0 -0.05871,-0.119063 0.03123,-0.264583 z m 122.212229,-0.04088 c -0.11697,-0.189257 -0.0726,-0.233643 0.11668,-0.116676 0.168,0.103833 0.30546,0.241292 0.30546,0.305464 0,0.2207 -0.23364,0.11621 -0.42214,-0.188788 z M 84.393227,89.853335 c 0.08994,-0.145521 0.223051,-0.264583 0.295812,-0.264583 0.07276,0 0.05871,0.119062 -0.03123,0.264583 -0.08994,0.145521 -0.223052,0.264584 -0.295812,0.264584 -0.07276,0 -0.05871,-0.119063 0.03123,-0.264584 z m 62.416403,-0.04088 c -0.11697,-0.189257 -0.0726,-0.233643 0.11667,-0.116676 0.305,0.188499 0.40949,0.42214 0.18879,0.42214 -0.0642,0 -0.20163,-0.137459 -0.30546,-0.305464 z m -70.08932,-0.75287 c 0.08994,-0.14552 0.223052,-0.264583 0.295812,-0.264583 0.07276,0 0.05871,0.119063 -0.03123,0.264583 -0.08994,0.145521 -0.223052,0.264584 -0.295813,0.264584 -0.07276,0 -0.05871,-0.119063 0.03123,-0.264584 z m 77.76223,-0.04088 c -0.11697,-0.189257 -0.0726,-0.233643 0.11668,-0.116676 0.305,0.188499 0.40948,0.42214 0.18879,0.42214 -0.0642,0 -0.20164,-0.137459 -0.30547,-0.305464 z m 20.76131,-0.157557 c -0.32911,-0.419645 -0.31975,-0.429003 0.0999,-0.0999 0.25466,0.199721 0.46302,0.40808 0.46302,0.463021 0,0.217762 -0.21727,0.07761 -0.56291,-0.363125 z M 56.082811,88.795002 c 0.08994,-0.145521 0.223053,-0.264583 0.295813,-0.264583 0.07276,0 0.05871,0.119062 -0.03123,0.264583 -0.08994,0.145521 -0.223053,0.264583 -0.295814,0.264583 -0.07276,0 -0.05871,-0.119062 0.03123,-0.264583 z m 29.897915,-0.264583 c 0.08994,-0.145521 0.223052,-0.264584 0.295813,-0.264584 0.07276,0 0.05871,0.119063 -0.03123,0.264584 -0.08994,0.145521 -0.223052,0.264583 -0.295812,0.264583 -0.07276,0 -0.05871,-0.119062 0.03123,-0.264583 z m 59.241404,-0.04088 c -0.11697,-0.189257 -0.0726,-0.233643 0.11667,-0.116676 0.16801,0.103833 0.30547,0.241292 0.30547,0.305464 0,0.2207 -0.23365,0.11621 -0.42214,-0.188788 z m -66.91432,-0.75287 c 0.08994,-0.145521 0.223052,-0.264584 0.295812,-0.264584 0.07276,0 0.05871,0.119063 -0.03123,0.264584 -0.08994,0.145521 -0.223051,0.264583 -0.295812,0.264583 -0.07276,0 -0.05871,-0.119062 0.03123,-0.264583 z m 74.58723,-0.04088 c -0.11697,-0.189256 -0.0726,-0.233643 0.11668,-0.116676 0.305,0.1885 0.40949,0.42214 0.18879,0.42214 -0.0642,0 -0.20164,-0.137459 -0.30547,-0.305464 z m 20.76131,-0.157557 c -0.32911,-0.419645 -0.31975,-0.429003 0.0999,-0.0999 0.25466,0.199721 0.46302,0.40808 0.46302,0.463021 0,0.217763 -0.21727,0.0776 -0.56291,-0.363125 z M 57.670311,87.472085 c 0.08994,-0.14552 0.223053,-0.264583 0.295813,-0.264583 0.07276,0 0.05871,0.119063 -0.03123,0.264583 -0.08994,0.145521 -0.223053,0.264584 -0.295814,0.264584 -0.07276,0 -0.05871,-0.119063 0.03123,-0.264584 z m 29.897915,-0.264583 c 0.08994,-0.145521 0.223052,-0.264583 0.295812,-0.264583 0.07276,0 0.05871,0.119062 -0.03123,0.264583 -0.08994,0.145521 -0.223052,0.264583 -0.295812,0.264583 -0.07276,0 -0.05871,-0.119062 0.03123,-0.264583 z m 56.066404,-0.04088 c -0.11697,-0.189256 -0.0726,-0.233643 0.11667,-0.116676 0.16801,0.103833 0.30547,0.241292 0.30547,0.305464 0,0.2207 -0.23365,0.116211 -0.42214,-0.188788 z m -63.73932,-0.75287 c 0.08994,-0.145521 0.223052,-0.264583 0.295812,-0.264583 0.07276,0 0.05871,0.119062 -0.03123,0.264583 -0.08994,0.145521 -0.223051,0.264583 -0.295812,0.264583 -0.07276,0 -0.05871,-0.119062 0.03123,-0.264583 z m 71.41223,-0.04088 c -0.11697,-0.189256 -0.0726,-0.233643 0.11668,-0.116676 0.168,0.103834 0.30546,0.241292 0.30546,0.305465 0,0.220699 -0.23364,0.11621 -0.42214,-0.188789 z m 20.76131,-0.157556 c -0.32911,-0.419645 -0.31975,-0.429004 0.0999,-0.0999 0.25466,0.19972 0.46302,0.40808 0.46302,0.46302 0,0.217763 -0.21727,0.0776 -0.56291,-0.363124 z M 59.257811,86.149169 c 0.08994,-0.145521 0.223053,-0.264583 0.295813,-0.264583 0.07276,0 0.05871,0.119062 -0.03123,0.264583 -0.08994,0.145521 -0.223052,0.264583 -0.295813,0.264583 -0.07276,0 -0.05871,-0.119062 0.03123,-0.264583 z m 29.633332,0 c 0.08994,-0.145521 0.223052,-0.264583 0.295812,-0.264583 0.07276,0 0.05871,0.119062 -0.03123,0.264583 -0.08994,0.145521 -0.223051,0.264583 -0.295812,0.264583 -0.07276,0 -0.05871,-0.119062 0.03123,-0.264583 z m 53.420567,-0.04088 c -0.11697,-0.189256 -0.0726,-0.233643 0.11667,-0.116676 0.305,0.1885 0.40949,0.42214 0.18879,0.42214 -0.0642,0 -0.20163,-0.137459 -0.30546,-0.305464 z m -60.8289,-1.017452 c 0.08994,-0.145521 0.223052,-0.264584 0.295812,-0.264584 0.07276,0 0.05871,0.119063 -0.03123,0.264584 -0.08994,0.14552 -0.223051,0.264583 -0.295812,0.264583 -0.07276,0 -0.05871,-0.119063 0.03123,-0.264583 z m 68.23723,-0.04088 c -0.11697,-0.189257 -0.0726,-0.233643 0.11668,-0.116676 0.168,0.103833 0.30546,0.241292 0.30546,0.305464 0,0.220699 -0.23364,0.11621 -0.42214,-0.188788 z M 170.48135,84.8924 c -0.32911,-0.419645 -0.31975,-0.429003 0.0999,-0.0999 0.25466,0.199721 0.46302,0.40808 0.46302,0.463021 0,0.217762 -0.21727,0.07761 -0.56291,-0.363125 z M 60.845311,84.826252 c 0.08994,-0.145521 0.223053,-0.264583 0.295813,-0.264583 0.07276,0 0.05871,0.119062 -0.03123,0.264583 -0.08994,0.145521 -0.223052,0.264584 -0.295813,0.264584 -0.07276,0 -0.05871,-0.119063 0.03123,-0.264584 z m 29.633332,0 c 0.08994,-0.145521 0.223052,-0.264583 0.295812,-0.264583 0.07276,0 0.05871,0.119062 -0.03123,0.264583 -0.08994,0.145521 -0.223051,0.264584 -0.295812,0.264584 -0.07276,0 -0.05871,-0.119063 0.03123,-0.264584 z m 50.245567,-0.04088 c -0.11697,-0.189256 -0.0726,-0.233642 0.11667,-0.116675 0.16801,0.103833 0.30547,0.241292 0.30547,0.305464 0,0.220699 -0.23364,0.11621 -0.42214,-0.188789 z M 83.07031,83.76792 c 0.08994,-0.145521 0.223052,-0.264583 0.295812,-0.264583 0.07276,0 0.05871,0.119062 -0.03123,0.264583 -0.08994,0.145521 -0.223051,0.264583 -0.295812,0.264583 -0.07276,0 -0.05871,-0.119062 0.03123,-0.264583 z m 65.06223,-0.04088 c -0.11697,-0.189256 -0.0726,-0.233643 0.11668,-0.116676 0.305,0.1885 0.40949,0.42214 0.18879,0.42214 -0.0642,0 -0.20164,-0.137459 -0.30547,-0.305464 z m 20.90208,0 c -0.11696,-0.189256 -0.0726,-0.233643 0.11668,-0.116676 0.16801,0.103833 0.30546,0.241292 0.30546,0.305464 0,0.2207 -0.23364,0.116211 -0.42214,-0.188788 z M 62.432811,83.503336 c 0.08994,-0.145521 0.223053,-0.264584 0.295813,-0.264584 0.07276,0 0.05871,0.119063 -0.03123,0.264584 -0.08994,0.14552 -0.223052,0.264583 -0.295813,0.264583 -0.07276,0 -0.05871,-0.119063 0.03123,-0.264583 z m 29.633332,0 c 0.08994,-0.145521 0.223052,-0.264584 0.295812,-0.264584 0.07276,0 0.05871,0.119063 -0.03123,0.264584 -0.08994,0.14552 -0.223052,0.264583 -0.295812,0.264583 -0.07276,0 -0.05871,-0.119063 0.03123,-0.264583 z m 47.070567,-0.04088 c -0.11697,-0.189257 -0.0726,-0.233643 0.11667,-0.116676 0.305,0.1885 0.40949,0.42214 0.18879,0.42214 -0.0642,0 -0.20163,-0.137459 -0.30546,-0.305464 z m -54.4789,-1.017453 c 0.08994,-0.14552 0.223052,-0.264583 0.295812,-0.264583 0.07276,0 0.05871,0.119063 -0.03123,0.264583 -0.08994,0.145521 -0.223051,0.264584 -0.295812,0.264584 -0.07276,0 -0.05871,-0.119063 0.03123,-0.264584 z m 8.598958,0.164688 c 0,-0.05494 0.208359,-0.263301 0.463021,-0.463021 0.419645,-0.329107 0.429003,-0.319749 0.0999,0.0999 -0.345644,0.44073 -0.562917,0.580887 -0.562917,0.363125 z m 44.416252,-0.363125 c -0.32911,-0.419645 -0.31975,-0.429003 0.0999,-0.0999 0.25466,0.19972 0.46302,0.40808 0.46302,0.463021 0,0.217762 -0.21727,0.07761 -0.56291,-0.363125 z m 8.87202,0.157557 c -0.11697,-0.189257 -0.0726,-0.233643 0.11668,-0.116676 0.168,0.103833 0.30546,0.241292 0.30546,0.305464 0,0.220699 -0.23364,0.11621 -0.42214,-0.188788 z m 20.90208,0 c -0.11696,-0.189257 -0.0726,-0.233643 0.11668,-0.116676 0.305,0.188499 0.40949,0.42214 0.18879,0.42214 -0.0642,0 -0.20163,-0.137459 -0.30547,-0.305464 z M 64.020311,82.180419 c 0.08994,-0.145521 0.223053,-0.264583 0.295813,-0.264583 0.07276,0 0.05871,0.119062 -0.03123,0.264583 -0.08994,0.145521 -0.223053,0.264583 -0.295813,0.264583 -0.07276,0 -0.05871,-0.119062 0.03123,-0.264583 z M 86.24531,81.122086 c 0.08994,-0.145521 0.223051,-0.264584 0.295812,-0.264584 0.07276,0 0.05871,0.119063 -0.03123,0.264584 -0.08994,0.145521 -0.223052,0.264583 -0.295812,0.264583 -0.07276,0 -0.05871,-0.119062 0.03123,-0.264583 z m 8.731249,0 c 0.08994,-0.145521 0.223052,-0.264584 0.295812,-0.264584 0.07276,0 0.05871,0.119063 -0.03123,0.264584 -0.08994,0.145521 -0.223052,0.264583 -0.295812,0.264583 -0.07276,0 -0.05871,-0.119062 0.03123,-0.264583 z m 41.249731,-0.04088 c -0.11696,-0.189256 -0.0726,-0.233643 0.11668,-0.116676 0.168,0.103833 0.30546,0.241292 0.30546,0.305464 0,0.2207 -0.23364,0.11621 -0.42214,-0.188788 z m 8.73125,0 c -0.11697,-0.189256 -0.0726,-0.233643 0.11668,-0.116676 0.168,0.103833 0.30546,0.241292 0.30546,0.305464 0,0.2207 -0.23364,0.11621 -0.42214,-0.188788 z m 20.90208,0 c -0.11696,-0.189256 -0.0726,-0.233643 0.11668,-0.116676 0.16801,0.103833 0.30546,0.241292 0.30546,0.305464 0,0.2207 -0.23364,0.11621 -0.42214,-0.188788 z M 65.607811,80.857502 c 0.08994,-0.14552 0.223053,-0.264583 0.295813,-0.264583 0.07276,0 0.05871,0.119063 -0.03123,0.264583 -0.08994,0.145521 -0.223053,0.264584 -0.295813,0.264584 -0.07276,0 -0.05871,-0.119063 0.03123,-0.264584 z M 87.83281,79.799169 c 0.08994,-0.145521 0.223051,-0.264583 0.295812,-0.264583 0.07276,0 0.05871,0.119062 -0.03123,0.264583 -0.08994,0.145521 -0.223052,0.264583 -0.295812,0.264583 -0.07276,0 -0.05871,-0.119062 0.03123,-0.264583 z m 8.731249,0 c 0.08994,-0.145521 0.223052,-0.264583 0.295812,-0.264583 0.07276,0 0.05871,0.119062 -0.03123,0.264583 -0.08994,0.145521 -0.223052,0.264583 -0.295812,0.264583 -0.07276,0 -0.05871,-0.119062 0.03123,-0.264583 z m 38.074731,-0.04088 c -0.11696,-0.189256 -0.0726,-0.233643 0.11668,-0.116676 0.305,0.1885 0.40949,0.42214 0.18879,0.42214 -0.0642,0 -0.20163,-0.137459 -0.30547,-0.305464 z m 8.73125,0 c -0.11697,-0.189256 -0.0726,-0.233643 0.11668,-0.116676 0.168,0.103833 0.30546,0.241292 0.30546,0.305465 0,0.220699 -0.23364,0.11621 -0.42214,-0.188789 z m 20.90208,0 c -0.11696,-0.189256 -0.0726,-0.233643 0.11668,-0.116676 0.16801,0.103833 0.30546,0.241292 0.30546,0.305465 0,0.220699 -0.23364,0.11621 -0.42214,-0.188789 z M 67.195311,79.534586 c 0.08994,-0.145521 0.223052,-0.264583 0.295813,-0.264583 0.07276,0 0.05871,0.119062 -0.03123,0.264583 -0.08994,0.145521 -0.223053,0.264583 -0.295813,0.264583 -0.07276,0 -0.05871,-0.119062 0.03123,-0.264583 z m 30.559373,-0.629063 c 0,-0.05494 0.20836,-0.2633 0.463021,-0.463021 0.419645,-0.329107 0.429003,-0.319749 0.0999,0.0999 -0.345644,0.44073 -0.562917,0.580888 -0.562917,0.363125 z M 133.1751,78.542398 c -0.32911,-0.419645 -0.31975,-0.429003 0.0999,-0.0999 0.44073,0.345644 0.58089,0.562917 0.36313,0.562917 -0.0549,0 -0.2633,-0.208359 -0.46302,-0.463021 z m -43.75479,-0.06615 c 0.08994,-0.145521 0.223051,-0.264584 0.295812,-0.264584 0.07276,0 0.05871,0.119063 -0.03123,0.264584 -0.08994,0.14552 -0.223052,0.264583 -0.295812,0.264583 -0.07276,0 -0.05871,-0.119063 0.03123,-0.264583 z m 52.36223,-0.04088 c -0.11697,-0.189257 -0.0726,-0.233643 0.11668,-0.116676 0.168,0.103833 0.30546,0.241292 0.30546,0.305464 0,0.220699 -0.23364,0.11621 -0.42214,-0.188788 z M 68.782811,78.211669 c 0.08994,-0.145521 0.223052,-0.264583 0.295813,-0.264583 0.07276,0 0.05871,0.119062 -0.03123,0.264583 -0.08994,0.145521 -0.223053,0.264584 -0.295813,0.264584 -0.07276,0 -0.05871,-0.119063 0.03123,-0.264584 z m 30.691665,-0.79375 c 0.08994,-0.145521 0.223051,-0.264583 0.295812,-0.264583 0.07276,0 0.05871,0.119062 -0.03123,0.264583 -0.08994,0.145521 -0.223052,0.264584 -0.295812,0.264584 -0.07276,0 -0.05871,-0.119063 0.03123,-0.264584 z m 32.253904,-0.04088 c -0.11697,-0.189256 -0.0726,-0.233642 0.11667,-0.116675 0.16801,0.103833 0.30547,0.241292 0.30547,0.305464 0,0.220699 -0.23364,0.11621 -0.42214,-0.188789 z M 91.00781,77.153336 c 0.08994,-0.145521 0.223051,-0.264583 0.295812,-0.264583 0.07276,0 0.05871,0.119062 -0.03123,0.264583 -0.08994,0.145521 -0.223052,0.264583 -0.295812,0.264583 -0.07276,0 -0.05871,-0.119062 0.03123,-0.264583 z m 49.18723,-0.04088 c -0.11696,-0.189256 -0.0726,-0.233643 0.11668,-0.116676 0.305,0.1885 0.40949,0.42214 0.18879,0.42214 -0.0642,0 -0.20163,-0.137459 -0.30547,-0.305464 z M 70.370311,76.888753 c 0.08994,-0.145521 0.223052,-0.264584 0.295813,-0.264584 0.07276,0 0.05871,0.119063 -0.03123,0.264584 -0.08994,0.14552 -0.223053,0.264583 -0.295813,0.264583 -0.07276,0 -0.05871,-0.119063 0.03123,-0.264583 z m 30.691669,-0.79375 c 0.0899,-0.145521 0.22305,-0.264584 0.29581,-0.264584 0.0728,0 0.0587,0.119063 -0.0312,0.264584 -0.0899,0.14552 -0.22305,0.264583 -0.29581,0.264583 -0.0728,0 -0.0587,-0.119063 0.0312,-0.264583 z m 29.0789,-0.04088 c -0.11697,-0.189257 -0.0726,-0.233643 0.11667,-0.116676 0.16801,0.103833 0.30547,0.241292 0.30547,0.305464 0,0.2207 -0.23364,0.11621 -0.42214,-0.188788 z M 92.595309,75.830419 c 0.08994,-0.14552 0.223052,-0.264583 0.295813,-0.264583 0.07276,0 0.05871,0.119063 -0.03123,0.264583 -0.08994,0.145521 -0.223052,0.264584 -0.295812,0.264584 -0.07276,0 -0.05871,-0.119063 0.03123,-0.264584 z m 46.012231,-0.04088 c -0.11696,-0.189257 -0.0726,-0.233643 0.11668,-0.116676 0.168,0.103833 0.30546,0.241292 0.30546,0.305464 0,0.220699 -0.23364,0.11621 -0.42214,-0.188788 z M 71.95781,75.565836 c 0.08994,-0.145521 0.223053,-0.264583 0.295814,-0.264583 0.07276,0 0.05871,0.119062 -0.03123,0.264583 -0.08994,0.145521 -0.223053,0.264583 -0.295813,0.264583 -0.07276,0 -0.05871,-0.119062 0.03123,-0.264583 z m 30.69167,-0.79375 c 0.0899,-0.145521 0.22305,-0.264583 0.29581,-0.264583 0.0728,0 0.0587,0.119062 -0.0312,0.264583 -0.0899,0.145521 -0.22305,0.264583 -0.29581,0.264583 -0.0728,0 -0.0587,-0.119062 0.0312,-0.264583 z m 25.9039,-0.04088 c -0.11697,-0.189256 -0.0726,-0.233643 0.11667,-0.116676 0.305,0.1885 0.40949,0.42214 0.18879,0.42214 -0.0642,0 -0.20163,-0.137459 -0.30546,-0.305464 z M 94.182809,74.507503 c 0.08994,-0.145521 0.223052,-0.264584 0.295812,-0.264584 0.07276,0 0.05871,0.119063 -0.03123,0.264584 -0.08994,0.145521 -0.223052,0.264583 -0.295812,0.264583 -0.07276,0 -0.05871,-0.119062 0.03123,-0.264583 z m 42.837231,-0.04088 c -0.11696,-0.189256 -0.0726,-0.233643 0.11668,-0.116676 0.305,0.1885 0.40949,0.42214 0.18879,0.42214 -0.0642,0 -0.20163,-0.137459 -0.30547,-0.305464 z M 73.54531,74.242919 c 0.08994,-0.14552 0.223053,-0.264583 0.295814,-0.264583 0.07276,0 0.05871,0.119063 -0.03123,0.264583 -0.08994,0.145521 -0.223053,0.264584 -0.295813,0.264584 -0.07276,0 -0.05871,-0.119063 0.03123,-0.264584 z m 30.42708,-0.529166 c 0.0899,-0.145521 0.22305,-0.264584 0.29581,-0.264584 0.0728,0 0.0587,0.119063 -0.0312,0.264584 -0.0899,0.145521 -0.22306,0.264583 -0.29582,0.264583 -0.0728,0 -0.0587,-0.119062 0.0312,-0.264583 z m 23.25807,-0.04088 c -0.11697,-0.189256 -0.0726,-0.233643 0.11668,-0.116676 0.30499,0.1885 0.40948,0.42214 0.18878,0.42214 -0.0642,0 -0.20163,-0.137459 -0.30546,-0.305464 z M 95.770309,73.184586 c 0.08994,-0.145521 0.223052,-0.264583 0.295812,-0.264583 0.07276,0 0.05871,0.119062 -0.03123,0.264583 -0.08994,0.145521 -0.223052,0.264583 -0.295812,0.264583 -0.07276,0 -0.05871,-0.119062 0.03123,-0.264583 z m 39.662231,-0.04088 c -0.11696,-0.189256 -0.0726,-0.233643 0.11668,-0.116676 0.168,0.103833 0.30546,0.241292 0.30546,0.305465 0,0.220699 -0.23364,0.11621 -0.42214,-0.188789 z M 75.13281,72.920003 c 0.08994,-0.145521 0.223052,-0.264584 0.295812,-0.264584 0.07276,0 0.05871,0.119063 -0.03123,0.264584 -0.08994,0.145521 -0.223052,0.264583 -0.295812,0.264583 -0.07276,0 -0.05871,-0.119062 0.03123,-0.264583 z m 30.42708,-0.529167 c 0.0899,-0.145521 0.22305,-0.264583 0.29581,-0.264583 0.0728,0 0.0587,0.119062 -0.0312,0.264583 -0.0899,0.145521 -0.22306,0.264583 -0.29582,0.264583 -0.0728,0 -0.0587,-0.119062 0.0312,-0.264583 z m 20.08307,-0.04088 c -0.11697,-0.189256 -0.0726,-0.233643 0.11668,-0.116676 0.168,0.103834 0.30546,0.241293 0.30546,0.305465 0,0.220699 -0.23364,0.11621 -0.42214,-0.188789 z M 97.357809,71.86167 c 0.08994,-0.145521 0.223052,-0.264584 0.295812,-0.264584 0.07276,0 0.05871,0.119063 -0.03123,0.264584 -0.08994,0.14552 -0.223052,0.264583 -0.295813,0.264583 -0.07276,0 -0.05871,-0.119063 0.03123,-0.264583 z m 36.487231,-0.04088 c -0.11696,-0.189257 -0.0726,-0.233643 0.11668,-0.116676 0.168,0.103833 0.30546,0.241292 0.30546,0.305464 0,0.220699 -0.23364,0.11621 -0.42214,-0.188788 z M 76.72031,71.597086 c 0.08994,-0.145521 0.223052,-0.264583 0.295812,-0.264583 0.07276,0 0.05871,0.119062 -0.03123,0.264583 -0.08994,0.145521 -0.223052,0.264584 -0.295813,0.264584 -0.07276,0 -0.05871,-0.119063 0.03123,-0.264584 z m 30.42708,-0.529166 c 0.0899,-0.145521 0.22305,-0.264584 0.29581,-0.264584 0.0728,0 0.0587,0.119063 -0.0312,0.264584 -0.0899,0.14552 -0.22306,0.264583 -0.29582,0.264583 -0.0728,0 -0.0587,-0.119063 0.0312,-0.264583 z m 16.90807,-0.04088 c -0.11697,-0.189257 -0.0726,-0.233643 0.11668,-0.116676 0.168,0.103833 0.30546,0.241292 0.30546,0.305464 0,0.220699 -0.23364,0.11621 -0.42214,-0.188788 z M 98.945309,70.538753 c 0.08994,-0.145521 0.223052,-0.264583 0.295812,-0.264583 0.07276,0 0.05871,0.119062 -0.03123,0.264583 -0.08994,0.145521 -0.223051,0.264583 -0.295812,0.264583 -0.07276,0 -0.05871,-0.119062 0.03123,-0.264583 z m 33.312231,-0.04088 c -0.11696,-0.189256 -0.0726,-0.233643 0.11668,-0.116676 0.305,0.1885 0.40949,0.42214 0.18879,0.42214 -0.0642,0 -0.20163,-0.137459 -0.30547,-0.305464 z M 78.30781,70.27417 c 0.08994,-0.145521 0.223052,-0.264584 0.295812,-0.264584 0.07276,0 0.05871,0.119063 -0.03123,0.264584 -0.08994,0.14552 -0.223051,0.264583 -0.295812,0.264583 -0.07276,0 -0.05871,-0.119063 0.03123,-0.264583 z m 30.1625,-0.264584 c 0.0899,-0.145521 0.22305,-0.264583 0.29581,-0.264583 0.0728,0 0.0587,0.119062 -0.0312,0.264583 -0.0899,0.145521 -0.22305,0.264584 -0.29581,0.264584 -0.0728,0 -0.0587,-0.119063 0.0312,-0.264584 z m 14.26223,-0.04088 c -0.11696,-0.189257 -0.0726,-0.233643 0.11668,-0.116676 0.168,0.103833 0.30546,0.241292 0.30546,0.305464 0,0.220699 -0.23364,0.11621 -0.42214,-0.188788 z m -22.19973,-0.75287 c 0.0899,-0.14552 0.22305,-0.264583 0.29581,-0.264583 0.0728,0 0.0587,0.119063 -0.0312,0.264583 -0.0899,0.145521 -0.22305,0.264584 -0.29581,0.264584 -0.0728,0 -0.0587,-0.119063 0.0312,-0.264584 z m 30.13723,-0.04088 c -0.11696,-0.189257 -0.0726,-0.233643 0.11668,-0.116676 0.305,0.188499 0.40949,0.42214 0.18879,0.42214 -0.0642,0 -0.20163,-0.137459 -0.30547,-0.305464 z M 79.89531,68.951253 c 0.08994,-0.145521 0.223052,-0.264583 0.295812,-0.264583 0.07276,0 0.05871,0.119062 -0.03123,0.264583 -0.08994,0.145521 -0.223051,0.264583 -0.295812,0.264583 -0.07276,0 -0.05871,-0.119062 0.03123,-0.264583 z m 30.1625,-0.264583 c 0.0899,-0.145521 0.22305,-0.264584 0.29581,-0.264584 0.0728,0 0.0587,0.119063 -0.0312,0.264584 -0.0899,0.145521 -0.22305,0.264583 -0.29581,0.264583 -0.0728,0 -0.0587,-0.119062 0.0312,-0.264583 z m 11.08723,-0.04088 c -0.11696,-0.189257 -0.0726,-0.233643 0.11668,-0.116676 0.305,0.1885 0.40949,0.42214 0.18879,0.42214 -0.0642,0 -0.20163,-0.137459 -0.30547,-0.305464 z m -19.02473,-0.75287 c 0.0899,-0.145521 0.22305,-0.264584 0.29581,-0.264584 0.0728,0 0.0587,0.119063 -0.0312,0.264584 -0.0899,0.145521 -0.22305,0.264583 -0.29581,0.264583 -0.0728,0 -0.0587,-0.119062 0.0312,-0.264583 z m 26.96223,-0.04088 c -0.11696,-0.189256 -0.0726,-0.233643 0.11668,-0.116676 0.168,0.103833 0.30546,0.241292 0.30546,0.305464 0,0.2207 -0.23364,0.11621 -0.42214,-0.188788 z M 81.48281,67.628336 c 0.08994,-0.14552 0.223052,-0.264583 0.295812,-0.264583 0.07276,0 0.05871,0.119063 -0.03123,0.264583 -0.08994,0.145521 -0.223051,0.264584 -0.295812,0.264584 -0.07276,0 -0.05871,-0.119063 0.03123,-0.264584 z m 30.1625,-0.264583 c 0.0899,-0.145521 0.22305,-0.264583 0.29581,-0.264583 0.0728,0 0.0587,0.119062 -0.0312,0.264583 -0.0899,0.145521 -0.22305,0.264583 -0.29581,0.264583 -0.0728,0 -0.0587,-0.119062 0.0312,-0.264583 z m 7.91223,-0.04088 c -0.11696,-0.189256 -0.0726,-0.233643 0.11668,-0.116676 0.168,0.103833 0.30546,0.241292 0.30546,0.305464 0,0.2207 -0.23364,0.116211 -0.42214,-0.188788 z m -15.84973,-0.752869 c 0.0899,-0.145521 0.22305,-0.264583 0.29581,-0.264583 0.0728,0 0.0587,0.119062 -0.0312,0.264583 -0.0899,0.145521 -0.22305,0.264583 -0.29581,0.264583 -0.0728,0 -0.0587,-0.119062 0.0312,-0.264583 z m 23.78723,-0.04088 c -0.11696,-0.189256 -0.0726,-0.233643 0.11668,-0.116676 0.168,0.103833 0.30546,0.241292 0.30546,0.305464 0,0.2207 -0.23364,0.116211 -0.42214,-0.188788 z M 83.07031,66.30542 c 0.08994,-0.145521 0.223052,-0.264584 0.295812,-0.264584 0.07276,0 0.05871,0.119063 -0.03123,0.264584 -0.08994,0.145521 -0.223051,0.264583 -0.295812,0.264583 -0.07276,0 -0.05871,-0.119062 0.03123,-0.264583 z m 29.76562,0.164687 c 0,-0.05494 0.20836,-0.2633 0.46302,-0.463021 0.41965,-0.329107 0.42901,-0.319749 0.0999,0.0999 -0.34564,0.44073 -0.56292,0.580888 -0.56292,0.363125 z m 5.25792,-0.363125 c -0.32911,-0.419645 -0.31975,-0.429003 0.0999,-0.0999 0.44073,0.345644 0.58088,0.562917 0.36312,0.562917 -0.0549,0 -0.2633,-0.208359 -0.46302,-0.463021 z m -12.79854,-0.859895 c 0.0899,-0.145521 0.22305,-0.264584 0.29581,-0.264584 0.0728,0 0.0587,0.119063 -0.0312,0.264584 -0.0899,0.14552 -0.22305,0.264583 -0.29581,0.264583 -0.0728,0 -0.0587,-0.119063 0.0312,-0.264583 z m 20.61223,-0.04088 c -0.11696,-0.189257 -0.0726,-0.233643 0.11668,-0.116676 0.305,0.1885 0.40949,0.42214 0.18879,0.42214 -0.0642,0 -0.20163,-0.137459 -0.30547,-0.305464 z M 84.65781,64.982503 c 0.08994,-0.145521 0.223052,-0.264583 0.295812,-0.264583 0.07276,0 0.05871,0.119062 -0.03123,0.264583 -0.08994,0.145521 -0.223051,0.264584 -0.295812,0.264584 -0.07276,0 -0.05871,-0.119063 0.03123,-0.264584 z m 29.89792,0 c 0.0899,-0.145521 0.22305,-0.264583 0.29581,-0.264583 0.0728,0 0.0587,0.119062 -0.0312,0.264583 -0.0899,0.145521 -0.22305,0.264584 -0.29581,0.264584 -0.0728,0 -0.0587,-0.119063 0.0312,-0.264584 z m 2.0914,-0.04088 c -0.11697,-0.189256 -0.0726,-0.233643 0.11667,-0.116676 0.16801,0.103834 0.30547,0.241293 0.30547,0.305465 0,0.220699 -0.23364,0.11621 -0.42214,-0.188789 z m -9.76432,-1.017452 c 0.0899,-0.145521 0.22305,-0.264583 0.29581,-0.264583 0.0728,0 0.0587,0.119062 -0.0312,0.264583 -0.0899,0.145521 -0.22305,0.264583 -0.29581,0.264583 -0.0728,0 -0.0587,-0.119062 0.0312,-0.264583 z m 17.43723,-0.04088 c -0.11696,-0.189256 -0.0726,-0.233643 0.11668,-0.116676 0.168,0.103833 0.30546,0.241292 0.30546,0.305464 0,0.2207 -0.23364,0.116211 -0.42214,-0.188788 z M 86.24531,63.659587 c 0.08994,-0.145521 0.223051,-0.264584 0.295812,-0.264584 0.07276,0 0.05871,0.119063 -0.03123,0.264584 -0.08994,0.14552 -0.223052,0.264583 -0.295812,0.264583 -0.07276,0 -0.05871,-0.119063 0.03123,-0.264583 z m 22.225,-1.058334 c 0.0899,-0.145521 0.22305,-0.264583 0.29581,-0.264583 0.0728,0 0.0587,0.119062 -0.0312,0.264583 -0.0899,0.145521 -0.22305,0.264584 -0.29581,0.264584 -0.0728,0 -0.0587,-0.119063 0.0312,-0.264584 z m 14.26223,-0.04088 c -0.11696,-0.189257 -0.0726,-0.233643 0.11668,-0.116676 0.168,0.103833 0.30546,0.241292 0.30546,0.305464 0,0.220699 -0.23364,0.11621 -0.42214,-0.188788 z M 87.83281,62.33667 c 0.08994,-0.145521 0.223051,-0.264583 0.295812,-0.264583 0.07276,0 0.05871,0.119062 -0.03123,0.264583 -0.08994,0.145521 -0.223052,0.264583 -0.295812,0.264583 -0.07276,0 -0.05871,-0.119062 0.03123,-0.264583 z m 22.225,-1.058333 c 0.0899,-0.145521 0.22305,-0.264584 0.29581,-0.264584 0.0728,0 0.0587,0.119063 -0.0312,0.264584 -0.0899,0.145521 -0.22305,0.264583 -0.29581,0.264583 -0.0728,0 -0.0587,-0.119062 0.0312,-0.264583 z m 11.08723,-0.04088 c -0.11696,-0.189256 -0.0726,-0.233643 0.11668,-0.116676 0.168,0.103833 0.30546,0.241292 0.30546,0.305464 0,0.2207 -0.23364,0.11621 -0.42214,-0.188788 z m 20.90209,0 c -0.11697,-0.189256 -0.0726,-0.233643 0.11667,-0.116676 0.16801,0.103833 0.30547,0.241292 0.30547,0.305464 0,0.2207 -0.23364,0.11621 -0.42214,-0.188788 z M 89.42031,61.013753 c 0.08994,-0.14552 0.223051,-0.264583 0.295812,-0.264583 0.07276,0 0.05871,0.119063 -0.03123,0.264583 -0.08994,0.145521 -0.223052,0.264584 -0.295812,0.264584 -0.07276,0 -0.05871,-0.119063 0.03123,-0.264584 z m 51.16312,-0.992187 c -0.32911,-0.419645 -0.31975,-0.429003 0.0999,-0.0999 0.44073,0.345644 0.58089,0.562917 0.36312,0.562917 -0.0549,0 -0.2633,-0.20836 -0.46302,-0.463021 z m -28.93812,-0.06615 c 0.0899,-0.145521 0.22305,-0.264583 0.29581,-0.264583 0.0728,0 0.0587,0.119062 -0.0312,0.264583 -0.0899,0.145521 -0.22305,0.264583 -0.29581,0.264583 -0.0728,0 -0.0587,-0.119062 0.0312,-0.264583 z m 7.91223,-0.04088 c -0.11696,-0.189256 -0.0726,-0.233643 0.11668,-0.116676 0.305,0.1885 0.40949,0.42214 0.18879,0.42214 -0.0642,0 -0.20163,-0.137459 -0.30547,-0.305464 z M 91.00781,59.690837 c 0.08994,-0.145521 0.223051,-0.264584 0.295812,-0.264584 0.07276,0 0.05871,0.119063 -0.03123,0.264584 -0.08994,0.145521 -0.223052,0.264583 -0.295812,0.264583 -0.07276,0 -0.05871,-0.119062 0.03123,-0.264583 z m 47.98812,-0.992188 c -0.32911,-0.419645 -0.31975,-0.429003 0.0999,-0.0999 0.25466,0.199721 0.46302,0.40808 0.46302,0.463021 0,0.217763 -0.21727,0.0776 -0.56292,-0.363125 z m -25.76312,-0.06615 c 0.0899,-0.145521 0.22305,-0.264584 0.29581,-0.264584 0.0728,0 0.0587,0.119063 -0.0312,0.264584 -0.0899,0.14552 -0.22305,0.264583 -0.29581,0.264583 -0.0728,0 -0.0587,-0.119063 0.0312,-0.264583 z m 4.73723,-0.04088 c -0.11696,-0.189257 -0.0726,-0.233643 0.11668,-0.116676 0.305,0.1885 0.40949,0.42214 0.18879,0.42214 -0.0642,0 -0.20163,-0.137459 -0.30547,-0.305464 z M 92.595309,58.36792 c 0.08994,-0.145521 0.223052,-0.264583 0.295813,-0.264583 0.07276,0 0.05871,0.119062 -0.03123,0.264583 -0.08994,0.145521 -0.223052,0.264584 -0.295812,0.264584 -0.07276,0 -0.05871,-0.119063 0.03123,-0.264584 z m 22.225001,-1.058333 c 0.0899,-0.145521 0.22305,-0.264583 0.29581,-0.264583 0.0728,0 0.0587,0.119062 -0.0312,0.264583 -0.0899,0.145521 -0.22305,0.264583 -0.29581,0.264583 -0.0728,0 -0.0587,-0.119062 0.0312,-0.264583 z m 1.56223,-0.04088 c -0.11696,-0.189256 -0.0726,-0.233643 0.11668,-0.116676 0.305,0.1885 0.40949,0.42214 0.18879,0.42214 -0.0642,0 -0.20163,-0.137459 -0.30547,-0.305464 z m 20.90209,0 c -0.11697,-0.189256 -0.0726,-0.233643 0.11667,-0.116676 0.305,0.1885 0.40949,0.42214 0.18879,0.42214 -0.0642,0 -0.20163,-0.137459 -0.30546,-0.305464 z M 94.182809,57.045004 c 0.08994,-0.145521 0.223052,-0.264584 0.295812,-0.264584 0.07276,0 0.05871,0.119063 -0.03123,0.264584 -0.08994,0.14552 -0.223052,0.264583 -0.295812,0.264583 -0.07276,0 -0.05871,-0.119063 0.03123,-0.264583 z M 135.69713,55.94579 c -0.11697,-0.189257 -0.0726,-0.233643 0.11667,-0.116676 0.16801,0.103833 0.30547,0.241292 0.30547,0.305464 0,0.220699 -0.23364,0.11621 -0.42214,-0.188788 z M 95.770309,55.722087 c 0.08994,-0.145521 0.223052,-0.264583 0.295812,-0.264583 0.07276,0 0.05871,0.119062 -0.03123,0.264583 -0.08994,0.145521 -0.223052,0.264583 -0.295812,0.264583 -0.07276,0 -0.05871,-0.119062 0.03123,-0.264583 z m 38.339321,-1.099214 c -0.11697,-0.189256 -0.0726,-0.233643 0.11667,-0.116677 0.305,0.1885 0.40949,0.422141 0.18879,0.422141 -0.0642,0 -0.20163,-0.137459 -0.30546,-0.305464 z M 97.357809,54.39917 c 0.08994,-0.14552 0.223052,-0.264583 0.295812,-0.264583 0.07276,0 0.05871,0.119063 -0.03123,0.264583 -0.08994,0.145521 -0.223052,0.264584 -0.295813,0.264584 -0.07276,0 -0.05871,-0.119063 0.03123,-0.264584 z m 35.164321,-1.099213 c -0.11697,-0.189257 -0.0726,-0.233644 0.11667,-0.116677 0.305,0.1885 0.40949,0.42214 0.18879,0.42214 -0.0642,0 -0.20163,-0.137458 -0.30546,-0.305463 z M 98.945309,53.076254 c 0.08994,-0.145521 0.223052,-0.264584 0.295812,-0.264584 0.07276,0 0.05871,0.119063 -0.03123,0.264584 -0.08994,0.145521 -0.223051,0.264583 -0.295812,0.264583 -0.07276,0 -0.05871,-0.119062 0.03123,-0.264583 z m 1.190621,-0.893645 c 0,-0.05494 0.20836,-0.263302 0.46302,-0.463021 0.41965,-0.329107 0.42901,-0.319749 0.0999,0.09989 -0.34564,0.440729 -0.56292,0.580887 -0.56292,0.363126 z m 30.7987,-0.205569 c -0.11697,-0.189256 -0.0726,-0.233643 0.11667,-0.116677 0.305,0.1885 0.40949,0.422141 0.18879,0.422141 -0.0642,0 -0.20163,-0.137459 -0.30546,-0.305464 z m -29.2112,-1.117348 c 0,-0.05494 0.20836,-0.263301 0.46302,-0.46302 0.41965,-0.329108 0.42901,-0.31975 0.0999,0.09989 -0.34564,0.44073 -0.56292,0.580888 -0.56292,0.363126 z m 27.6237,-0.205568 c -0.11697,-0.189257 -0.0726,-0.233644 0.11667,-0.116677 0.305,0.1885 0.40949,0.42214 0.18879,0.42214 -0.0642,0 -0.20163,-0.137458 -0.30546,-0.305463 z m -26.0362,-1.117348 c 0,-0.05494 0.20836,-0.263302 0.46302,-0.463021 0.41965,-0.329107 0.42901,-0.319749 0.0999,0.0999 -0.34564,0.440729 -0.56292,0.580887 -0.56292,0.363126 z m 24.4487,-0.205569 c -0.11697,-0.189256 -0.0726,-0.233644 0.11667,-0.116677 0.305,0.1885 0.40949,0.422141 0.18879,0.422141 -0.0642,0 -0.20163,-0.137459 -0.30546,-0.305464 z m -22.8612,-1.117348 c 0,-0.05494 0.20836,-0.263301 0.46302,-0.463021 0.41965,-0.329107 0.42901,-0.319749 0.0999,0.09989 -0.34564,0.440729 -0.56292,0.580887 -0.56292,0.363126 z m 21.13292,-0.363126 c -0.32911,-0.419644 -0.31975,-0.429002 0.0999,-0.09989 0.44072,0.345644 0.58088,0.562916 0.36312,0.562916 -0.0549,0 -0.2633,-0.208359 -0.46302,-0.463021 z m -19.54542,-0.95979 c 0,-0.05494 0.20836,-0.263302 0.46302,-0.463021 0.41965,-0.329108 0.42901,-0.319749 0.0999,0.09989 -0.34564,0.440729 -0.56292,0.580887 -0.56292,0.363126 z m 17.95792,-0.363126 c -0.32911,-0.419644 -0.31975,-0.429003 0.0999,-0.09989 0.44073,0.345643 0.58088,0.562915 0.36312,0.562915 -0.0549,0 -0.2633,-0.208359 -0.46302,-0.46302 z m -16.37042,-0.959791 c 0,-0.05494 0.20836,-0.263302 0.46302,-0.463021 0.41965,-0.329107 0.42901,-0.319749 0.0999,0.0999 -0.34564,0.440729 -0.56292,0.580887 -0.56292,0.363126 z M 122.85635,45.2049 c -0.32911,-0.419644 -0.31975,-0.429002 0.0999,-0.0999 0.44073,0.345644 0.58088,0.562916 0.36312,0.562916 -0.0549,0 -0.2633,-0.20836 -0.46302,-0.463021 z m 41.04416,-0.330729 c 0,-0.194028 0.0794,-0.273403 0.17639,-0.176389 0.097,0.09701 0.097,0.255764 0,0.352778 -0.097,0.09701 -0.17639,0.01764 -0.17639,-0.176389 z m -20.90208,-1.158228 c 0,-0.05494 0.20836,-0.263302 0.46302,-0.463021 0.41965,-0.329108 0.42901,-0.319749 0.0999,0.0999 -0.34564,0.440729 -0.56292,0.580887 -0.56292,0.363126 z m -29.80972,-1.134828 c 0.097,-0.09701 0.25577,-0.09701 0.35278,0 0.097,0.09701 0.0176,0.176389 -0.17639,0.176389 -0.19403,0 -0.2734,-0.07937 -0.17639,-0.176389 z m 4.7625,0 c 0.097,-0.09701 0.25576,-0.09701 0.35278,0 0.097,0.09701 0.0176,0.176389 -0.17639,0.176389 -0.19403,0 -0.2734,-0.07937 -0.17639,-0.176389 z m 31.21559,-0.02167 c 2.44671,-0.04371 6.37578,-0.04362 8.73125,1.82e-4 2.35547,0.04381 0.35361,0.07957 -4.44858,0.07947 -4.80218,-1.01e-4 -6.72939,-0.03594 -4.28267,-0.07965 z M 115.15104,42.3062 c 0.32742,-0.06306 0.8632,-0.06306 1.19062,0 0.32742,0.06306 0.0595,0.114662 -0.59531,0.114662 -0.65484,0 -0.92273,-0.0516 -0.59531,-0.114662 z"
         id="path851" />
      <path
         style="fill:#ffffff;fill-opacity:1;stroke-width:0.264583"
         d="m 70.634894,149.54125 c -1.040014,-0.46092 -2.079464,-1.45445 -2.686386,-2.56771 -0.461742,-0.84696 -0.49227,-2.04579 -0.555095,-21.79833 -0.03656,-11.49615 0.02297,-21.02696 0.132291,-21.17958 0.321008,-0.44814 47.996976,-39.674585 48.220646,-39.674585 0.22367,0 47.89964,39.226445 48.22065,39.674585 0.10932,0.15262 0.16885,9.68343 0.13229,21.17958 l -0.0665,20.90208 -0.64199,1.12084 c -0.3531,0.61647 -1.11675,1.44991 -1.697,1.85209 l -1.05501,0.73124 -17.02022,0.0718 -17.02022,0.0718 -0.0682,-16.0791 -0.0682,-16.07909 h -10.71562 -10.71562 l -0.0682,16.07343 -0.0682,16.07344 -16.732852,-0.0103 c -13.32826,-0.008 -16.894346,-0.0819 -17.526594,-0.36215 z M 54.715261,105.26531 c -1.126789,-0.62848 -6.115461,-6.599278 -6.420934,-7.68502 -0.155736,-0.553532 -0.148848,-1.148794 0.01886,-1.629883 0.369329,-1.059458 60.788083,-51.397764 63.051073,-52.531444 1.46013,-0.731477 1.80316,-0.79375 4.37233,-0.79375 2.44809,0 2.96525,0.08348 4.24309,0.684941 0.95448,0.449255 5.06831,3.704022 11.95543,9.458854 5.77512,4.825652 10.56738,8.773912 10.64948,8.773912 0.0821,0 0.14926,-3.860395 0.14926,-8.578658 v -8.578657 l 0.68498,-0.814051 0.68498,-0.81405 h 9.17802 c 10.23397,0 10.10259,-0.02222 10.60693,1.793738 0.17485,0.629599 0.27536,7.135102 0.27885,18.050011 l 0.005,17.065624 9.37209,7.7656 c 6.53234,5.412616 9.45185,7.994396 9.63532,8.520705 0.44584,1.278943 -0.1001,2.347733 -2.89836,5.674108 -2.87286,3.41505 -3.90369,4.20215 -5.17135,3.94862 -0.52913,-0.10583 -10.34246,-8.120532 -29.98453,-24.488847 -16.06679,-13.388937 -29.35117,-24.27275 -29.53862,-24.20082 -0.18735,0.07189 -13.23586,10.879605 -28.996686,24.017133 -15.760823,13.137527 -29.068171,24.097584 -29.571883,24.355684 -1.132982,0.58054 -1.273504,0.58092 -2.303794,0.006 z"
         id="path849" />
    </g>
  </g>
</svg>
