<?xml version="1.0" encoding="UTF-8" standalone="no"?>
<!-- Created with Inkscape (http://www.inkscape.org/) -->

<svg
   width="32mm"
   height="32mm"
   viewBox="0 0 32 32"
   version="1.1"
   id="svg3857"
   inkscape:version="1.1.2 (0a00cf5339, 2022-02-04)"
   sodipodi:docname="btn-link.svg"
   xmlns:inkscape="http://www.inkscape.org/namespaces/inkscape"
   xmlns:sodipodi="http://sodipodi.sourceforge.net/DTD/sodipodi-0.dtd"
   xmlns="http://www.w3.org/2000/svg"
   xmlns:svg="http://www.w3.org/2000/svg">
  <sodipodi:namedview
     id="namedview3859"
     pagecolor="#ffffff"
     bordercolor="#666666"
     borderopacity="1.0"
     inkscape:pageshadow="2"
     inkscape:pageopacity="0.0"
     inkscape:pagecheckerboard="0"
     inkscape:document-units="mm"
     showgrid="false"
     inkscape:zoom="2.2093556"
     inkscape:cx="64.498445"
     inkscape:cy="-15.389103"
     inkscape:window-width="1920"
     inkscape:window-height="1001"
     inkscape:window-x="0"
     inkscape:window-y="0"
     inkscape:window-maximized="1"
     inkscape:current-layer="layer1" />
  <defs
     id="defs3854" />
  <g
     inkscape:label="Capa 1"
     inkscape:groupmode="layer"
     id="layer1">
    <path
       id="path1384"
       style="fill:#000000;stroke-width:0.159385"
       d="M 16.18799,5.2180614e-4 C 13.67057,-0.01695119 11.172187,0.57143811 8.7770725,1.7564869 4.4835485,3.8808178 1.5695735,7.5585393 0.3450295,12.398731 c -0.459964,1.818121 -0.459964,5.355602 0,7.173722 0.684989,2.707472 1.766203,4.820611 3.524849,6.887951 2.399885,2.821157 6.4858075,4.977334 10.2407185,5.404321 1.556806,0.17707 2.092598,0.178816 3.578592,0.01292 6.732085,-0.751552 12.092652,-5.310341 13.906645,-11.827185 0.372327,-1.337663 0.404109,-1.657059 0.404109,-4.064868 0,-2.407815 -0.03176,-2.727204 -0.404109,-4.064868 C 30.034033,6.3098764 25.66757,1.9646508 20.147437,0.52762141 18.83031,0.18473631 17.506638,0.00967401 16.18799,5.2180614e-4 Z M 21.235744,4.569235 a 6.1954512,6.1954512 0 0 1 4.380611,10.577132 l -2.832902,2.832902 c 0.05575,-0.892069 -0.03331,-1.79043 -0.264583,-2.657719 l 1.637626,-1.635559 A 4.1322476,4.1322476 0 1 0 18.312408,7.8424203 l -3.772379,3.7744467 a 4.129951,4.129951 0 0 0 1.850016,6.909655 l -1.600419,1.602487 a 6.1949263,6.1949263 0 0 1 -1.709457,-9.969934 l 3.774447,-3.774447 a 6.1954512,6.1954512 0 0 1 4.381128,-1.815393 z m -4.025594,7.299813 a 6.1949263,6.1949263 0 0 1 1.709456,9.969417 l -3.774446,3.77703 A 6.1954851,6.1954851 0 1 1 6.3834205,16.853757 l 2.832902,-2.832902 a 8.2970716,8.2970716 0 0 0 0.264583,2.655651 l -1.637626,1.635043 a 4.1322476,4.1322476 0 1 0 5.8435715,5.844087 l 3.772896,-3.774963 a 4.129951,4.129951 0 0 0 -1.777669,-6.890535 2.0691055,2.0691055 0 0 1 0.31781,-0.410828 z" />
  </g>
</svg>
