<?xml version="1.0" encoding="UTF-8" standalone="no"?>
<!-- Created with Inkscape (http://www.inkscape.org/) -->

<svg
   width="32mm"
   height="32mm"
   viewBox="0 0 32 32"
   version="1.1"
   id="svg5"
   inkscape:version="1.1.2 (0a00cf5339, 2022-02-04)"
   sodipodi:docname="btn-folder-attach.svg"
   xmlns:inkscape="http://www.inkscape.org/namespaces/inkscape"
   xmlns:sodipodi="http://sodipodi.sourceforge.net/DTD/sodipodi-0.dtd"
   xmlns="http://www.w3.org/2000/svg"
   xmlns:svg="http://www.w3.org/2000/svg">
  <sodipodi:namedview
     id="namedview7"
     pagecolor="#ffffff"
     bordercolor="#666666"
     borderopacity="1.0"
     inkscape:pageshadow="2"
     inkscape:pageopacity="0.0"
     inkscape:pagecheckerboard="0"
     inkscape:document-units="mm"
     showgrid="false"
     inkscape:zoom="1.9970154"
     inkscape:cx="93.89011"
     inkscape:cy="83.624791"
     inkscape:window-width="1920"
     inkscape:window-height="1001"
     inkscape:window-x="0"
     inkscape:window-y="0"
     inkscape:window-maximized="1"
     inkscape:current-layer="g5911" />
  <defs
     id="defs2" />
  <g
     inkscape:label="Capa 1"
     inkscape:groupmode="layer"
     id="layer1">
    <g
       id="g2561"
       transform="matrix(0.24314156,0,0,0.23738281,68.69551,7.7684852)"
       style="stroke-width:4.16242">
      <g
         id="g5911"
         transform="matrix(1,0,0,1.0333474,-5.8606105e-7,-3.4040375)"
         style="stroke-width:4.09471">
        <g
           id="g6077">
          <rect
             style="fill:#dee4e8;stroke-width:4.50953"
             id="rect5014"
             width="99.484039"
             height="79.603333"
             x="-266.46973"
             y="-8.3939981"
             ry="0" />
          <path
             style="fill:#fbe24c;stroke-width:4.09471"
             d="m -282.5307,53.86424 c 0.0824,-37.444079 0.10472,-38.959129 0.59918,-40.647749 1.1564,-3.94915 4.71968,-7.09251 8.94491,-7.89077 1.07424,-0.20296 5.08272,-0.27573 12.2843,-0.22303 l 10.68976,0.0782 5.92248,7.7916 c 3.25737,4.28539 6.13652,7.94656 6.39813,8.13594 0.3796,0.27481 4.18361,0.34433 18.84062,0.34433 l 59.13614,0.40212 c 2.88042,0.73058 5.19469,2.39953 6.8613,4.94805 1.9036,2.91092 1.82103,1.38128 1.91056,35.395656 -0.0608,12.280595 0.0209,12.100001 0.0209,12.100001 l -65.81824,-0.06146 -65.74576,0.04956 c 0,0 -0.0586,-13.631239 -0.0443,-20.422473 z"
             id="path2571"
             sodipodi:nodetypes="cssscscccscccccc" />
          <path
             style="fill:#0a85f4;stroke-width:4.09471"
             d="m -195.72581,44.46526 c -2.14315,-0.521859 -3.86328,-1.51089 -5.5721,-3.203805 -0.88185,-0.873638 -1.87508,-2.154687 -2.20718,-2.846773 -1.25951,-2.624802 -1.34236,-3.448913 -1.3457,-13.386048 -0.003,-8.045336 0.0563,-9.477931 0.4219,-10.248434 1.19017,-2.508094 5.0486,-2.625153 6.63819,-0.201393 0.4312,0.657489 0.49019,1.655365 0.60969,10.312659 0.12701,9.202192 0.15438,9.614521 0.68578,10.331063 1.92803,2.599732 5.48769,2.598084 7.20918,-0.0033 l 0.70399,-1.063839 v -24.096407 -24.09637 l -0.68641,-1.455209 c -1.4009,-2.969915 -4.00329,-4.749922 -7.25109,-4.959667 -3.31955,-0.214378 -6.28853,1.457164 -7.93735,4.468752 -0.69377,1.267165 -0.79072,1.738598 -0.91713,4.45966 l -0.14135,3.0427081 -3.77031,0.07341 -3.77031,0.07341 V -11.07739 c 0,-6.909107 3.22792,-12.509803 8.79007,-15.251452 3.09301,-1.52458 6.98929,-2.389597 8.63628,-1.91735 0.5292,0.15174 1.61703,0.409065 2.4174,0.571832 5.26603,1.070933 10.33314,6.061295 11.75662,11.578564 0.37784,1.464482 0.41675,4.422619 0.35326,26.855209 l -0.0713,25.20944 -0.85065,1.795886 c -1.00297,2.117455 -3.23127,4.56847 -5.05649,5.561877 -2.58475,1.4068 -5.80294,1.830676 -8.64495,1.138642 z"
             id="path2563" />
          <path
             style="fill:#fbb800;stroke-width:4.09471"
             d="m -273.91658,101.72001 c -3.24643,-0.87093 -6.08659,-3.199044 -7.58531,-6.21777 l -0.87219,-1.756778 -0.0795,-9.723437 -0.0794,-9.723437 h 65.80528 65.80529 l -0.0795,9.723437 -0.0795,9.723437 -0.89335,1.800487 c -1.52619,3.07589 -4.58538,5.508751 -7.86342,6.253471 -1.84572,0.41931 -112.50645,0.34228 -114.07837,-0.0794 z"
             id="path4724"
             sodipodi:nodetypes="sscccccccssss" />
        </g>
      </g>
    </g>
  </g>
</svg>
