<?xml version="1.0" encoding="UTF-8" standalone="no"?>
<!-- Created with Inkscape (http://www.inkscape.org/) -->

<svg
   width="32mm"
   height="32mm"
   viewBox="0 0 32 32"
   version="1.1"
   id="svg1437"
   inkscape:version="1.1.2 (0a00cf5339, 2022-02-04)"
   sodipodi:docname="btn-users.svg"
   xmlns:inkscape="http://www.inkscape.org/namespaces/inkscape"
   xmlns:sodipodi="http://sodipodi.sourceforge.net/DTD/sodipodi-0.dtd"
   xmlns="http://www.w3.org/2000/svg"
   xmlns:svg="http://www.w3.org/2000/svg">
  <sodipodi:namedview
     id="namedview1439"
     pagecolor="#ffffff"
     bordercolor="#666666"
     borderopacity="1.0"
     inkscape:pageshadow="2"
     inkscape:pageopacity="0.0"
     inkscape:pagecheckerboard="0"
     inkscape:document-units="mm"
     showgrid="false"
     inkscape:zoom="4.6910194"
     inkscape:cx="66.616651"
     inkscape:cy="69.707664"
     inkscape:window-width="1920"
     inkscape:window-height="1001"
     inkscape:window-x="0"
     inkscape:window-y="0"
     inkscape:window-maximized="1"
     inkscape:current-layer="layer1" />
  <defs
     id="defs1434" />
  <g
     inkscape:label="Capa 1"
     inkscape:groupmode="layer"
     id="layer1">
    <path
       style="fill:#000000;stroke-width:0.592395"
       d="m 9.761199,24.542326 0.02696,-7.457668 0.209534,-0.764889 c 0.574821,-2.09838 1.681347,-3.635237 3.303234,-4.587878 0.978316,-0.574613 1.615961,-0.747356 2.748536,-0.744593 2.797312,0.0069 5.1799,2.253662 6.00227,5.660279 0.14236,0.589757 0.16167,1.393858 0.19218,8.004021 L 22.277813,32 H 16.006025 9.734249 Z m -5.696482,-0.71024 c 5.02e-4,-5.713657 0.01112,-5.826213 0.647633,-7.028142 0.736873,-1.391495 1.725164,-2.157367 3.099695,-2.402117 0.485473,-0.08645 1.513437,0.01151 1.632169,0.155379 0.02132,0.02586 -0.116012,0.580516 -0.305175,1.232597 l -0.343926,1.185598 -0.02681,5.982517 -0.02681,5.982524 H 6.402767 4.064043 l 5.03e-4,-5.108356 z m 19.169986,-0.710259 c -0.0409,-6.287562 -0.0456,-6.353027 -0.56082,-7.837442 -0.12442,-0.358442 -0.22622,-0.672717 -0.22622,-0.69842 0,-0.114613 1.18661,-0.281846 1.58554,-0.223456 1.70774,0.249997 3.05483,1.541758 3.66504,3.514507 0.1872,0.605184 0.19546,0.818941 0.22593,5.84578 l 0.0316,5.217646 h -2.34164 -2.34164 z m -23.20765491,-0.546344 0.02681,-3.851773 0.239753,-0.550736 c 0.592967,-1.362107 1.89413091,-2.199149 3.05030791,-1.962292 0.295358,0.06053 0.365014,0.115501 0.325413,0.256936 -0.02773,0.09899 -0.172413,0.597929 -0.321567,1.108756 l -0.271188,0.928793 -0.002,3.961045 -0.002,3.961022 H 1.5363131 4.70875e-5 Z m 28.90895491,0.05245 c 0,-3.483462 -0.0152,-3.865929 -0.1831,-4.600506 -0.1007,-0.440659 -0.26574,-0.997617 -0.36675,-1.237679 -0.101,-0.24008 -0.15712,-0.468617 -0.1247,-0.507867 0.0324,-0.03927 0.36981,-0.06862 0.74975,-0.06526 1.08626,0.0095 1.93407,0.561389 2.48669,1.61852 0.46736,0.894032 0.50206,1.245748 0.50206,5.089233 v 3.502875 h -1.53197 -1.53198 z M 2.585161,14.821671 C 1.3766301,14.512446 0.78154209,12.90256 1.4015651,11.619694 1.967346,10.449074 3.328583,10.202516 4.186263,11.11533 c 0.668194,0.711145 0.702495,2.238895 0.06987,3.112209 -0.348502,0.481097 -1.086793,0.743606 -1.670974,0.594132 z m 25.674982,-0.131895 c -0.35545,-0.192378 -0.72263,-0.675809 -0.89638,-1.180175 -0.55775,-1.618995 0.69818,-3.326654 2.11818,-2.880023 0.76836,0.241676 1.34254,1.133096 1.34254,2.084306 0,0.813542 -0.50922,1.741221 -1.10583,2.014552 -0.3479,0.159373 -1.13095,0.13862 -1.45851,-0.03866 z M 7.872973,12.97942 C 6.991699,12.772441 6.351967,12.174822 5.948867,11.18196 5.684198,10.530077 5.665915,10.413835 5.704578,9.6287572 c 0.04792,-0.973507 0.236627,-1.507965 0.752223,-2.130693 0.709336,-0.856756 1.799697,-1.17427 2.736643,-0.796901 0.660892,0.26616 1.387825,1.103069 1.624574,1.870321 0.282312,0.91492 0.25146,1.8152998 -0.09065,2.6454358 -0.313047,0.759607 -0.652386,1.151364 -1.301452,1.502457 -0.547169,0.295956 -1.045014,0.379325 -1.552947,0.260043 z m 15.28845,0 c -1.27144,-0.238897 -2.19398,-1.594773 -2.18759,-3.2151808 0.004,-0.953069 0.2277,-1.608947 0.77662,-2.274544 1.37278,-1.664544 3.6967,-1.032032 4.39003,1.194875 0.71864,2.3081718 -0.92684,4.6804398 -2.97906,4.2948498 z M 14.868934,9.4302972 c -1.891926,-0.706609 -3.086679,-2.974723 -2.800124,-5.315749 0.252911,-2.066233 1.572578,-3.69290601 3.284357,-4.04843801 1.934961,-0.401887 3.851717,1.06526401 4.444716,3.40217901 0.15833,0.623912 0.17542,1.90025 0.034,2.537185 -0.359967,1.620951 -1.421066,2.939253 -2.763214,3.433029 -0.542962,0.199758 -1.653994,0.195616 -2.19971,-0.0082 z"
       id="path56"
       inkscape:connector-curvature="0"
       sodipodi:nodetypes="ccccccsccccccccccccccccccsccsccccccccccccccccsccsccscccsccccccccscccscccccccssccsscccscccc"
       inkscape:export-xdpi="96"
       inkscape:export-ydpi="96" />
  </g>
</svg>
