<?xml version="1.0" encoding="UTF-8" standalone="no"?>
<!-- Created with Inkscape (http://www.inkscape.org/) -->

<svg
   width="32mm"
   height="32mm"
   viewBox="0 0 32 32"
   version="1.1"
   id="svg5"
   inkscape:version="1.2.2 (b0a8486541, 2022-12-01)"
   sodipodi:docname="btn-file-prev.svg"
   xml:space="preserve"
   xmlns:inkscape="http://www.inkscape.org/namespaces/inkscape"
   xmlns:sodipodi="http://sodipodi.sourceforge.net/DTD/sodipodi-0.dtd"
   xmlns="http://www.w3.org/2000/svg"
   xmlns:svg="http://www.w3.org/2000/svg"><sodipodi:namedview
     id="namedview7"
     pagecolor="#ffffff"
     bordercolor="#666666"
     borderopacity="1.0"
     inkscape:pageshadow="2"
     inkscape:pageopacity="0.0"
     inkscape:pagecheckerboard="0"
     inkscape:document-units="mm"
     showgrid="false"
     inkscape:zoom="6.5567042"
     inkscape:cx="60.396197"
     inkscape:cy="60.472455"
     inkscape:window-width="1920"
     inkscape:window-height="1002"
     inkscape:window-x="0"
     inkscape:window-y="0"
     inkscape:window-maximized="1"
     inkscape:current-layer="layer1"
     inkscape:showpageshadow="2"
     inkscape:deskcolor="#d1d1d1" /><defs
     id="defs2" /><g
     inkscape:label="Capa 1"
     inkscape:groupmode="layer"
     id="layer1"><g
       id="g30675"
       transform="matrix(0.17228989,0,0,0.16736883,-54.492835,-42.922878)"
       style="stroke-width:5.88888" /><g
       id="g1905"
       transform="translate(0.56668219,-0.40634233)"><path
         style="fill:#ffffff;stroke-width:0.0197115"
         d="M 7.666341,31.462864 C 7.039032,31.416187 6.464333,31.26579 5.87895,30.995102 4.344216,30.285428 3.314206,28.8824 3.147605,27.274606 3.130975,27.114037 3.126575,24.140432 3.131365,16.265612 3.137565,6.0633764 3.139865,5.4662023 3.173695,5.2853109 3.325206,4.4754743 3.628484,3.8023778 4.122129,3.1803625 4.314226,2.9383135 4.825495,2.4558193 5.076655,2.2795598 5.761044,1.7992733 6.483701,1.5132012 7.351535,1.3790266 c 0.197199,-0.030487 0.606596,-0.033416 5.438483,-0.03885 5.747727,-0.0065 5.427347,-0.012507 5.819907,0.10979 0.55457,0.1727701 1.14348,0.5402159 1.97862,1.2345306 0.41847,0.3479023 5.35484,4.996952 5.72283,5.3897327 0.86844,0.9269323 1.26258,1.5390775 1.39435,2.1656071 0.0411,0.195308 0.0422,16.867909 10e-4,17.159109 -0.19168,1.35991 -0.95368,2.525914 -2.14664,3.284742 -0.62617,0.398302 -1.257,0.626546 -2.09176,0.756825 -0.18636,0.02908 -0.83827,0.03194 -7.901095,0.03458 -4.233888,0.0016 -7.789377,-0.004 -7.901088,-0.01224 z"
         id="path1684"
         sodipodi:nodetypes="cssscssscsssccssscc" /><path
         style="fill:#083863;stroke-width:0.0214804"
         d="M 6.7464696,32.393066 C 6.0448661,32.343506 5.4021033,32.183817 4.7473912,31.896406 3.0308929,31.142887 1.878895,29.653179 1.6925628,27.946054 1.6739633,27.775565 1.6690422,24.618248 1.6743995,16.256915 1.6813338,5.4243756 1.6839062,4.7903076 1.7217428,4.5982406 1.8911978,3.7383716 2.2303941,3.0236906 2.7825034,2.3632466 2.9973511,2.1062436 3.5691716,1.5939406 3.8500774,1.4067916 4.6155212,0.89683245 5.4237651,0.59308645 6.39438,0.45062245 c 0.220554,-0.03237 0.6784373,-0.03548 6.082582,-0.04125 6.428452,-0.0069 6.070128,-0.01328 6.50918,0.116573 0.62025,0.183444 1.278907,0.57359105 2.212956,1.31080115 0.468031,0.369396 5.989033,5.305668 6.400606,5.722715 0.971292,0.984199 1.412112,1.634163 1.559488,2.299399 0.04597,0.2073754 0.0472,17.9100244 0.0011,18.2192154 -0.214381,1.443926 -1.066627,2.681967 -2.400874,3.487676 -0.70033,0.42291 -1.405871,0.665255 -2.339495,0.803582 -0.208431,0.03088 -0.93755,0.03391 -8.836851,0.03672 -4.735324,0.0017 -8.7119017,-0.0042 -8.836843,-0.013 z m 17.4573114,-2.48267 c 0.585948,-0.118983 1.058598,-0.34633 1.443082,-0.694141 0.377862,-0.341821 0.614859,-0.735222 0.752974,-1.24989 0.03892,-0.145137 0.04127,-0.539106 0.0482,-8.337778 0.0056,-5.989237 4.93e-4,-8.228653 -0.01823,-8.346482 -0.09104,-0.573384 -0.480792,-0.852825 -1.36733,-0.980369 -0.204103,-0.02936 -0.579695,-0.03509 -2.993477,-0.04565 l -2.760093,-0.01208 -0.147655,-0.04478 C 18.735139,10.06999 18.390203,9.7617806 18.246473,9.3818486 l -0.0501,-0.132334 -0.01331,-2.508443 c -0.01409,-2.655925 -0.01454,-2.667099 -0.122312,-3.030813 -0.113096,-0.381772 -0.338292,-0.656036 -0.643762,-0.784049 l -0.129897,-0.05444 h -5.224869 c -5.7760013,0 -5.3238823,-0.0098 -5.7744254,0.124848 -0.926581,0.276863 -1.6316998,1.004771 -1.8269268,1.885969 -0.02663,0.120194 -0.031495,1.90581 -0.031495,11.5469614 v 11.404791 l 0.0543,0.192957 c 0.069589,0.247238 0.1416597,0.418796 0.2560084,0.609339 0.4408798,0.73466 1.2471442,1.218565 2.1642609,1.298949 0.1008156,0.0088 3.9963119,0.01454 8.6566669,0.01267 7.880309,-0.0032 8.485258,-0.0058 8.643181,-0.03787 z"
         id="path1668" /><g
         id="g1897"
         transform="matrix(1.1427034,0,0,1.1523697,-3.1693189,-2.7758176)"><rect
           style="fill:#083863;fill-opacity:1;stroke-width:0.381471"
           id="rect1801"
           width="10.61955"
           height="3.0300825"
           x="9.1883421"
           y="13.822345"
           ry="1.5150412" /><rect
           style="fill:#083863;fill-opacity:1;stroke-width:0.381469"
           id="rect1803"
           width="14.18231"
           height="3.0300825"
           x="9.1883421"
           y="17.837332"
           ry="1.5150412" /><rect
           style="fill:#083863;fill-opacity:1;stroke-width:0.381471"
           id="rect1805"
           width="10.61955"
           height="3.0300825"
           x="9.1883421"
           y="21.949635"
           ry="1.5150412" /></g></g></g></svg>
