<?xml version="1.0" encoding="UTF-8" standalone="no"?>
<!-- Created with Inkscape (http://www.inkscape.org/) -->

<svg
   width="22mm"
   height="22mm"
   viewBox="0 0 22 22"
   version="1.1"
   id="svg3285"
   inkscape:version="1.1.2 (0a00cf5339, 2022-02-04)"
   sodipodi:docname="btn-clock.svg"
   xmlns:inkscape="http://www.inkscape.org/namespaces/inkscape"
   xmlns:sodipodi="http://sodipodi.sourceforge.net/DTD/sodipodi-0.dtd"
   xmlns="http://www.w3.org/2000/svg"
   xmlns:svg="http://www.w3.org/2000/svg">
  <sodipodi:namedview
     id="namedview3287"
     pagecolor="#ffffff"
     bordercolor="#666666"
     borderopacity="1.0"
     inkscape:pageshadow="2"
     inkscape:pageopacity="0.0"
     inkscape:pagecheckerboard="0"
     inkscape:document-units="mm"
     showgrid="false"
     inkscape:zoom="3.1572022"
     inkscape:cx="111.96622"
     inkscape:cy="83.143234"
     inkscape:window-width="1920"
     inkscape:window-height="1001"
     inkscape:window-x="0"
     inkscape:window-y="0"
     inkscape:window-maximized="1"
     inkscape:current-layer="layer1" />
  <defs
     id="defs3282" />
  <g
     inkscape:label="Capa 1"
     inkscape:groupmode="layer"
     id="layer1">
    <path
       id="path1874"
       style="fill:#000000;stroke-width:0.0702405"
       d="m 11.016327,5.5821079e-6 c -1.2332147,0 -1.5451647,0.022799997892 -2.1768147,0.1594599978921 -1.92588,0.4166 -3.477138,1.17564002 -4.97847,2.43608002 -1.840924,1.54554 -3.13478295,3.73764 -3.66939795,6.21658 -0.31189,1.4671404 -0.191579003456,2.8004204 -0.0027,4.3384904 0.73804,3.39601 2.79434595,6.11414 5.78243695,7.64349 1.202698,0.61555 2.084546,0.90498 3.424722,1.12404 0.8896407,0.14541 2.9152437,0.0892 3.8320557,-0.10635 4.377174,-0.93387 7.658205,-4.22672 8.612488,-8.64349 0.136545,-0.63201 0.159367,-0.94415 0.159367,-2.17808 0,-1.2327604 -0.02293,-1.5466804 -0.159093,-2.1781004 -0.738473,-3.42419 -2.863496,-6.1819 -5.944409,-7.7143 C 15.041188,0.67240558 14.171561,0.37047558 13.193052,0.15918558 12.562006,0.02293558 12.248274,5.5821079e-6 11.016238,5.5821079e-6 Z M 10.537266,3.5761756 c 0.576556,-5.3e-4 1.225147,0.0597 1.727249,0.16962 2.77493,0.60723 5.015498,2.83164 5.635959,5.59535 l 0.06871,0.30617 0.537621,5.3e-4 c 0.59318,5.2e-4 0.654289,0.0153 0.751022,0.181 0.114141,0.1955504 0.09108,0.2324604 -0.855527,1.3681704 -0.481359,0.5775 -0.907663,1.07285 -0.947421,1.10071 -0.100128,0.0702 -0.253571,0.0634 -0.354116,-0.0157 -0.107718,-0.0848 -1.767885,-2.08021 -1.812826,-2.17892 -0.04788,-0.1050904 -0.0072,-0.2756404 0.08695,-0.3642004 0.07791,-0.0733 0.09812,-0.0761 0.645003,-0.0856 l 0.564649,-0.01 -0.02112,-0.10018 c -0.05216,-0.24744 -0.285591,-0.88419 -0.439561,-1.19924 -0.829897,-1.69815 -2.393561,-2.91733 -4.226357,-3.29514 -2.0146657,-0.41529 -4.0817767,0.20836 -5.5256947,1.6672 -0.942475,0.9522 -1.503899,2.07568 -1.723811,3.4495104 -0.05194,0.32446 -0.05194,1.34011 0,1.66457 0.219912,1.37384 0.781336,2.49717 1.723811,3.44938 0.619698,0.6261 1.348146,1.09981 2.16228,1.40604 1.5749517,0.5924 3.3217807,0.50361 4.8289807,-0.24536 1.002345,-0.4981 1.777785,-1.19071 2.416828,-2.15901 0.131247,-0.19888 0.28463,-0.39685 0.340941,-0.43982 0.430215,-0.32834 1.055914,-0.0143 1.055914,0.52997 0,0.2159 -0.02271,0.26828 -0.301732,0.69369 -0.742692,1.13235 -1.710582,1.98371 -2.946901,2.59225 -1.178254,0.57996 -2.459432,0.83526 -3.767321,0.75077 -1.4588917,-0.0942 -2.9239967,-0.66196 -4.1090957,-1.59225 -0.335199,-0.26314 -1.041104,-0.989 -1.305371,-1.34224 -0.76316,-1.02007 -1.236045,-2.15554 -1.43251,-3.43936 -0.0766,-0.50052 -0.0766,-1.5723 0,-2.0728304 0.196651,-1.28496 0.670535,-2.42207 1.433333,-3.43922 0.266471,-0.35532 0.9719,-1.08123 1.304548,-1.34237 1.077819,-0.84609 2.390392,-1.39139 3.764579,-1.56399 0.2117667,-0.0266 0.4589207,-0.0394 0.7209877,-0.0396 z m 0.116164,1.68271 c 0.119094,-0.002 0.2419,0.0332 0.364131,0.10484 0.07376,0.0432 0.172624,0.13791 0.219715,0.21036 l 0.08558,0.13174 0.0088,2.1479 0.0087,2.1479004 0.161281,0.17621 c 0.169744,0.18556 0.248037,0.33129 0.309136,0.57539 l 0.03702,0.14794 1.205534,0.69574 c 1.307396,0.75447 1.393137,0.81899 1.451981,1.09358 0.0345,0.16102 0.0011,0.37741 -0.07639,0.49649 -0.170961,0.26239 -0.504389,0.38381 -0.78325,0.28516 -0.05178,-0.0183 -0.602559,-0.32612 -1.224045,-0.68395 -1.401961,-0.80718 -1.249115,-0.72956 -1.355572,-0.68861 -0.547926,0.21078 -1.1955347,-0.0582 -1.4533517,-0.60366 -0.214504,-0.45383 -0.126355,-0.97011 0.226154,-1.32399 l 0.150175,-0.15068 V 7.9555556 c 0,-2.35041 -0.0055,-2.29114 0.2326027,-2.51074 0.131829,-0.12158 0.278768,-0.18385 0.431877,-0.18593 z m 0.01442,5.2411604 c -0.151941,-5.9e-4 -0.305763,0.0661 -0.41007,0.20721 -0.0856,0.11578 -0.102185,0.37683 -0.03319,0.5223 0.110225,0.23242 0.434394,0.33615 0.673946,0.21572 0.224766,-0.113 0.327944,-0.38376 0.236992,-0.62206 -0.08004,-0.20968 -0.272324,-0.32226 -0.467675,-0.32317 z"
       inkscape:export-filename="/home/julian-guerrero/buttontimer.png"
       inkscape:export-xdpi="6.7399998"
       inkscape:export-ydpi="6.7399998" />
  </g>
</svg>
