<?xml version="1.0" encoding="UTF-8" standalone="no"?>
<!-- Created with Inkscape (http://www.inkscape.org/) -->

<svg
   width="32"
   height="32"
   viewBox="0 0 8.4666665 8.4666669"
   version="1.1"
   id="svg5"
   inkscape:version="1.1.2 (0a00cf5339, 2022-02-04)"
   sodipodi:docname="btn-user-plus.svg"
   xmlns:inkscape="http://www.inkscape.org/namespaces/inkscape"
   xmlns:sodipodi="http://sodipodi.sourceforge.net/DTD/sodipodi-0.dtd"
   xmlns="http://www.w3.org/2000/svg"
   xmlns:svg="http://www.w3.org/2000/svg">
  <sodipodi:namedview
     id="namedview7"
     pagecolor="#ffffff"
     bordercolor="#666666"
     borderopacity="1.0"
     inkscape:pageshadow="2"
     inkscape:pageopacity="0.0"
     inkscape:pagecheckerboard="0"
     inkscape:document-units="mm"
     showgrid="false"
     units="px"
     width="32px"
     inkscape:zoom="10.261988"
     inkscape:cx="18.271314"
     inkscape:cy="14.519604"
     inkscape:window-width="1920"
     inkscape:window-height="1001"
     inkscape:window-x="0"
     inkscape:window-y="0"
     inkscape:window-maximized="1"
     inkscape:current-layer="layer1" />
  <defs
     id="defs2" />
  <g
     inkscape:label="Capa 1"
     inkscape:groupmode="layer"
     id="layer1">
    <path
       style="fill:#000000;stroke-width:0.024573"
       d="M 6.129349,8.4327173 C 5.6854683,8.3472723 5.3267764,8.1440119 5.0155292,7.8015405 L 4.8566607,7.6267355 H 2.4283294 -1.3200293e-6 L 0.01686868,7.3973206 C 0.12213168,5.9656866 1.0290637,4.7673065 2.3485645,4.3163242 L 2.5931083,4.2327392 2.4378791,4.1534782 C 1.6712707,3.7620325 1.2101967,2.9498277 1.2557537,2.0711094 1.3052937,1.1155463 1.9508923,0.31229929 2.8743006,0.05732129 c 0.2615664,-0.07223 0.7685133,-0.077 1.0273724,-0.0097 0.6617569,0.172097 1.1572543,0.579642 1.4499859,1.19260901 0.2533545,0.5305107 0.2798654,1.1737922 0.071667,1.7389952 -0.1751666,0.475533 -0.541587,0.8997368 -0.9901272,1.1462676 -0.1641319,0.09021 -0.2019851,0.1281695 -0.1278166,0.1281695 0.1230223,0 0.642967,0.2292033 0.9380274,0.4134988 l 0.1365994,0.085326 0.119036,-0.070911 C 5.8073116,4.497937 6.1073428,4.4193928 6.4945436,4.4209671 c 0.3479157,0.00132 0.5762104,0.054859 0.8664396,0.2028428 0.5319953,0.2712562 0.8830509,0.7100332 1.0500932,1.3124949 0.068943,0.2486554 0.074797,0.7309829 0.011753,0.9681607 C 8.3216898,7.2849469 8.182788,7.5438788 7.9327985,7.8179554 7.4684883,8.3270005 6.787005,8.5593021 6.1293518,8.4327016 Z M 6.9396022,7.8622676 C 7.1714365,7.7872606 7.3862091,7.6464073 7.559516,7.4557115 7.725261,7.2733369 7.8020622,7.1402699 7.884667,6.8923554 7.966486,6.6468008 7.976806,6.2870283 7.908776,6.0518164 7.7879088,5.6339202 7.4985408,5.2775132 7.137262,5.1015573 6.8652889,4.9690937 6.7145152,4.9386269 6.4057893,4.9537372 6.0048045,4.9733692 5.7237722,5.1010943 5.4347297,5.3950702 5.2634803,5.5692481 5.1020519,5.8630653 5.0466529,6.1014205 5.0065919,6.2737807 5.0124099,6.6431522 5.0579449,6.8183911 5.1760607,7.2729532 5.5142909,7.6577209 5.9506002,7.8338699 6.270958,7.9632035 6.5985556,7.9726095 6.9396033,7.8622679 Z M 6.2145604,7.0810959 V 6.7090652 H 5.8493674 5.4841743 V 6.4486464 6.188225 h 0.3651931 0.365193 V 5.8037986 5.4193669 H 6.482368 6.7501766 V 5.8037986 6.188225 h 0.3651931 0.365193 V 6.4486464 6.7090652 H 7.1153697 6.7501766 V 7.0810959 7.4531265 H 6.482368 6.2145604 Z"
       id="path854" />
  </g>
</svg>
