<?xml version="1.0" encoding="UTF-8" standalone="no"?>
<!-- Created with Inkscape (http://www.inkscape.org/) -->

<svg
   width="22"
   height="22"
   viewBox="0 0 5.8208332 5.8208335"
   version="1.1"
   id="svg5"
   inkscape:version="1.1.2 (0a00cf5339, 2022-02-04)"
   sodipodi:docname="btn-file-upload_______.svg"
   xmlns:inkscape="http://www.inkscape.org/namespaces/inkscape"
   xmlns:sodipodi="http://sodipodi.sourceforge.net/DTD/sodipodi-0.dtd"
   xmlns="http://www.w3.org/2000/svg"
   xmlns:svg="http://www.w3.org/2000/svg">
  <sodipodi:namedview
     id="namedview7"
     pagecolor="#ffffff"
     bordercolor="#666666"
     borderopacity="1.0"
     inkscape:pageshadow="2"
     inkscape:pageopacity="0.0"
     inkscape:pagecheckerboard="0"
     inkscape:document-units="mm"
     showgrid="false"
     inkscape:zoom="5.1868083"
     inkscape:cx="-30.943885"
     inkscape:cy="41.258513"
     inkscape:window-width="1920"
     inkscape:window-height="1001"
     inkscape:window-x="0"
     inkscape:window-y="0"
     inkscape:window-maximized="1"
     inkscape:current-layer="layer1"
     units="px" />
  <defs
     id="defs2" />
  <g
     inkscape:label="Capa 1"
     inkscape:groupmode="layer"
     id="layer1">
    <path
       style="fill:#d31d23;stroke-width:0.0122106"
       d="M 0.94242171,5.8006379 C 0.82903979,5.7613154 0.73700426,5.6655616 0.70627499,5.5549499 0.69859933,5.5273313 0.69425893,4.5743705 0.69421325,2.908326 0.6941668,0.31619883 0.6942536,0.30457036 0.71909821,0.23816909 0.75053184,0.1541534 0.82256955,0.07910407 0.91204043,0.03715829 l 0.069058,-0.03237786 0.83032467,-0.003731 c 0.8721723,-0.00396 1.000374,0.001523 1.124303,0.04788147 0.1578437,0.05905991 0.2725407,0.21120922 0.2981056,0.39545312 0.00655,0.0470134 0.012031,0.28328728 0.012244,0.52505827 4.15e-4,0.46487711 0.00442,0.50575531 0.060156,0.61479911 0.040663,0.079531 0.1173842,0.1559689 0.1946374,0.193907 l 0.068891,0.033832 0.567796,0.00647 c 0.6170229,0.00701 0.6133747,0.00662 0.7405012,0.080805 0.062768,0.036619 0.1527532,0.13154 0.1854402,0.1956119 0.065243,0.127888 0.063118,0.066705 0.063118,1.8202025 v 1.6233577 l -0.037206,0.074449 c -0.041767,0.08358 -0.099717,0.1404204 -0.1819671,0.1784773 l -0.055565,0.025715 -1.9231789,0.00274 c -1.8212808,0.00259 -1.9265218,0.0016 -1.98627768,-0.019151 z M 1.8297404,3.7595608 V 3.5764012 l 0.082422,-2.307e-4 C 2.2261172,3.5752567 2.3592579,3.4774081 2.3604671,3.2467242 2.3612285,3.0957163 2.2960388,2.9978479 2.1695945,2.9602981 2.120015,2.9455712 2.0412786,2.9414593 1.809208,2.9414593 H 1.512263 v 0.4924968 c 0,0.270873 0.00366,0.4961596 0.00814,0.5006363 0.00449,0.00449 0.075911,0.00814 0.1587391,0.00814 h 0.1505982 z m 0,-0.50812 V 3.1462721 l 0.085538,0.0048 c 0.1027281,0.00579 0.1358568,0.030246 0.1378823,0.1017276 0.00206,0.071243 -0.043351,0.1037759 -0.1447318,0.1037759 H 1.8297409 Z M 3.9028017,3.7381923 3.9061517,3.539769 H 4.095115 4.2840777 V 3.4298731 3.3199772 H 4.0948172 3.9055522 V 3.240608 3.1612389 H 4.1253439 4.3451357 V 3.051343 2.9414471 H 3.9666056 3.5880747 v 0.5010018 0.5010017 l 0.1556856,-0.00343 0.1556864,-0.00343 z M 3.1143109,3.9167952 C 3.2006498,3.898497 3.255495,3.8689747 3.3081037,3.8124908 3.4018685,3.7118187 3.4293988,3.6277931 3.4291909,3.4429202 3.4289602,3.2468986 3.3901426,3.132628 3.2943453,3.046082 3.1912799,2.9529682 3.1686009,2.9480483 2.8218562,2.9435739 L 2.513537,2.9396139 v 0.4954575 0.4954567 h 0.2680334 c 0.1517435,0 0.2961075,-0.00594 0.3327405,-0.013714 z M 2.8310137,3.4359794 V 3.1734499 l 0.070208,2.771e-4 c 0.1640169,6.275e-4 0.2172324,0.069705 0.2161359,0.2805765 -9.899e-4,0.1937433 -0.042399,0.2442137 -0.2002668,0.2442137 l -0.086081,-7e-7 z M 4.9449029,1.7791069 C 4.9154796,1.7582806 4.8522864,1.7269992 4.8044803,1.7095996 L 4.7175603,1.6779606 4.192502,1.6717206 C 3.691511,1.6657768 3.6648975,1.6642538 3.6118761,1.639742 3.495034,1.5856773 3.4229385,1.4918683 3.3942233,1.3565334 3.3856034,1.3159164 3.3804939,1.1382128 3.3804939,0.87921808 c 0,-0.44980334 -0.00754,-0.51333005 -0.079371,-0.67026598 -0.01679,-0.0366726 -0.030528,-0.068921 -0.030528,-0.0716547 0,-0.002741 0.3901305,0.37226929 0.8669569,0.83335233 C 4.6143776,1.4317332 5.004508,1.8110317 5.004508,1.8135362 c 0,0.00731 -0.00343,0.00533 -0.059608,-0.034403 z"
       id="path874" />
  </g>
</svg>
