<?xml version="1.0" encoding="UTF-8" standalone="no"?>
<!-- Created with Inkscape (http://www.inkscape.org/) -->

<svg
   width="100mm"
   height="100mm"
   viewBox="0 0 100 100"
   version="1.1"
   id="svg5"
   inkscape:version="1.1.2 (0a00cf5339, 2022-02-04)"
   sodipodi:docname="notificacion_question.svg"
   xmlns:inkscape="http://www.inkscape.org/namespaces/inkscape"
   xmlns:sodipodi="http://sodipodi.sourceforge.net/DTD/sodipodi-0.dtd"
   xmlns="http://www.w3.org/2000/svg"
   xmlns:svg="http://www.w3.org/2000/svg">
  <sodipodi:namedview
     id="namedview7"
     pagecolor="#ffffff"
     bordercolor="#666666"
     borderopacity="1.0"
     inkscape:pageshadow="2"
     inkscape:pageopacity="0.0"
     inkscape:pagecheckerboard="0"
     inkscape:document-units="mm"
     showgrid="false"
     width="100mm"
     inkscape:zoom="0.648067"
     inkscape:cx="329.44125"
     inkscape:cy="354.90158"
     inkscape:window-width="1516"
     inkscape:window-height="849"
     inkscape:window-x="2052"
     inkscape:window-y="100"
     inkscape:window-maximized="0"
     inkscape:current-layer="layer1" />
  <defs
     id="defs2" />
  <g
     inkscape:label="Capa 1"
     inkscape:groupmode="layer"
     id="layer1">
    <path
       id="path65"
       style="fill:#999999;stroke:none;stroke-width:0.300577"
       d="M 49.999996,0.150331 A 49.849711,49.849711 0 0 0 0.15032688,49.999998 49.849711,49.849711 0 0 0 49.999996,99.849669 49.849711,49.849711 0 0 0 99.849673,49.999998 49.849711,49.849711 0 0 0 49.999996,0.150331 Z m 0,4.985225 A 44.864742,44.864742 0 0 1 94.864964,49.999998 44.864742,44.864742 0 0 1 49.999996,94.864958 44.864742,44.864742 0 0 1 5.1350358,49.999998 44.864742,44.864742 0 0 1 49.999996,5.135556 Z" />
    <g
       aria-label="?"
       id="text2044"
       style="font-size:76.7468px;line-height:1.25;stroke-width:1.91868;fill:#999999">
      <path
         d="m 39.178702,40.79038 c 2.609391,-3.069872 6.676971,-6.293238 9.977084,-6.293238 2.686138,0 5.679263,0.690722 5.679263,3.6071 0,4.221074 -12.202741,8.211908 -12.202741,15.272614 V 59.5166 h 14.274905 v -4.221074 c 0,-4.604808 12.202742,-7.060706 12.202742,-17.03779 0,-10.360819 -8.058415,-15.733095 -18.265739,-15.733095 -7.674681,0 -14.581893,3.683847 -19.954169,9.900338 z m 1.458189,28.780051 c 0,3.990834 3.760593,7.904921 8.749135,7.904921 5.602517,0 9.13287,-3.6071 9.13287,-7.904921 0,-4.374567 -3.683847,-8.135161 -9.13287,-8.135161 -5.525769,0 -8.749135,4.297821 -8.749135,8.135161 z"
         style="font-family:ChunkFive;-inkscape-font-specification:'ChunkFive, Normal';fill:#999999"
         id="path16058" />
    </g>
  </g>
</svg>
