<?xml version="1.0" encoding="UTF-8" standalone="no"?>
<!-- Created with Inkscape (http://www.inkscape.org/) -->

<svg
   width="100mm"
   height="100mm"
   viewBox="0 0 100 100"
   version="1.1"
   id="svg5"
   inkscape:version="1.1.2 (0a00cf5339, 2022-02-04)"
   sodipodi:docname="notificacion_error.svg"
   xmlns:inkscape="http://www.inkscape.org/namespaces/inkscape"
   xmlns:sodipodi="http://sodipodi.sourceforge.net/DTD/sodipodi-0.dtd"
   xmlns="http://www.w3.org/2000/svg"
   xmlns:svg="http://www.w3.org/2000/svg">
  <sodipodi:namedview
     id="namedview7"
     pagecolor="#ffffff"
     bordercolor="#666666"
     borderopacity="1.0"
     inkscape:pageshadow="2"
     inkscape:pageopacity="0.0"
     inkscape:pagecheckerboard="0"
     inkscape:document-units="mm"
     showgrid="false"
     width="100mm"
     inkscape:zoom="0.57370932"
     inkscape:cx="245.76906"
     inkscape:cy="282.37296"
     inkscape:window-width="1516"
     inkscape:window-height="849"
     inkscape:window-x="2122"
     inkscape:window-y="56"
     inkscape:window-maximized="0"
     inkscape:current-layer="layer1" />
  <defs
     id="defs2" />
  <g
     inkscape:label="Capa 1"
     inkscape:groupmode="layer"
     id="layer1">
    <path
       id="path65"
       style="fill:#d40000;stroke:none;stroke-width:0.300577"
       d="M 49.999996,0.1503315 A 49.849711,49.849711 0 0 0 0.1503265,49.999998 49.849711,49.849711 0 0 0 49.999996,99.849669 49.849711,49.849711 0 0 0 99.849673,49.999998 49.849711,49.849711 0 0 0 49.999996,0.1503315 Z m 0,4.985225 A 44.864742,44.864742 0 0 1 94.864964,49.999998 44.864742,44.864742 0 0 1 49.999996,94.864958 44.864742,44.864742 0 0 1 5.1350355,49.999998 44.864742,44.864742 0 0 1 49.999996,5.1355565 Z" />
    <path
       id="rect293"
       style="fill:#d40000;stroke:none;stroke-width:0.264583"
       d="m 29.928357,21.376226 c -2.184065,0 -4.368464,0.8369 -6.042008,2.51044 -3.347087,3.34709 -3.347087,8.7359 0,12.08299 l 14.030149,14.03015 -14.030149,14.03015 c -3.347087,3.34709 -3.347087,8.73641 0,12.0835 3.347087,3.34709 8.736413,3.34709 12.083499,0 l 14.03015,-14.03015 14.03015,14.03015 c 3.34709,3.34709 8.73642,3.34709 12.0835,0 3.34709,-3.34709 3.34709,-8.73641 0,-12.0835 l -14.03015,-14.03015 14.03015,-14.03015 c 3.34709,-3.34709 3.34709,-8.7359 0,-12.08299 -3.34708,-3.34708 -8.73641,-3.34708 -12.0835,0 l -14.03015,14.03016 -14.03015,-14.03016 c -1.673543,-1.67354 -3.857426,-2.51044 -6.041491,-2.51044 z" />
  </g>
</svg>
