<?xml version="1.0" encoding="UTF-8" standalone="no"?>
<svg
   width="32"
   height="32"
   fill="currentColor"
   class="bi bi-scissors"
   viewBox="0 0 32 32"
   version="1.1"
   id="svg4"
   sodipodi:docname="scissors.svg"
   inkscape:version="1.1.2 (0a00cf5339, 2022-02-04)"
   xmlns:inkscape="http://www.inkscape.org/namespaces/inkscape"
   xmlns:sodipodi="http://sodipodi.sourceforge.net/DTD/sodipodi-0.dtd"
   xmlns="http://www.w3.org/2000/svg"
   xmlns:svg="http://www.w3.org/2000/svg">
  <defs
     id="defs8" />
  <sodipodi:namedview
     id="namedview6"
     pagecolor="#ffffff"
     bordercolor="#666666"
     borderopacity="1.0"
     inkscape:pageshadow="2"
     inkscape:pageopacity="0.0"
     inkscape:pagecheckerboard="0"
     showgrid="false"
     width="32px"
     inkscape:zoom="5.03125"
     inkscape:cx="-10.335404"
     inkscape:cy="-0.59627329"
     inkscape:window-width="1920"
     inkscape:window-height="1001"
     inkscape:window-x="0"
     inkscape:window-y="0"
     inkscape:window-maximized="1"
     inkscape:current-layer="svg4" />
  <path
     d="M 6.3991512,5.3338055 C 5.0891682,3.4477721 6.2412702,1.1478353 8.2297132,5.3991976e-7 L 15.999999,13.283308 23.770286,5.3991976e-7 C 25.758729,1.1478353 26.910831,3.4477721 25.600848,5.3338055 l -7.872696,10.9022965 3.31976,5.677302 a 5.333805,5.333805 0 1 1 -1.694016,1.359054 l -3.353897,-4.646811 -3.353896,4.644677 a 5.333805,5.333805 0 1 1 -1.694016,-1.359053 l 3.319759,-5.675169 z M 11.732955,26.669025 a 3.200283,3.200283 0 1 0 -6.4005648,0 3.200283,3.200283 0 0 0 6.4005648,0 z m 14.934654,0 a 3.200283,3.200283 0 1 0 -6.400566,0 3.200283,3.200283 0 0 0 6.400566,0 z"
     id="path2"
     style="stroke-width:1" />
</svg>
