<?xml version="1.0" encoding="UTF-8" standalone="no"?>
<!-- Created with Inkscape (http://www.inkscape.org/) -->

<svg
   width="64"
   height="64"
   viewBox="0 0 16.933333 16.933334"
   version="1.1"
   id="svg5"
   inkscape:version="1.1.2 (0a00cf5339, 2022-02-04)"
   sodipodi:docname="sendmail.svg"
   xmlns:inkscape="http://www.inkscape.org/namespaces/inkscape"
   xmlns:sodipodi="http://sodipodi.sourceforge.net/DTD/sodipodi-0.dtd"
   xmlns="http://www.w3.org/2000/svg"
   xmlns:svg="http://www.w3.org/2000/svg">
  <sodipodi:namedview
     id="namedview7"
     pagecolor="#ffffff"
     bordercolor="#666666"
     borderopacity="1.0"
     inkscape:pageshadow="2"
     inkscape:pageopacity="0.0"
     inkscape:pagecheckerboard="0"
     inkscape:document-units="mm"
     showgrid="false"
     units="px"
     width="64px"
     inkscape:zoom="1.046974"
     inkscape:cx="-227.79935"
     inkscape:cy="59.21828"
     inkscape:window-width="1920"
     inkscape:window-height="1001"
     inkscape:window-x="0"
     inkscape:window-y="0"
     inkscape:window-maximized="1"
     inkscape:current-layer="layer1" />
  <defs
     id="defs2" />
  <g
     inkscape:label="Capa 1"
     inkscape:groupmode="layer"
     id="layer1">
    <path
       style="fill:#000000;stroke-width:0.0198432"
       d="m 12.90104,16.923047 c -1.039436,-0.07648 -2.027758,-0.590441 -2.668424,-1.387664 l -0.09818,-0.122168 -4.630674,-0.0051 -4.63067695,-0.0051 -0.13052,-0.0438 c -0.07178,-0.02409 -0.161973,-0.06269 -0.200415,-0.0858 l -0.06989,-0.04201 0.06195,-0.05146 C 0.56828005,15.151645 1.101235,14.7044 1.718549,14.186075 2.33586,13.667751 3.356017,12.811812 3.985563,12.28399 4.615107,11.756164 5.477118,11.033112 5.901139,10.677207 6.777765,9.9414054 6.964324,9.7997034 7.218387,9.6766904 c 0.278189,-0.134697 0.474475,-0.144996 0.7336,-0.03848 0.287138,0.118018 0.48998,0.267403 1.304328,0.9605676 0.3674472,0.312766 0.6934362,0.588719 0.7244232,0.613232 l 0.05634,0.04456 0.0659,-0.09358 c 0.03625,-0.05147 0.136397,-0.175484 0.222554,-0.275581 l 0.156653,-0.181992 -0.05074,-0.04352 c -0.02791,-0.02394 -0.145145,-0.122931 -0.260532,-0.219996 -0.115386,-0.09707 -0.2079416,-0.1865 -0.2056796,-0.198744 0.0023,-0.01225 1.0387376,-0.7968016 2.3032796,-1.7434622 1.264542,-0.946661 2.450349,-1.834496 2.635127,-1.972967 0.184777,-0.13847 0.34065,-0.251766 0.346379,-0.251766 0.0057,0 0.01048,0.884617 0.01055,1.965816 l 2.27e-4,1.9658132 0.162648,0.117097 c 1.440896,1.037374 1.921566,2.969835 1.131754,4.550053 -0.671897,1.344302 -2.129058,2.161527 -3.654055,2.049319 z m 0.833323,-0.794533 c 0.389439,-0.07467 0.765213,-0.22544 1.104404,-0.443129 0.24611,-0.157949 0.651352,-0.550393 0.807939,-0.782421 0.229129,-0.339522 0.398901,-0.743854 0.472374,-1.125008 0.05187,-0.269108 0.0457,-0.818841 -0.01219,-1.084713 -0.252964,-1.161888 -1.145503,-2.03368 -2.338624,-2.28427 -0.275374,-0.05783 -0.855251,-0.06262 -1.127537,-0.0093 -1.212344,0.237395 -2.124227,1.113571 -2.382985,2.289671 -0.06006,0.272959 -0.06534,0.837159 -0.01034,1.104993 0.121702,0.592713 0.396151,1.100109 0.822585,1.520795 0.480044,0.473577 1.092792,0.762818 1.80093,0.850114 0.148944,0.01836 0.697893,-0.005 0.863443,-0.03672 z M 13.01148,15.15315 c -0.0497,-0.02602 -0.117468,-0.08489 -0.1506,-0.130804 l -0.06024,-0.0835 -0.0056,-1.145462 c -0.0031,-0.630006 -0.01001,-1.145464 -0.01529,-1.145464 -0.0053,0 -0.119877,0.107114 -0.254596,0.23803 -0.256002,0.248774 -0.328829,0.294686 -0.467441,0.294686 -0.287515,0 -0.470268,-0.294517 -0.336641,-0.54252 0.02392,-0.04442 0.306484,-0.334932 0.651295,-0.669664 0.625226,-0.606946 0.659933,-0.634123 0.809831,-0.634123 0.149898,0 0.184603,0.02718 0.809831,0.634123 0.352857,0.342543 0.626453,0.62414 0.650451,0.669473 0.04994,0.09434 0.05473,0.250731 0.01022,0.334005 -0.07131,0.133445 -0.193262,0.205437 -0.347973,0.205437 -0.147157,0 -0.222849,-0.04668 -0.483138,-0.297976 l -0.246573,-0.238051 -0.0057,1.135717 c -0.0055,1.108217 -0.0067,1.137618 -0.0476,1.214155 -0.09592,0.179353 -0.333154,0.254648 -0.510252,0.161944 z M 0.05147502,14.574512 C 0.00498502,14.357621 3.7501752e-4,13.973934 5.0175203e-6,10.289917 -2.2198248e-4,8.1140398 0.00350502,6.3337758 0.00820502,6.3337758 c 0.0047,0 0.57174403,0.416146 1.26002298,0.924768 0.688281,0.508624 1.508946,1.114753 1.8237,1.346957 1.355379,0.9998986 2.208807,1.6332182 2.208807,1.6391322 0,0.0059 -0.397564,0.340215 -2.8697,2.413123 -0.514509,0.431421 -1.253549,1.051314 -1.64231095,1.377541 -0.38876103,0.326227 -0.71108103,0.59314 -0.71626603,0.59314 -0.0052,0 -0.01463,-0.02427 -0.02099,-0.05393 z M 3.553774,6.7651768 v -0.352965 h 4.076251 4.076252 v 0.352965 0.352963 H 7.630025 3.553774 Z M 1.696369,6.6932868 C 1.431311,6.4954718 1.013572,6.1858548 0.76805905,6.0052458 0.52254605,5.8246378 0.32186902,5.6680438 0.32210902,5.6572588 c 2.28e-4,-0.01078 0.26662803,-0.23101 0.59196803,-0.489387 L 1.505608,4.6980948 v -0.610951 c 0,-0.336024 0.0091,-0.657836 0.02023,-0.715141 0.0647,-0.333179 0.34148,-0.604067 0.680289,-0.665816 0.06122,-0.01116 0.479531,-0.02007 0.963843,-0.02053 l 0.855683,-8.24e-4 1.626484,-1.302716 C 6.925133,0.36252077 7.301696,0.07077277 7.384794,0.03971277 c 0.06966,-0.02604 0.15399,-0.03968999958 0.245228,-0.03968999958 0.09124,0 0.175565,0.01363999958 0.245228,0.03968999958 0.0831,0.03106 0.459661,0.322808 1.7326582,1.34240403 l 1.6264848,1.302717 0.855682,8.23e-4 c 0.484312,4.44e-4 0.902623,0.0094 0.963843,0.02053 0.33881,0.06175 0.615586,0.332636 0.680288,0.665816 0.01113,0.05731 0.02023,0.379017 0.02023,0.714919 v 0.610729 l 0.572282,0.456832 c 0.314755,0.251258 0.572282,0.463715 0.572282,0.472129 0,0.01275 -0.42244,0.334234 -1.402429,1.067305 -0.08458,0.06327 -0.210056,0.158127 -0.278845,0.210799 -0.06879,0.05267 -0.1343,0.09577 -0.145581,0.09577 -0.01381,0 -0.02051,-0.582527 -0.02051,-1.783318 v -1.783319 l -0.04463,-0.03053 c -0.04012,-0.02744 -0.583284,-0.03053 -5.376987,-0.03053 -4.793702,0 -5.336867,0.0031 -5.376986,0.03053 l -0.04463,0.03053 v 1.801771 c 0,0.990974 -0.0068,1.805271 -0.01506,1.80955 -0.0083,0.0043 -0.231925,-0.154069 -0.496981,-0.351881 z m 1.857405,-1.790979 v -0.352965 h 4.076251 4.076252 v 0.352965 0.352963 H 7.630025 3.553774 Z"
       id="path934" />
  </g>
</svg>
