<?xml version="1.0" encoding="UTF-8" standalone="no"?>
<svg
   width="24"
   height="24"
   viewBox="0 0 24 24"
   fill="none"
   stroke="currentColor"
   stroke-width="2"
   stroke-linecap="round"
   stroke-linejoin="round"
   class="icon icon-tabler icons-tabler-outline icon-tabler-trash"
   version="1.1"
   id="svg14"
   sodipodi:docname="trash.svg"
   inkscape:version="1.1.2 (0a00cf5339, 2022-02-04)"
   xmlns:inkscape="http://www.inkscape.org/namespaces/inkscape"
   xmlns:sodipodi="http://sodipodi.sourceforge.net/DTD/sodipodi-0.dtd"
   xmlns="http://www.w3.org/2000/svg"
   xmlns:svg="http://www.w3.org/2000/svg">
  <defs
     id="defs18" />
  <sodipodi:namedview
     id="namedview16"
     pagecolor="#ffffff"
     bordercolor="#666666"
     borderopacity="1.0"
     inkscape:pageshadow="2"
     inkscape:pageopacity="0.0"
     inkscape:pagecheckerboard="0"
     showgrid="false"
     inkscape:zoom="11.70863"
     inkscape:cx="4.4411686"
     inkscape:cy="17.337639"
     inkscape:window-width="1920"
     inkscape:window-height="1001"
     inkscape:window-x="0"
     inkscape:window-y="0"
     inkscape:window-maximized="1"
     inkscape:current-layer="svg14" />
  <g
     id="g3562"
     transform="matrix(0.04573088,0,0,0.0459637,34.41641,5.2914286)"
     style="stroke-width:4.36232;stroke-miterlimit:4;stroke-dasharray:none;fill:#c90000;fill-opacity:1">
    <path
       id="path1436"
       style="fill:#c90000;stroke:#000000;stroke-width:4.36232;stroke-linecap:butt;stroke-linejoin:miter;stroke-miterlimit:4;stroke-dasharray:none;stroke-opacity:1;fill-opacity:1"
       d="m -316.38281,50.724609 -348.80078,1.013672 -1.08399,278.675779 c 2.16996,21.44109 18.07273,63.54616 65.83789,72.59766 l 220.94531,-1.70899 c 46.6194,-9.48828 58.18509,-35.16631 64.50391,-63.26757 z m -269.15235,62.857421 c 5.71014,0.0401 11.46896,3.13585 14.88672,11.15625 l -0.67773,195.72266 c -4.20548,29.53017 -32.01603,15.09299 -30.97461,1.96484 l 0.0625,-197.81445 c 2.10054,-6.07979 9.36152,-11.08089 16.70312,-11.0293 z m 95.82422,0 c 5.71014,0.0401 11.46895,3.13585 14.88672,11.15625 l -0.67773,195.72266 c -4.20548,29.53017 -32.01799,15.09299 -30.97657,1.96484 l 0.0645,-197.81445 c 2.10054,-6.07979 9.36152,-11.08089 16.70312,-11.0293 z m 95.70313,0 c 5.71013,0.0401 11.46895,3.13585 14.88672,11.15625 l -0.67774,195.72266 c -4.20548,29.53017 -32.01798,15.09299 -30.97656,1.96484 l 0.0645,-197.81445 c 2.10054,-6.07979 9.36153,-11.08089 16.70313,-11.0293 z" />
    <path
       style="fill:#c90000;stroke:#000000;stroke-width:4.36232;stroke-linecap:butt;stroke-linejoin:miter;stroke-miterlimit:4;stroke-dasharray:none;stroke-opacity:1;fill-opacity:1"
       d="m -675.70276,-45.945408 c -26.21094,4.299861 -32.16619,60.575496 -0.98821,63.446808 124.01131,-0.07622 248.02261,-0.152445 372.03392,-0.228667 29.24896,-8.0205752 29.68482,-58.688208 -0.0667,-62.559641 -45.06181,-0.07682 -92.02969,-0.153635 -137.0915,-0.230453 0.46195,-44.396292 -19.31619,-64.204309 -45.96226,-65.522769 -36.2458,-1.79346 -56.27148,32.929724 -50.3304,66.010032 -45.86496,-0.305103 -91.72992,-0.610207 -137.59487,-0.91531 z"
       id="path1438"
       sodipodi:nodetypes="cccccscc" />
  </g>
</svg>
